ISO-10303-21;
HEADER;
FILE_DESCRIPTION (( 'STEP AP214' ),
    '1' );
FILE_NAME ('BreadboardHolder_Clamp.STEP',
    '2026-09-12T22:00:30',
    ( '' ),
    ( '' ),
    'SwSTEP 2.0',
    'SolidWorks 2026',
    '' );
FILE_SCHEMA (( 'AUTOMOTIVE_DESIGN' ));
ENDSEC;

DATA;
#1 = VERTEX_POINT ( 'NONE', #277 ) ;
#2 = ORIENTED_EDGE ( 'NONE', *, *, #126, .T. ) ;
#3 = CARTESIAN_POINT ( 'NONE',  ( 0.000000000000000000, 40.02499999999999147, 2.000000000000000000 ) ) ;
#4 = PRESENTATION_LAYER_ASSIGNMENT (  '', '', ( #193 ) ) ;
#5 = CARTESIAN_POINT ( 'NONE',  ( -5.000000000000007105, 38.62500000000000711, 11.50000000000000000 ) ) ;
#6 = DIRECTION ( 'NONE',  ( -0.000000000000000000, -0.000000000000000000, 1.000000000000000000 ) ) ;
#7 = DIRECTION ( 'NONE',  ( 0.000000000000000000, 7.304098846218136639E-16, 1.000000000000000000 ) ) ;
#8 = PRESENTATION_STYLE_ASSIGNMENT (( #237 ) ) ;
#9 = EDGE_CURVE ( 'NONE', #262, #250, #323, .T. ) ;
#10 = CARTESIAN_POINT ( 'NONE',  ( 0.000000000000000000, 41.49999999999999289, 2.000000000000000000 ) ) ;
#11 = CARTESIAN_POINT ( 'NONE',  ( 5.000000000000004441, 36.62499999999999289, 2.000000000000000000 ) ) ;
#12 = ORIENTED_EDGE ( 'NONE', *, *, #175, .F. ) ;
#13 = EDGE_CURVE ( 'NONE', #202, #192, #198, .T. ) ;
#14 =( LENGTH_UNIT ( ) NAMED_UNIT ( * ) SI_UNIT ( .MILLI., .METRE. ) );
#15 = DIRECTION ( 'NONE',  ( 0.000000000000000000, 1.000000000000000000, 0.000000000000000000 ) ) ;
#16 = VERTEX_POINT ( 'NONE', #301 ) ;
#17 = EDGE_CURVE ( 'NONE', #192, #25, #44, .T. ) ;
#18 = CIRCLE ( 'NONE', #172, 1.475000000000004086 ) ;
#19 = VERTEX_POINT ( 'NONE', #174 ) ;
#20 = CARTESIAN_POINT ( 'NONE',  ( 5.000000000000003553, 38.62499999999999289, 2.000000000000000000 ) ) ;
#21 = DIRECTION ( 'NONE',  ( 1.000000000000000000, -1.156482317317871478E-16, 0.000000000000000000 ) ) ;
#22 = ORIENTED_EDGE ( 'NONE', *, *, #130, .T. ) ;
#23 = CIRCLE ( 'NONE', #187, 1.475000000000004086 ) ;
#24 = ADVANCED_FACE ( 'NONE', ( #279, #227 ), #77, .F. ) ;
#25 = VERTEX_POINT ( 'NONE', #20 ) ;
#26 = ORIENTED_EDGE ( 'NONE', *, *, #229, .F. ) ;
#27 = EDGE_CURVE ( 'NONE', #1, #178, #18, .T. ) ;
#28 = FILL_AREA_STYLE_COLOUR ( '', #110 ) ;
#29 = AXIS2_PLACEMENT_3D ( 'NONE', #82, #180, #286 ) ;
#30 = AXIS2_PLACEMENT_3D ( 'NONE', #68, #136, #168 ) ;
#31 = CARTESIAN_POINT ( 'NONE',  ( -4.999999999999995559, 46.50000000000001421, 0.000000000000000000 ) ) ;
#32 = LINE ( 'NONE', #34, #60 ) ;
#33 = LINE ( 'NONE', #156, #212 ) ;
#34 = CARTESIAN_POINT ( 'NONE',  ( 5.000000000000004441, 46.50000000000001421, 2.000000000000000000 ) ) ;
#35 = FACE_OUTER_BOUND ( 'NONE', #291, .T. ) ;
#36 = EDGE_LOOP ( 'NONE', ( #97, #98, #12, #324 ) ) ;
#37 = CARTESIAN_POINT ( 'NONE',  ( 5.000000000000004441, 36.62499999999999289, 0.000000000000000000 ) ) ;
#38 = ORIENTED_EDGE ( 'NONE', *, *, #130, .F. ) ;
#39 = MECHANICAL_DESIGN_GEOMETRIC_PRESENTATION_REPRESENTATION (  '', ( #193 ), #100 ) ;
#40 = EDGE_LOOP ( 'NONE', ( #26, #307 ) ) ;
#41 =( NAMED_UNIT ( * ) PLANE_ANGLE_UNIT ( ) SI_UNIT ( $, .RADIAN. ) );
#42 = ORIENTED_EDGE ( 'NONE', *, *, #80, .T. ) ;
#43 = DIRECTION ( 'NONE',  ( 0.000000000000000000, 1.000000000000000000, 0.000000000000000000 ) ) ;
#44 = LINE ( 'NONE', #147, #49 ) ;
#45 = DIRECTION ( 'NONE',  ( 0.000000000000000000, 0.000000000000000000, -1.000000000000000000 ) ) ;
#46 = CARTESIAN_POINT ( 'NONE',  ( -4.999999999999995559, 46.50000000000001421, 2.000000000000000000 ) ) ;
#47 = PRODUCT_RELATED_PRODUCT_CATEGORY ( 'part', '', ( #254 ) ) ;
#48 = EDGE_LOOP ( 'NONE', ( #173, #223, #270, #317 ) ) ;
#49 = VECTOR ( 'NONE', #21, 1000.000000000000000 ) ;
#50 = DIRECTION ( 'NONE',  ( 0.000000000000000000, 0.000000000000000000, 1.000000000000000000 ) ) ;
#51 = VECTOR ( 'NONE', #113, 1000.000000000000000 ) ;
#52 = ORIENTED_EDGE ( 'NONE', *, *, #306, .T. ) ;
#53 = ADVANCED_FACE ( 'NONE', ( #157 ), #283, .F. ) ;
#54 = CARTESIAN_POINT ( 'NONE',  ( 5.000000000000004441, 36.62499999999999289, 0.000000000000000000 ) ) ;
#55 = DIRECTION ( 'NONE',  ( -1.000000000000000000, 0.000000000000000000, -0.000000000000000000 ) ) ;
#56 = VECTOR ( 'NONE', #318, 1000.000000000000000 ) ;
#57 = DIRECTION ( 'NONE',  ( -1.000000000000000000, 1.239088197126290817E-16, 0.000000000000000000 ) ) ;
#58 = CARTESIAN_POINT ( 'NONE',  ( 0.000000000000000000, 41.49999999999999289, 0.000000000000000000 ) ) ;
#59 = LINE ( 'NONE', #3, #181 ) ;
#60 = VECTOR ( 'NONE', #101, 1000.000000000000000 ) ;
#61 = AXIS2_PLACEMENT_3D ( 'NONE', #10, #316, #269 ) ;
#62 = LINE ( 'NONE', #66, #56 ) ;
#63 = ORIENTED_EDGE ( 'NONE', *, *, #169, .F. ) ;
#64 = PRODUCT_DEFINITION ( 'UNKNOWN', '', #151, #78 ) ;
#65 = CARTESIAN_POINT ( 'NONE',  ( 0.000000000000000000, 40.02499999999999147, 11.50000000000000000 ) ) ;
#66 = CARTESIAN_POINT ( 'NONE',  ( 5.000000000000003553, 38.62500000000000711, 11.50000000000000000 ) ) ;
#67 = EDGE_LOOP ( 'NONE', ( #319, #282, #42, #274 ) ) ;
#68 = CARTESIAN_POINT ( 'NONE',  ( 0.000000000000000000, 41.49999999999999289, 2.000000000000000000 ) ) ;
#69 = DIRECTION ( 'NONE',  ( 1.000000000000000000, 0.000000000000000000, 0.000000000000000000 ) ) ;
#70 = EDGE_LOOP ( 'NONE', ( #299, #72, #326, #143, #197, #90 ) ) ;
#71 = ADVANCED_FACE ( 'NONE', ( #185 ), #284, .F. ) ;
#72 = ORIENTED_EDGE ( 'NONE', *, *, #245, .F. ) ;
#73 = CARTESIAN_POINT ( 'NONE',  ( 0.000000000000000000, 11.50000000000000000, 0.000000000000000000 ) ) ;
#74 = EDGE_CURVE ( 'NONE', #137, #127, #133, .T. ) ;
#75 = ORIENTED_EDGE ( 'NONE', *, *, #94, .F. ) ;
#76 = DIRECTION ( 'NONE',  ( 0.000000000000000000, -1.000000000000000000, 0.000000000000000000 ) ) ;
#77 = PLANE ( 'NONE',  #160 ) ;
#78 = PRODUCT_DEFINITION_CONTEXT ( 'detailed design', #196, 'design' ) ;
#79 = ORIENTED_EDGE ( 'NONE', *, *, #80, .F. ) ;
#80 = EDGE_CURVE ( 'NONE', #117, #178, #59, .T. ) ;
#81 = LINE ( 'NONE', #206, #88 ) ;
#82 = CARTESIAN_POINT ( 'NONE',  ( -4.999999999999995559, 36.62499999999999289, 0.000000000000000000 ) ) ;
#83 = DIRECTION ( 'NONE',  ( 0.000000000000000000, -1.000000000000000000, -0.000000000000000000 ) ) ;
#84 = CARTESIAN_POINT ( 'NONE',  ( -4.999999999999995559, 46.50000000000001421, 2.000000000000000000 ) ) ;
#85 = FACE_OUTER_BOUND ( 'NONE', #48, .T. ) ;
#86 =( LENGTH_UNIT ( ) NAMED_UNIT ( * ) SI_UNIT ( .MILLI., .METRE. ) );
#87 = ORIENTED_EDGE ( 'NONE', *, *, #146, .F. ) ;
#88 = VECTOR ( 'NONE', #248, 1000.000000000000000 ) ;
#89 = CARTESIAN_POINT ( 'NONE',  ( 5.000000000000004441, 46.50000000000001421, 2.000000000000000000 ) ) ;
#90 = ORIENTED_EDGE ( 'NONE', *, *, #235, .T. ) ;
#91 = FACE_OUTER_BOUND ( 'NONE', #201, .T. ) ;
#92 = CARTESIAN_POINT ( 'NONE',  ( 0.000000000000000000, 0.000000000000000000, 0.000000000000000000 ) ) ;
#93 = CARTESIAN_POINT ( 'NONE',  ( -4.999999999999995559, 36.62499999999999289, 0.000000000000000000 ) ) ;
#94 = EDGE_CURVE ( 'NONE', #25, #304, #32, .T. ) ;
#95 = DIRECTION ( 'NONE',  ( 1.000000000000000000, -1.156482317317871478E-16, 0.000000000000000000 ) ) ;
#96 = ORIENTED_EDGE ( 'NONE', *, *, #74, .T. ) ;
#97 = ORIENTED_EDGE ( 'NONE', *, *, #311, .T. ) ;
#98 = ORIENTED_EDGE ( 'NONE', *, *, #126, .F. ) ;
#99 = EDGE_LOOP ( 'NONE', ( #303, #96, #52, #247 ) ) ;
#100 =( GEOMETRIC_REPRESENTATION_CONTEXT ( 3 ) GLOBAL_UNCERTAINTY_ASSIGNED_CONTEXT ( ( #242 ) ) GLOBAL_UNIT_ASSIGNED_CONTEXT ( ( #86, #41, #161 ) ) REPRESENTATION_CONTEXT ( 'NONE', 'WORKASPACE' ) );
#101 = DIRECTION ( 'NONE',  ( 0.000000000000000000, -1.000000000000000000, 0.000000000000000000 ) ) ;
#102 = LINE ( 'NONE', #232, #256 ) ;
#103 = CARTESIAN_POINT ( 'NONE',  ( 0.000000000000000000, 41.49999999999999289, 0.000000000000000000 ) ) ;
#104 = ADVANCED_FACE ( 'NONE', ( #85 ), #257, .F. ) ;
#105 = DIRECTION ( 'NONE',  ( 1.156482317317871478E-16, 1.000000000000000000, -7.304098846218136639E-16 ) ) ;
#106 = AXIS2_PLACEMENT_3D ( 'NONE', #310, #105, #7 ) ;
#107 = CARTESIAN_POINT ( 'NONE',  ( -4.999999999999995559, 46.50000000000001421, 0.000000000000000000 ) ) ;
#108 = DIRECTION ( 'NONE',  ( 0.000000000000000000, -1.000000000000000000, 0.000000000000000000 ) ) ;
#109 = CARTESIAN_POINT ( 'NONE',  ( -4.999999999999995559, 38.62499999999999289, 2.000000000000000000 ) ) ;
#110 = COLOUR_RGB ( '',0.7921568627450980005, 0.8196078431372548767, 0.9333333333333333481 ) ;
#111 = VECTOR ( 'NONE', #76, 1000.000000000000000 ) ;
#112 = LINE ( 'NONE', #213, #111 ) ;
#113 = DIRECTION ( 'NONE',  ( 1.239088197126290570E-16, 1.000000000000000000, 0.000000000000000000 ) ) ;
#114 = ORIENTED_EDGE ( 'NONE', *, *, #245, .T. ) ;
#115 = ADVANCED_FACE ( 'NONE', ( #132 ), #179, .F. ) ;
#116 = LINE ( 'NONE', #322, #51 ) ;
#117 = VERTEX_POINT ( 'NONE', #209 ) ;
#118 = CARTESIAN_POINT ( 'NONE',  ( 0.000000000000000000, 11.50000000000000000, 11.50000000000000000 ) ) ;
#119 = VECTOR ( 'NONE', #207, 1000.000000000000000 ) ;
#120 = VECTOR ( 'NONE', #69, 1000.000000000000000 ) ;
#121 = ORIENTED_EDGE ( 'NONE', *, *, #140, .T. ) ;
#122 = ORIENTED_EDGE ( 'NONE', *, *, #153, .F. ) ;
#123 = ORIENTED_EDGE ( 'NONE', *, *, #311, .F. ) ;
#124 = ORIENTED_EDGE ( 'NONE', *, *, #200, .T. ) ;
#125 = ORIENTED_EDGE ( 'NONE', *, *, #140, .F. ) ;
#126 = EDGE_CURVE ( 'NONE', #154, #202, #33, .T. ) ;
#127 = VERTEX_POINT ( 'NONE', #313 ) ;
#128 = LINE ( 'NONE', #84, #281 ) ;
#129 = DIRECTION ( 'NONE',  ( 0.000000000000000000, 1.000000000000000000, 0.000000000000000000 ) ) ;
#130 = EDGE_CURVE ( 'NONE', #192, #262, #203, .T. ) ;
#131 = PRODUCT_DEFINITION_SHAPE ( 'NONE', 'NONE',  #64 ) ;
#132 = FACE_OUTER_BOUND ( 'NONE', #149, .T. ) ;
#133 = LINE ( 'NONE', #107, #119 ) ;
#134 = EDGE_CURVE ( 'NONE', #294, #304, #230, .T. ) ;
#135 = CARTESIAN_POINT ( 'NONE',  ( -5.000000000000004441, -23.49999999999999645, 2.000000000000000000 ) ) ;
#136 = DIRECTION ( 'NONE',  ( -0.000000000000000000, -0.000000000000000000, 1.000000000000000000 ) ) ;
#137 = VERTEX_POINT ( 'NONE', #31 ) ;
#138 = DIRECTION ( 'NONE',  ( 1.000000000000000000, -1.239088197126290817E-16, 0.000000000000000000 ) ) ;
#139 = PLANE ( 'NONE',  #177 ) ;
#140 = EDGE_CURVE ( 'NONE', #117, #280, #145, .T. ) ;
#141 = DIRECTION ( 'NONE',  ( 0.000000000000000000, 0.000000000000000000, 1.000000000000000000 ) ) ;
#142 = DIRECTION ( 'NONE',  ( 0.000000000000000000, 0.000000000000000000, -1.000000000000000000 ) ) ;
#143 = ORIENTED_EDGE ( 'NONE', *, *, #134, .F. ) ;
#144 = SHAPE_DEFINITION_REPRESENTATION ( #131, #302 ) ;
#145 = CIRCLE ( 'NONE', #150, 1.475000000000004086 ) ;
#146 = EDGE_CURVE ( 'NONE', #137, #16, #128, .T. ) ;
#147 = CARTESIAN_POINT ( 'NONE',  ( -5.000000000000007105, 38.62499999999999289, 2.000000000000000000 ) ) ;
#148 = DIRECTION ( 'NONE',  ( 0.000000000000000000, 0.000000000000000000, 1.000000000000000000 ) ) ;
#149 = EDGE_LOOP ( 'NONE', ( #114, #199, #38, #244 ) ) ;
#150 = AXIS2_PLACEMENT_3D ( 'NONE', #103, #155, #184 ) ;
#151 = PRODUCT_DEFINITION_FORMATION_WITH_SPECIFIED_SOURCE ( 'ANY', '', #254, .NOT_KNOWN. ) ;
#152 = ORIENTED_EDGE ( 'NONE', *, *, #189, .F. ) ;
#153 = EDGE_CURVE ( 'NONE', #154, #137, #102, .T. ) ;
#154 = VERTEX_POINT ( 'NONE', #183 ) ;
#155 = DIRECTION ( 'NONE',  ( 0.000000000000000000, 0.000000000000000000, -1.000000000000000000 ) ) ;
#156 = CARTESIAN_POINT ( 'NONE',  ( -4.999999999999995559, 36.62499999999999289, 0.000000000000000000 ) ) ;
#157 = FACE_OUTER_BOUND ( 'NONE', #36, .T. ) ;
#158 = FILL_AREA_STYLE ('',( #28 ) ) ;
#159 = MANIFOLD_SOLID_BREP ( 'Body-Move/Copy1', #219 ) ;
#160 = AXIS2_PLACEMENT_3D ( 'NONE', #73, #148, #176 ) ;
#161 =( NAMED_UNIT ( * ) SI_UNIT ( $, .STERADIAN. ) SOLID_ANGLE_UNIT ( ) );
#162 = CARTESIAN_POINT ( 'NONE',  ( -4.999999999999995559, 36.62499999999999289, 2.000000000000000000 ) ) ;
#163 = EDGE_LOOP ( 'NONE', ( #152, #228, #218, #253 ) ) ;
#164 = DIRECTION ( 'NONE',  ( -0.000000000000000000, -0.000000000000000000, 1.000000000000000000 ) ) ;
#165 =( NAMED_UNIT ( * ) SI_UNIT ( $, .STERADIAN. ) SOLID_ANGLE_UNIT ( ) );
#166 = CYLINDRICAL_SURFACE ( 'NONE', #61, 1.475000000000004086 ) ;
#167 = PRODUCT_CONTEXT ( 'NONE', #305, 'mechanical' ) ;
#168 = DIRECTION ( 'NONE',  ( 0.000000000000000000, -1.000000000000000000, 0.000000000000000000 ) ) ;
#169 = EDGE_CURVE ( 'NONE', #280, #117, #23, .T. ) ;
#170 = DIRECTION ( 'NONE',  ( 0.000000000000000000, 1.000000000000000000, 0.000000000000000000 ) ) ;
#171 = FACE_OUTER_BOUND ( 'NONE', #163, .T. ) ;
#172 = AXIS2_PLACEMENT_3D ( 'NONE', #249, #50, #309 ) ;
#173 = ORIENTED_EDGE ( 'NONE', *, *, #225, .T. ) ;
#174 = CARTESIAN_POINT ( 'NONE',  ( 5.000000000000004441, 46.50000000000001421, 11.50000000000000000 ) ) ;
#175 = EDGE_CURVE ( 'NONE', #294, #154, #292, .T. ) ;
#176 = DIRECTION ( 'NONE',  ( 0.000000000000000000, -1.000000000000000000, 0.000000000000000000 ) ) ;
#177 = AXIS2_PLACEMENT_3D ( 'NONE', #263, #290, #190 ) ;
#178 = VERTEX_POINT ( 'NONE', #65 ) ;
#179 = PLANE ( 'NONE',  #106 ) ;
#180 = DIRECTION ( 'NONE',  ( -0.000000000000000000, 1.000000000000000000, 0.000000000000000000 ) ) ;
#181 = VECTOR ( 'NONE', #205, 1000.000000000000000 ) ;
#182 = VECTOR ( 'NONE', #321, 1000.000000000000000 ) ;
#183 = CARTESIAN_POINT ( 'NONE',  ( -4.999999999999995559, 36.62499999999999289, 0.000000000000000000 ) ) ;
#184 = DIRECTION ( 'NONE',  ( 0.000000000000000000, 1.000000000000000000, 0.000000000000000000 ) ) ;
#185 = FACE_OUTER_BOUND ( 'NONE', #70, .T. ) ;
#186 = CYLINDRICAL_SURFACE ( 'NONE', #30, 1.475000000000004086 ) ;
#187 = AXIS2_PLACEMENT_3D ( 'NONE', #58, #142, #15 ) ;
#188 = CARTESIAN_POINT ( 'NONE',  ( 1.806354028742342844E-16, 42.97500000000000142, 0.000000000000000000 ) ) ;
#189 = EDGE_CURVE ( 'NONE', #262, #16, #116, .T. ) ;
#190 = DIRECTION ( 'NONE',  ( 0.000000000000000000, -1.000000000000000000, 0.000000000000000000 ) ) ;
#191 = CARTESIAN_POINT ( 'NONE',  ( 5.000000000000003553, 38.62500000000000711, 11.50000000000000000 ) ) ;
#192 = VERTEX_POINT ( 'NONE', #109 ) ;
#193 = STYLED_ITEM ( 'NONE', ( #8 ), #159 ) ;
#194 = DIRECTION ( 'NONE',  ( 1.000000000000000000, 0.000000000000000000, 0.000000000000000000 ) ) ;
#195 = CARTESIAN_POINT ( 'NONE',  ( 4.999999999999995559, -23.49999999999999645, 11.50000000000000000 ) ) ;
#196 = APPLICATION_CONTEXT ( 'automotive_design' ) ;
#197 = ORIENTED_EDGE ( 'NONE', *, *, #306, .F. ) ;
#198 = LINE ( 'NONE', #46, #267 ) ;
#199 = ORIENTED_EDGE ( 'NONE', *, *, #9, .F. ) ;
#200 = EDGE_CURVE ( 'NONE', #280, #1, #239, .T. ) ;
#201 = EDGE_LOOP ( 'NONE', ( #87, #122, #2, #240, #22, #224 ) ) ;
#202 = VERTEX_POINT ( 'NONE', #162 ) ;
#203 = LINE ( 'NONE', #5, #296 ) ;
#204 = ADVANCED_FACE ( 'NONE', ( #35 ), #139, .T. ) ;
#205 = DIRECTION ( 'NONE',  ( -0.000000000000000000, -0.000000000000000000, 1.000000000000000000 ) ) ;
#206 = CARTESIAN_POINT ( 'NONE',  ( -4.999999999999995559, 36.62499999999999289, 2.000000000000000000 ) ) ;
#207 = DIRECTION ( 'NONE',  ( 1.000000000000000000, 0.000000000000000000, 0.000000000000000000 ) ) ;
#208 = AXIS2_PLACEMENT_3D ( 'NONE', #92, #141, #194 ) ;
#209 = CARTESIAN_POINT ( 'NONE',  ( 0.000000000000000000, 40.02499999999999147, 0.000000000000000000 ) ) ;
#210 = FACE_OUTER_BOUND ( 'NONE', #216, .T. ) ;
#211 = CARTESIAN_POINT ( 'NONE',  ( 1.806354028742346788E-16, 42.97500000000000142, 2.000000000000000000 ) ) ;
#212 = VECTOR ( 'NONE', #312, 1000.000000000000000 ) ;
#213 = CARTESIAN_POINT ( 'NONE',  ( 5.000000000000004441, 46.50000000000001421, 0.000000000000000000 ) ) ;
#214 = ORIENTED_EDGE ( 'NONE', *, *, #13, .F. ) ;
#215 = LINE ( 'NONE', #89, #327 ) ;
#216 = EDGE_LOOP ( 'NONE', ( #121, #124, #297, #79 ) ) ;
#217 = DIRECTION ( 'NONE',  ( -0.000000000000000000, -0.000000000000000000, 1.000000000000000000 ) ) ;
#218 = ORIENTED_EDGE ( 'NONE', *, *, #260, .F. ) ;
#219 = CLOSED_SHELL ( 'NONE', ( #271, #104, #320, #300, #71, #115, #276, #204, #24, #53 ) ) ;
#220 = VECTOR ( 'NONE', #243, 1000.000000000000000 ) ;
#221 =( NAMED_UNIT ( * ) PLANE_ANGLE_UNIT ( ) SI_UNIT ( $, .RADIAN. ) );
#222 = FACE_BOUND ( 'NONE', #40, .T. ) ;
#223 = ORIENTED_EDGE ( 'NONE', *, *, #235, .F. ) ;
#224 = ORIENTED_EDGE ( 'NONE', *, *, #189, .T. ) ;
#225 = EDGE_CURVE ( 'NONE', #16, #19, #293, .T. ) ;
#226 = VECTOR ( 'NONE', #217, 1000.000000000000000 ) ;
#227 = FACE_BOUND ( 'NONE', #252, .T. ) ;
#228 = ORIENTED_EDGE ( 'NONE', *, *, #9, .T. ) ;
#229 = EDGE_CURVE ( 'NONE', #178, #1, #315, .T. ) ;
#230 = LINE ( 'NONE', #54, #236 ) ;
#231 = AXIS2_PLACEMENT_3D ( 'NONE', #135, #138, #241 ) ;
#232 = CARTESIAN_POINT ( 'NONE',  ( -4.999999999999995559, 46.50000000000001421, 0.000000000000000000 ) ) ;
#233 = CARTESIAN_POINT ( 'NONE',  ( 4.999999999999995559, -23.49999999999999645, 2.000000000000000000 ) ) ;
#234 = CARTESIAN_POINT ( 'NONE',  ( -4.999999999999995559, 46.50000000000001421, 2.000000000000000000 ) ) ;
#235 = EDGE_CURVE ( 'NONE', #127, #19, #215, .T. ) ;
#236 = VECTOR ( 'NONE', #6, 1000.000000000000000 ) ;
#237 = SURFACE_STYLE_USAGE ( .BOTH. , #259 ) ;
#238 = FACE_OUTER_BOUND ( 'NONE', #67, .T. ) ;
#239 = LINE ( 'NONE', #211, #226 ) ;
#240 = ORIENTED_EDGE ( 'NONE', *, *, #13, .T. ) ;
#241 = DIRECTION ( 'NONE',  ( -1.239088197126290817E-16, -1.000000000000000000, -0.000000000000000000 ) ) ;
#242 = UNCERTAINTY_MEASURE_WITH_UNIT (LENGTH_MEASURE( 1.000000000000000082E-05 ), #86, 'distance_accuracy_value', 'NONE');
#243 = DIRECTION ( 'NONE',  ( -1.000000000000000000, -0.000000000000000000, 0.000000000000000000 ) ) ;
#244 = ORIENTED_EDGE ( 'NONE', *, *, #17, .T. ) ;
#245 = EDGE_CURVE ( 'NONE', #25, #250, #62, .T. ) ;
#246 = AXIS2_PLACEMENT_3D ( 'NONE', #314, #295, #108 ) ;
#247 = ORIENTED_EDGE ( 'NONE', *, *, #175, .T. ) ;
#248 = DIRECTION ( 'NONE',  ( -1.000000000000000000, -0.000000000000000000, 0.000000000000000000 ) ) ;
#249 = CARTESIAN_POINT ( 'NONE',  ( 0.000000000000000000, 41.49999999999999289, 11.50000000000000000 ) ) ;
#250 = VERTEX_POINT ( 'NONE', #191 ) ;
#251 = AXIS2_PLACEMENT_3D ( 'NONE', #233, #57, #258 ) ;
#252 = EDGE_LOOP ( 'NONE', ( #125, #63 ) ) ;
#253 = ORIENTED_EDGE ( 'NONE', *, *, #225, .F. ) ;
#254 = PRODUCT ( 'BreadboardHolder_Clamp', 'BreadboardHolder_Clamp', '', ( #167 ) ) ;
#255 = DIRECTION ( 'NONE',  ( 0.000000000000000000, 7.304098846218135653E-16, 1.000000000000000000 ) ) ;
#256 = VECTOR ( 'NONE', #129, 1000.000000000000000 ) ;
#257 = PLANE ( 'NONE',  #289 ) ;
#258 = DIRECTION ( 'NONE',  ( 1.239088197126290817E-16, 1.000000000000000000, 0.000000000000000000 ) ) ;
#259 = SURFACE_SIDE_STYLE ('',( #288 ) ) ;
#260 = EDGE_CURVE ( 'NONE', #19, #250, #266, .T. ) ;
#261 = CARTESIAN_POINT ( 'NONE',  ( -4.999999999999995559, 46.50000000000001421, 11.50000000000000000 ) ) ;
#262 = VERTEX_POINT ( 'NONE', #298 ) ;
#263 = CARTESIAN_POINT ( 'NONE',  ( 0.000000000000000000, 11.50000000000000000, 2.000000000000000000 ) ) ;
#264 = ORIENTED_EDGE ( 'NONE', *, *, #17, .F. ) ;
#265 = APPLICATION_PROTOCOL_DEFINITION ( 'draft international standard', 'automotive_design', 1998, #305 ) ;
#266 = LINE ( 'NONE', #195, #182 ) ;
#267 = VECTOR ( 'NONE', #170, 1000.000000000000000 ) ;
#268 =( GEOMETRIC_REPRESENTATION_CONTEXT ( 3 ) GLOBAL_UNCERTAINTY_ASSIGNED_CONTEXT ( ( #278 ) ) GLOBAL_UNIT_ASSIGNED_CONTEXT ( ( #14, #221, #165 ) ) REPRESENTATION_CONTEXT ( 'NONE', 'WORKASPACE' ) );
#269 = DIRECTION ( 'NONE',  ( 0.000000000000000000, -1.000000000000000000, 0.000000000000000000 ) ) ;
#270 = ORIENTED_EDGE ( 'NONE', *, *, #74, .F. ) ;
#271 = ADVANCED_FACE ( 'NONE', ( #210 ), #186, .F. ) ;
#272 = APPLICATION_PROTOCOL_DEFINITION ( 'draft international standard', 'automotive_design', 1998, #196 ) ;
#273 = PLANE ( 'NONE',  #231 ) ;
#274 = ORIENTED_EDGE ( 'NONE', *, *, #229, .T. ) ;
#275 = CARTESIAN_POINT ( 'NONE',  ( -5.000000000000007105, 38.62500000000000711, 11.50000000000000000 ) ) ;
#276 = ADVANCED_FACE ( 'NONE', ( #238 ), #166, .F. ) ;
#277 = CARTESIAN_POINT ( 'NONE',  ( 1.806354028742342844E-16, 42.97500000000000142, 11.50000000000000000 ) ) ;
#278 = UNCERTAINTY_MEASURE_WITH_UNIT (LENGTH_MEASURE( 1.000000000000000082E-05 ), #14, 'distance_accuracy_value', 'NONE');
#279 = FACE_OUTER_BOUND ( 'NONE', #99, .T. ) ;
#280 = VERTEX_POINT ( 'NONE', #188 ) ;
#281 = VECTOR ( 'NONE', #287, 1000.000000000000000 ) ;
#282 = ORIENTED_EDGE ( 'NONE', *, *, #169, .T. ) ;
#283 = PLANE ( 'NONE',  #29 ) ;
#284 = PLANE ( 'NONE',  #251 ) ;
#285 = AXIS2_PLACEMENT_3D ( 'NONE', #118, #45, #43 ) ;
#286 = DIRECTION ( 'NONE',  ( 1.000000000000000000, 0.000000000000000000, 0.000000000000000000 ) ) ;
#287 = DIRECTION ( 'NONE',  ( -0.000000000000000000, -0.000000000000000000, 1.000000000000000000 ) ) ;
#288 = SURFACE_STYLE_FILL_AREA ( #158 ) ;
#289 = AXIS2_PLACEMENT_3D ( 'NONE', #234, #83, #55 ) ;
#290 = DIRECTION ( 'NONE',  ( 0.000000000000000000, 0.000000000000000000, 1.000000000000000000 ) ) ;
#291 = EDGE_LOOP ( 'NONE', ( #264, #214, #123, #75 ) ) ;
#292 = LINE ( 'NONE', #93, #220 ) ;
#293 = LINE ( 'NONE', #261, #120 ) ;
#294 = VERTEX_POINT ( 'NONE', #37 ) ;
#295 = DIRECTION ( 'NONE',  ( 0.000000000000000000, 0.000000000000000000, 1.000000000000000000 ) ) ;
#296 = VECTOR ( 'NONE', #255, 1000.000000000000000 ) ;
#297 = ORIENTED_EDGE ( 'NONE', *, *, #27, .T. ) ;
#298 = CARTESIAN_POINT ( 'NONE',  ( -5.000000000000007105, 38.62500000000000711, 11.50000000000000000 ) ) ;
#299 = ORIENTED_EDGE ( 'NONE', *, *, #260, .T. ) ;
#300 = ADVANCED_FACE ( 'NONE', ( #91 ), #273, .F. ) ;
#301 = CARTESIAN_POINT ( 'NONE',  ( -4.999999999999995559, 46.50000000000001421, 11.50000000000000000 ) ) ;
#302 = ADVANCED_BREP_SHAPE_REPRESENTATION ( 'BreadboardHolder_Clamp', ( #159, #208 ), #268 ) ;
#303 = ORIENTED_EDGE ( 'NONE', *, *, #153, .T. ) ;
#304 = VERTEX_POINT ( 'NONE', #11 ) ;
#305 = APPLICATION_CONTEXT ( 'automotive_design' ) ;
#306 = EDGE_CURVE ( 'NONE', #127, #294, #112, .T. ) ;
#307 = ORIENTED_EDGE ( 'NONE', *, *, #27, .F. ) ;
#308 = VECTOR ( 'NONE', #95, 1000.000000000000000 ) ;
#309 = DIRECTION ( 'NONE',  ( 0.000000000000000000, -1.000000000000000000, 0.000000000000000000 ) ) ;
#310 = CARTESIAN_POINT ( 'NONE',  ( -5.000000000000007105, 38.62500000000000711, 11.50000000000000000 ) ) ;
#311 = EDGE_CURVE ( 'NONE', #304, #202, #81, .T. ) ;
#312 = DIRECTION ( 'NONE',  ( -0.000000000000000000, -0.000000000000000000, 1.000000000000000000 ) ) ;
#313 = CARTESIAN_POINT ( 'NONE',  ( 5.000000000000004441, 46.50000000000001421, 0.000000000000000000 ) ) ;
#314 = CARTESIAN_POINT ( 'NONE',  ( 0.000000000000000000, 41.49999999999999289, 11.50000000000000000 ) ) ;
#315 = CIRCLE ( 'NONE', #246, 1.475000000000004086 ) ;
#316 = DIRECTION ( 'NONE',  ( -0.000000000000000000, -0.000000000000000000, 1.000000000000000000 ) ) ;
#317 = ORIENTED_EDGE ( 'NONE', *, *, #146, .T. ) ;
#318 = DIRECTION ( 'NONE',  ( 0.000000000000000000, 7.304098846218135653E-16, 1.000000000000000000 ) ) ;
#319 = ORIENTED_EDGE ( 'NONE', *, *, #200, .F. ) ;
#320 = ADVANCED_FACE ( 'NONE', ( #222, #171 ), #325, .F. ) ;
#321 = DIRECTION ( 'NONE',  ( -1.239088197126290570E-16, -1.000000000000000000, 0.000000000000000000 ) ) ;
#322 = CARTESIAN_POINT ( 'NONE',  ( -5.000000000000004441, -23.49999999999999645, 11.50000000000000000 ) ) ;
#323 = LINE ( 'NONE', #275, #308 ) ;
#324 = ORIENTED_EDGE ( 'NONE', *, *, #134, .T. ) ;
#325 = PLANE ( 'NONE',  #285 ) ;
#326 = ORIENTED_EDGE ( 'NONE', *, *, #94, .T. ) ;
#327 = VECTOR ( 'NONE', #164, 1000.000000000000000 ) ;
ENDSEC;
END-ISO-10303-21;
