ISO-10303-21;
HEADER;
FILE_DESCRIPTION (( 'STEP AP214' ),
    '1' );
FILE_NAME ('NoodsHolder.STEP',
    '2026-09-12T22:29:32',
    ( '' ),
    ( '' ),
    'SwSTEP 2.0',
    'SolidWorks 2026',
    '' );
FILE_SCHEMA (( 'AUTOMOTIVE_DESIGN' ));
ENDSEC;

DATA;
#1 = DIRECTION ( 'NONE',  ( -0.000000000000000000, -0.000000000000000000, 1.000000000000000000 ) ) ;
#2 = ADVANCED_FACE ( 'NONE', ( #137 ), #495, .F. ) ;
#3 = CARTESIAN_POINT ( 'NONE',  ( 5.250000000000000888, -5.000000000000002665, 2.000000000000000000 ) ) ;
#4 = EDGE_CURVE ( 'NONE', #130, #229, #97, .T. ) ;
#5 = DIRECTION ( 'NONE',  ( -0.000000000000000000, 1.000000000000000000, 0.000000000000000000 ) ) ;
#6 = ORIENTED_EDGE ( 'NONE', *, *, #72, .F. ) ;
#7 = EDGE_CURVE ( 'NONE', #229, #248, #483, .T. ) ;
#8 = DIRECTION ( 'NONE',  ( -0.000000000000000000, -1.000000000000000000, -0.000000000000000000 ) ) ;
#9 = VERTEX_POINT ( 'NONE', #455 ) ;
#10 = DIRECTION ( 'NONE',  ( -0.7071067811865435759, -0.7071067811865513475, 0.000000000000000000 ) ) ;
#11 = ORIENTED_EDGE ( 'NONE', *, *, #344, .T. ) ;
#12 = VECTOR ( 'NONE', #350, 999.9999999999998863 ) ;
#13 = CARTESIAN_POINT ( 'NONE',  ( 7.250000000000000888, -5.000000000000002665, 0.000000000000000000 ) ) ;
#14 = VERTEX_POINT ( 'NONE', #215 ) ;
#15 = PRODUCT_DEFINITION ( 'UNKNOWN', '', #354, #115 ) ;
#16 =( LENGTH_UNIT ( ) NAMED_UNIT ( * ) SI_UNIT ( .MILLI., .METRE. ) );
#17 = ORIENTED_EDGE ( 'NONE', *, *, #395, .T. ) ;
#18 = DIRECTION ( 'NONE',  ( -0.000000000000000000, -0.000000000000000000, 1.000000000000000000 ) ) ;
#19 = CARTESIAN_POINT ( 'NONE',  ( 8.673617379884035472E-16, 1.499999999999999112, 0.000000000000000000 ) ) ;
#20 = VECTOR ( 'NONE', #390, 1000.000000000000000 ) ;
#21 = ORIENTED_EDGE ( 'NONE', *, *, #440, .T. ) ;
#22 = AXIS2_PLACEMENT_3D ( 'NONE', #324, #83, #399 ) ;
#23 = EDGE_CURVE ( 'NONE', #318, #451, #329, .T. ) ;
#24 = DIRECTION ( 'NONE',  ( 0.000000000000000000, 0.000000000000000000, -1.000000000000000000 ) ) ;
#25 = DIRECTION ( 'NONE',  ( 1.000000000000000000, 8.673617379884035472E-17, 0.000000000000000000 ) ) ;
#26 = APPLICATION_CONTEXT ( 'automotive_design' ) ;
#27 = EDGE_LOOP ( 'NONE', ( #409, #426, #492, #476, #289, #349, #29, #178 ) ) ;
#28 = SURFACE_STYLE_FILL_AREA ( #410 ) ;
#29 = ORIENTED_EDGE ( 'NONE', *, *, #23, .F. ) ;
#30 = EDGE_CURVE ( 'NONE', #14, #281, #407, .T. ) ;
#31 = ORIENTED_EDGE ( 'NONE', *, *, #135, .F. ) ;
#32 = CIRCLE ( 'NONE', #212, 1.250000000000000222 ) ;
#33 = VECTOR ( 'NONE', #265, 1000.000000000000000 ) ;
#34 = PLANE ( 'NONE',  #235 ) ;
#35 = DIRECTION ( 'NONE',  ( 1.000000000000000000, 0.000000000000000000, 0.000000000000000000 ) ) ;
#36 = DIRECTION ( 'NONE',  ( 0.000000000000000000, 0.000000000000000000, 1.000000000000000000 ) ) ;
#37 = ORIENTED_EDGE ( 'NONE', *, *, #4, .F. ) ;
#38 = DIRECTION ( 'NONE',  ( -0.000000000000000000, 1.000000000000000000, -0.000000000000000000 ) ) ;
#39 = EDGE_CURVE ( 'NONE', #170, #84, #223, .T. ) ;
#40 = ORIENTED_EDGE ( 'NONE', *, *, #226, .F. ) ;
#41 = LINE ( 'NONE', #341, #371 ) ;
#42 = EDGE_CURVE ( 'NONE', #437, #14, #210, .T. ) ;
#43 = FACE_OUTER_BOUND ( 'NONE', #50, .T. ) ;
#44 = DIRECTION ( 'NONE',  ( 1.000000000000000000, 0.000000000000000000, 0.000000000000000000 ) ) ;
#45 = CYLINDRICAL_SURFACE ( 'NONE', #266, 1.599999999999999867 ) ;
#46 = ORIENTED_EDGE ( 'NONE', *, *, #261, .F. ) ;
#47 = PLANE ( 'NONE',  #134 ) ;
#48 = ORIENTED_EDGE ( 'NONE', *, *, #131, .F. ) ;
#49 = DIRECTION ( 'NONE',  ( 0.000000000000000000, 0.000000000000000000, 1.000000000000000000 ) ) ;
#50 = EDGE_LOOP ( 'NONE', ( #239, #46, #142, #133 ) ) ;
#51 = CIRCLE ( 'NONE', #392, 1.250000000000000222 ) ;
#52 = DIRECTION ( 'NONE',  ( 8.673617379884037937E-17, -1.000000000000000000, -0.000000000000000000 ) ) ;
#53 = AXIS2_PLACEMENT_3D ( 'NONE', #445, #454, #255 ) ;
#54 = ORIENTED_EDGE ( 'NONE', *, *, #413, .T. ) ;
#55 = DIRECTION ( 'NONE',  ( -0.000000000000000000, -0.000000000000000000, 1.000000000000000000 ) ) ;
#56 = DIRECTION ( 'NONE',  ( 0.000000000000000000, 0.000000000000000000, 1.000000000000000000 ) ) ;
#57 = PRODUCT_DEFINITION_SHAPE ( 'NONE', 'NONE',  #15 ) ;
#58 = VERTEX_POINT ( 'NONE', #232 ) ;
#59 = VECTOR ( 'NONE', #65, 1000.000000000000000 ) ;
#60 = DIRECTION ( 'NONE',  ( -1.000000000000000000, -0.000000000000000000, -0.000000000000000000 ) ) ;
#61 = FILL_AREA_STYLE_COLOUR ( '', #86 ) ;
#62 = EDGE_CURVE ( 'NONE', #298, #84, #273, .T. ) ;
#63 = ORIENTED_EDGE ( 'NONE', *, *, #74, .F. ) ;
#64 = CARTESIAN_POINT ( 'NONE',  ( 3.500000000000023981, 1.499999999999999112, 4.000000000000000000 ) ) ;
#65 = DIRECTION ( 'NONE',  ( -1.000000000000000000, -8.673617379884035472E-17, -0.000000000000000000 ) ) ;
#66 = SHAPE_DEFINITION_REPRESENTATION ( #57, #274 ) ;
#67 = DIRECTION ( 'NONE',  ( 8.673617379884037937E-17, -1.000000000000000000, -0.000000000000000000 ) ) ;
#68 = AXIS2_PLACEMENT_3D ( 'NONE', #358, #361, #159 ) ;
#69 = VECTOR ( 'NONE', #217, 1000.000000000000000 ) ;
#70 = FACE_OUTER_BOUND ( 'NONE', #193, .T. ) ;
#71 = DIRECTION ( 'NONE',  ( 0.000000000000000000, -1.000000000000000000, -0.000000000000000000 ) ) ;
#72 = EDGE_CURVE ( 'NONE', #437, #201, #380, .T. ) ;
#73 = ORIENTED_EDGE ( 'NONE', *, *, #39, .F. ) ;
#74 = EDGE_CURVE ( 'NONE', #110, #99, #194, .T. ) ;
#75 =( LENGTH_UNIT ( ) NAMED_UNIT ( * ) SI_UNIT ( .MILLI., .METRE. ) );
#76 = CARTESIAN_POINT ( 'NONE',  ( 6.250000000000000888, -1.500000000000001332, 2.000000000000000000 ) ) ;
#77 = ORIENTED_EDGE ( 'NONE', *, *, #389, .F. ) ;
#78 = DIRECTION ( 'NONE',  ( 1.000000000000000000, 0.000000000000000000, 0.000000000000000000 ) ) ;
#79 = VECTOR ( 'NONE', #370, 1000.000000000000000 ) ;
#80 = CARTESIAN_POINT ( 'NONE',  ( 3.500000000000023093, 1.499999999999999112, 4.000000000000000000 ) ) ;
#81 = EDGE_CURVE ( 'NONE', #322, #150, #240, .T. ) ;
#82 = DIRECTION ( 'NONE',  ( 1.000000000000000000, 0.000000000000000000, 0.000000000000000000 ) ) ;
#83 = DIRECTION ( 'NONE',  ( -0.000000000000000000, 1.000000000000000000, -0.000000000000000000 ) ) ;
#84 = VERTEX_POINT ( 'NONE', #388 ) ;
#85 = VECTOR ( 'NONE', #382, 1000.000000000000000 ) ;
#86 = COLOUR_RGB ( '',0.7921568627450980005, 0.8196078431372548767, 0.9333333333333333481 ) ;
#87 = LINE ( 'NONE', #433, #284 ) ;
#88 = ORIENTED_EDGE ( 'NONE', *, *, #179, .T. ) ;
#89 = DIRECTION ( 'NONE',  ( 0.000000000000000000, 0.000000000000000000, 1.000000000000000000 ) ) ;
#90 = ORIENTED_EDGE ( 'NONE', *, *, #128, .F. ) ;
#91 = FACE_BOUND ( 'NONE', #439, .T. ) ;
#92 = ORIENTED_EDGE ( 'NONE', *, *, #198, .T. ) ;
#93 = AXIS2_PLACEMENT_3D ( 'NONE', #474, #195, #477 ) ;
#94 = ORIENTED_EDGE ( 'NONE', *, *, #440, .F. ) ;
#95 = CARTESIAN_POINT ( 'NONE',  ( 3.500000000000023981, 1.499999999999999112, 0.000000000000000000 ) ) ;
#96 = EDGE_CURVE ( 'NONE', #467, #9, #191, .T. ) ;
#97 = LINE ( 'NONE', #444, #79 ) ;
#98 = DIRECTION ( 'NONE',  ( 1.000000000000000000, 8.673617379884035472E-17, 0.000000000000000000 ) ) ;
#99 = VERTEX_POINT ( 'NONE', #116 ) ;
#100 = DIRECTION ( 'NONE',  ( 0.7071067811865437980, 0.7071067811865512365, 0.000000000000000000 ) ) ;
#101 = AXIS2_PLACEMENT_3D ( 'NONE', #304, #71, #228 ) ;
#102 = ORIENTED_EDGE ( 'NONE', *, *, #155, .F. ) ;
#103 = ORIENTED_EDGE ( 'NONE', *, *, #251, .F. ) ;
#104 = CARTESIAN_POINT ( 'NONE',  ( -5.000000000000000000, 0.000000000000000000, 0.000000000000000000 ) ) ;
#105 = EDGE_LOOP ( 'NONE', ( #302, #337, #325, #127 ) ) ;
#106 = FACE_OUTER_BOUND ( 'NONE', #342, .T. ) ;
#107 = DIRECTION ( 'NONE',  ( 0.000000000000000000, 0.000000000000000000, -1.000000000000000000 ) ) ;
#108 = ORIENTED_EDGE ( 'NONE', *, *, #187, .F. ) ;
#109 = CARTESIAN_POINT ( 'NONE',  ( 5.000000000000000000, 1.499999999999999112, 2.000000000000000000 ) ) ;
#110 = VERTEX_POINT ( 'NONE', #80 ) ;
#111 = CARTESIAN_POINT ( 'NONE',  ( 1.734723475976807094E-15, -5.000000000000024869, 0.000000000000000000 ) ) ;
#112 = DIRECTION ( 'NONE',  ( -1.000000000000000000, -0.000000000000000000, -0.000000000000000000 ) ) ;
#113 = ORIENTED_EDGE ( 'NONE', *, *, #389, .T. ) ;
#114 = CARTESIAN_POINT ( 'NONE',  ( -5.000000000000000000, 0.000000000000000000, 0.000000000000000000 ) ) ;
#115 = PRODUCT_DEFINITION_CONTEXT ( 'detailed design', #26, 'design' ) ;
#116 = CARTESIAN_POINT ( 'NONE',  ( 5.249999999999999112, 1.499999999999999112, 4.000000000000000000 ) ) ;
#117 = LINE ( 'NONE', #423, #323 ) ;
#118 = VECTOR ( 'NONE', #1, 1000.000000000000000 ) ;
#119 = MECHANICAL_DESIGN_GEOMETRIC_PRESENTATION_REPRESENTATION (  '', ( #453 ), #213 ) ;
#120 = AXIS2_PLACEMENT_3D ( 'NONE', #177, #290, #98 ) ;
#121 = PLANE ( 'NONE',  #352 ) ;
#122 = CARTESIAN_POINT ( 'NONE',  ( -10.00000000000000000, -5.000000000000002665, 4.000000000000000000 ) ) ;
#123 = ORIENTED_EDGE ( 'NONE', *, *, #74, .T. ) ;
#124 = CARTESIAN_POINT ( 'NONE',  ( 3.499999999999988010, -1.500000000000000888, 0.000000000000000000 ) ) ;
#125 = ORIENTED_EDGE ( 'NONE', *, *, #155, .T. ) ;
#126 = LINE ( 'NONE', #122, #144 ) ;
#127 = ORIENTED_EDGE ( 'NONE', *, *, #365, .F. ) ;
#128 = EDGE_CURVE ( 'NONE', #281, #231, #156, .T. ) ;
#129 = PLANE ( 'NONE',  #68 ) ;
#130 = VERTEX_POINT ( 'NONE', #269 ) ;
#131 = EDGE_CURVE ( 'NONE', #58, #9, #236, .T. ) ;
#132 = SURFACE_STYLE_USAGE ( .BOTH. , #328 ) ;
#133 = ORIENTED_EDGE ( 'NONE', *, *, #128, .T. ) ;
#134 = AXIS2_PLACEMENT_3D ( 'NONE', #13, #279, #89 ) ;
#135 = EDGE_CURVE ( 'NONE', #208, #298, #51, .T. ) ;
#136 = DIRECTION ( 'NONE',  ( 1.000000000000000000, 0.000000000000000000, 0.000000000000000000 ) ) ;
#137 = FACE_OUTER_BOUND ( 'NONE', #182, .T. ) ;
#138 = DIRECTION ( 'NONE',  ( -0.000000000000000000, -0.000000000000000000, 1.000000000000000000 ) ) ;
#139 = VERTEX_POINT ( 'NONE', #425 ) ;
#140 = LINE ( 'NONE', #175, #463 ) ;
#141 = ORIENTED_EDGE ( 'NONE', *, *, #347, .T. ) ;
#142 = ORIENTED_EDGE ( 'NONE', *, *, #299, .F. ) ;
#143 = EDGE_CURVE ( 'NONE', #150, #99, #343, .T. ) ;
#144 = VECTOR ( 'NONE', #8, 1000.000000000000000 ) ;
#145 = ORIENTED_EDGE ( 'NONE', *, *, #202, .F. ) ;
#146 = UNCERTAINTY_MEASURE_WITH_UNIT (LENGTH_MEASURE( 1.000000000000000082E-05 ), #16, 'distance_accuracy_value', 'NONE');
#147 = CARTESIAN_POINT ( 'NONE',  ( 8.673617379884035472E-16, 1.499999999999999112, 4.000000000000000000 ) ) ;
#148 = APPLICATION_PROTOCOL_DEFINITION ( 'draft international standard', 'automotive_design', 1998, #336 ) ;
#149 = FACE_OUTER_BOUND ( 'NONE', #449, .T. ) ;
#150 = VERTEX_POINT ( 'NONE', #469 ) ;
#151 = DIRECTION ( 'NONE',  ( 0.000000000000000000, 0.000000000000000000, 1.000000000000000000 ) ) ;
#152 = EDGE_CURVE ( 'NONE', #110, #14, #41, .T. ) ;
#153 = DIRECTION ( 'NONE',  ( 0.7071067811865435759, 0.7071067811865513475, -0.000000000000000000 ) ) ;
#154 = LINE ( 'NONE', #64, #404 ) ;
#155 = EDGE_CURVE ( 'NONE', #165, #493, #499, .T. ) ;
#156 = LINE ( 'NONE', #312, #20 ) ;
#157 = CYLINDRICAL_SURFACE ( 'NONE', #435, 1.250000000000000222 ) ;
#158 = ADVANCED_FACE ( 'NONE', ( #149 ), #157, .F. ) ;
#159 = DIRECTION ( 'NONE',  ( 0.000000000000000000, -0.000000000000000000, -1.000000000000000000 ) ) ;
#160 = VECTOR ( 'NONE', #205, 1000.000000000000000 ) ;
#161 = AXIS2_PLACEMENT_3D ( 'NONE', #95, #100, #24 ) ;
#162 = LINE ( 'NONE', #286, #487 ) ;
#163 = ORIENTED_EDGE ( 'NONE', *, *, #365, .T. ) ;
#164 = CARTESIAN_POINT ( 'NONE',  ( 5.000000000000000000, 5.000000000000002665, 2.000000000000000000 ) ) ;
#165 = VERTEX_POINT ( 'NONE', #306 ) ;
#166 = CARTESIAN_POINT ( 'NONE',  ( -10.00000000000000000, -5.000000000000002665, 4.000000000000000000 ) ) ;
#167 = ORIENTED_EDGE ( 'NONE', *, *, #135, .T. ) ;
#168 = VECTOR ( 'NONE', #35, 1000.000000000000000 ) ;
#169 = CARTESIAN_POINT ( 'NONE',  ( 7.250000000000000888, -1.500000000000000888, 2.000000000000000000 ) ) ;
#170 = VERTEX_POINT ( 'NONE', #76 ) ;
#171 = DIRECTION ( 'NONE',  ( 1.000000000000000000, 0.000000000000000000, 0.000000000000000000 ) ) ;
#172 = ORIENTED_EDGE ( 'NONE', *, *, #251, .T. ) ;
#173 = ORIENTED_EDGE ( 'NONE', *, *, #202, .T. ) ;
#174 = VECTOR ( 'NONE', #138, 1000.000000000000000 ) ;
#175 = CARTESIAN_POINT ( 'NONE',  ( -3.400000000000000355, 0.000000000000000000, 0.000000000000000000 ) ) ;
#176 = ORIENTED_EDGE ( 'NONE', *, *, #62, .F. ) ;
#177 = CARTESIAN_POINT ( 'NONE',  ( -10.00000000000000000, 4.999999999999999112, 4.000000000000000000 ) ) ;
#178 = ORIENTED_EDGE ( 'NONE', *, *, #431, .F. ) ;
#179 = EDGE_CURVE ( 'NONE', #437, #231, #225, .T. ) ;
#180 = ORIENTED_EDGE ( 'NONE', *, *, #413, .F. ) ;
#181 = LINE ( 'NONE', #364, #338 ) ;
#182 = EDGE_LOOP ( 'NONE', ( #283, #141, #180, #332 ) ) ;
#183 = CIRCLE ( 'NONE', #234, 1.250000000000000222 ) ;
#184 = CARTESIAN_POINT ( 'NONE',  ( 5.250000000000000888, 1.499999999999997780, 4.000000000000000000 ) ) ;
#185 = DIRECTION ( 'NONE',  ( 0.000000000000000000, 0.000000000000000000, -1.000000000000000000 ) ) ;
#186 = CARTESIAN_POINT ( 'NONE',  ( -5.000000000000000000, 0.000000000000000000, 4.000000000000000000 ) ) ;
#187 = EDGE_CURVE ( 'NONE', #298, #208, #32, .T. ) ;
#188 = DIRECTION ( 'NONE',  ( 1.000000000000000000, 0.000000000000000000, 0.000000000000000000 ) ) ;
#189 =( NAMED_UNIT ( * ) PLANE_ANGLE_UNIT ( ) SI_UNIT ( $, .RADIAN. ) );
#190 = CARTESIAN_POINT ( 'NONE',  ( 6.250000000000000000, 1.499999999999999112, 2.000000000000000000 ) ) ;
#191 = CIRCLE ( 'NONE', #257, 1.599999999999999867 ) ;
#192 = AXIS2_PLACEMENT_3D ( 'NONE', #207, #484, #369 ) ;
#193 = EDGE_LOOP ( 'NONE', ( #360, #103, #102, #486 ) ) ;
#194 = LINE ( 'NONE', #147, #168 ) ;
#195 = DIRECTION ( 'NONE',  ( 1.000000000000000000, 0.000000000000000000, 0.000000000000000000 ) ) ;
#196 = FACE_OUTER_BOUND ( 'NONE', #211, .T. ) ;
#197 = CIRCLE ( 'NONE', #22, 2.000000000000000000 ) ;
#198 = EDGE_CURVE ( 'NONE', #150, #493, #117, .T. ) ;
#199 = CIRCLE ( 'NONE', #242, 1.599999999999999867 ) ;
#200 = FACE_OUTER_BOUND ( 'NONE', #434, .T. ) ;
#201 = VERTEX_POINT ( 'NONE', #230 ) ;
#202 = EDGE_CURVE ( 'NONE', #84, #170, #183, .T. ) ;
#203 = LINE ( 'NONE', #166, #363 ) ;
#204 = EDGE_LOOP ( 'NONE', ( #6, #270, #291, #420 ) ) ;
#205 = DIRECTION ( 'NONE',  ( 0.000000000000000000, 0.000000000000000000, -1.000000000000000000 ) ) ;
#206 = ORIENTED_EDGE ( 'NONE', *, *, #96, .T. ) ;
#207 = CARTESIAN_POINT ( 'NONE',  ( -5.000000000000000000, 0.000000000000000000, 0.000000000000000000 ) ) ;
#208 = VERTEX_POINT ( 'NONE', #190 ) ;
#209 = PRESENTATION_STYLE_ASSIGNMENT (( #132 ) ) ;
#210 = LINE ( 'NONE', #368, #462 ) ;
#211 = EDGE_LOOP ( 'NONE', ( #48, #400, #113, #206 ) ) ;
#212 = AXIS2_PLACEMENT_3D ( 'NONE', #109, #313, #267 ) ;
#213 =( GEOMETRIC_REPRESENTATION_CONTEXT ( 3 ) GLOBAL_UNCERTAINTY_ASSIGNED_CONTEXT ( ( #146 ) ) GLOBAL_UNIT_ASSIGNED_CONTEXT ( ( #16, #443, #405 ) ) REPRESENTATION_CONTEXT ( 'NONE', 'WORKASPACE' ) );
#214 = FACE_OUTER_BOUND ( 'NONE', #480, .T. ) ;
#215 = CARTESIAN_POINT ( 'NONE',  ( 0.000000000000000000, 5.000000000000000888, 4.000000000000000000 ) ) ;
#216 = EDGE_LOOP ( 'NONE', ( #398, #88, #90, #256 ) ) ;
#217 = DIRECTION ( 'NONE',  ( 0.000000000000000000, -1.000000000000000000, 0.000000000000000000 ) ) ;
#218 = EDGE_LOOP ( 'NONE', ( #176, #375, #394, #459 ) ) ;
#219 = PRODUCT ( 'NoodsHolder', 'NoodsHolder', '', ( #417 ) ) ;
#220 = DIRECTION ( 'NONE',  ( -0.000000000000000000, -0.000000000000000000, 1.000000000000000000 ) ) ;
#221 = DIRECTION ( 'NONE',  ( 0.000000000000000000, -1.000000000000000000, -0.000000000000000000 ) ) ;
#222 = FACE_BOUND ( 'NONE', #473, .T. ) ;
#223 = CIRCLE ( 'NONE', #419, 1.250000000000000222 ) ;
#224 =( GEOMETRIC_REPRESENTATION_CONTEXT ( 3 ) GLOBAL_UNCERTAINTY_ASSIGNED_CONTEXT ( ( #379 ) ) GLOBAL_UNIT_ASSIGNED_CONTEXT ( ( #75, #189, #272 ) ) REPRESENTATION_CONTEXT ( 'NONE', 'WORKASPACE' ) );
#225 = LINE ( 'NONE', #461, #402 ) ;
#226 = EDGE_CURVE ( 'NONE', #9, #467, #300, .T. ) ;
#227 = PRODUCT_RELATED_PRODUCT_CATEGORY ( 'part', '', ( #219 ) ) ;
#228 = DIRECTION ( 'NONE',  ( 0.000000000000000000, 0.000000000000000000, 1.000000000000000000 ) ) ;
#229 = VERTEX_POINT ( 'NONE', #479 ) ;
#230 = CARTESIAN_POINT ( 'NONE',  ( 3.500000000000023093, 1.499999999999999112, 0.000000000000000000 ) ) ;
#231 = VERTEX_POINT ( 'NONE', #245 ) ;
#232 = CARTESIAN_POINT ( 'NONE',  ( -6.599999999999999645, 1.959434878635765723E-16, 0.000000000000000000 ) ) ;
#233 = EDGE_CURVE ( 'NONE', #248, #451, #87, .T. ) ;
#234 = AXIS2_PLACEMENT_3D ( 'NONE', #430, #276, #385 ) ;
#235 = AXIS2_PLACEMENT_3D ( 'NONE', #111, #424, #185 ) ;
#236 = LINE ( 'NONE', #458, #118 ) ;
#237 = CYLINDRICAL_SURFACE ( 'NONE', #339, 1.250000000000000222 ) ;
#238 = CARTESIAN_POINT ( 'NONE',  ( 3.750000000000000000, 1.499999999999999112, 2.000000000000000000 ) ) ;
#239 = ORIENTED_EDGE ( 'NONE', *, *, #431, .T. ) ;
#240 = CIRCLE ( 'NONE', #101, 2.000000000000000000 ) ;
#241 = ADVANCED_FACE ( 'NONE', ( #43 ), #317, .F. ) ;
#242 = AXIS2_PLACEMENT_3D ( 'NONE', #104, #482, #171 ) ;
#243 = CARTESIAN_POINT ( 'NONE',  ( 1.734723475976807094E-15, -1.500000000000000888, 0.000000000000000000 ) ) ;
#244 = ORIENTED_EDGE ( 'NONE', *, *, #446, .F. ) ;
#245 = CARTESIAN_POINT ( 'NONE',  ( -10.00000000000000000, 4.999999999999999112, 0.000000000000000000 ) ) ;
#246 = EDGE_LOOP ( 'NONE', ( #123, #11, #320, #366, #305 ) ) ;
#247 = FACE_BOUND ( 'NONE', #357, .T. ) ;
#248 = VERTEX_POINT ( 'NONE', #124 ) ;
#249 = VECTOR ( 'NONE', #494, 1000.000000000000000 ) ;
#250 = CARTESIAN_POINT ( 'NONE',  ( 6.250000000000000000, 5.000000000000002665, 2.000000000000000000 ) ) ;
#251 = EDGE_CURVE ( 'NONE', #493, #248, #441, .T. ) ;
#252 = ORIENTED_EDGE ( 'NONE', *, *, #490, .T. ) ;
#253 = LINE ( 'NONE', #488, #69 ) ;
#254 = VERTEX_POINT ( 'NONE', #282 ) ;
#255 = DIRECTION ( 'NONE',  ( 1.000000000000000000, 0.000000000000000000, -0.000000000000000000 ) ) ;
#256 = ORIENTED_EDGE ( 'NONE', *, *, #30, .F. ) ;
#257 = AXIS2_PLACEMENT_3D ( 'NONE', #186, #36, #188 ) ;
#258 = CARTESIAN_POINT ( 'NONE',  ( 7.250000000000000888, -1.500000000000000888, 0.000000000000000000 ) ) ;
#259 = VERTEX_POINT ( 'NONE', #438 ) ;
#260 = CARTESIAN_POINT ( 'NONE',  ( 7.250000000000000888, 1.499999999999999112, 0.000000000000000000 ) ) ;
#261 = EDGE_CURVE ( 'NONE', #139, #318, #203, .T. ) ;
#262 = CARTESIAN_POINT ( 'NONE',  ( -10.00000000000000000, -5.000000000000002665, 0.000000000000000000 ) ) ;
#263 = DIRECTION ( 'NONE',  ( -0.7071067811865512365, 0.7071067811865439090, -0.000000000000000000 ) ) ;
#264 = ORIENTED_EDGE ( 'NONE', *, *, #96, .F. ) ;
#265 = DIRECTION ( 'NONE',  ( -0.000000000000000000, -0.000000000000000000, 1.000000000000000000 ) ) ;
#266 = AXIS2_PLACEMENT_3D ( 'NONE', #432, #319, #82 ) ;
#267 = DIRECTION ( 'NONE',  ( 6.938893903907227392E-16, 0.000000000000000000, -1.000000000000000000 ) ) ;
#268 = LINE ( 'NONE', #260, #33 ) ;
#269 = CARTESIAN_POINT ( 'NONE',  ( 7.250000000000000888, 1.499999999999999112, 0.000000000000000000 ) ) ;
#270 = ORIENTED_EDGE ( 'NONE', *, *, #42, .T. ) ;
#271 = ADVANCED_FACE ( 'NONE', ( #393 ), #353, .T. ) ;
#272 =( NAMED_UNIT ( * ) SI_UNIT ( $, .STERADIAN. ) SOLID_ANGLE_UNIT ( ) );
#273 = LINE ( 'NONE', #309, #85 ) ;
#274 = ADVANCED_BREP_SHAPE_REPRESENTATION ( 'NoodsHolder', ( #456, #387 ), #224 ) ;
#275 = VECTOR ( 'NONE', #153, 1000.000000000000114 ) ;
#276 = DIRECTION ( 'NONE',  ( 0.000000000000000000, -1.000000000000000000, -0.000000000000000000 ) ) ;
#277 = AXIS2_PLACEMENT_3D ( 'NONE', #114, #220, #376 ) ;
#278 = CARTESIAN_POINT ( 'NONE',  ( -10.00000000000000000, -5.000000000000002665, 0.000000000000000000 ) ) ;
#279 = DIRECTION ( 'NONE',  ( -1.000000000000000000, 0.000000000000000000, 0.000000000000000000 ) ) ;
#280 = ADVANCED_FACE ( 'NONE', ( #472, #91 ), #129, .F. ) ;
#281 = VERTEX_POINT ( 'NONE', #436 ) ;
#282 = CARTESIAN_POINT ( 'NONE',  ( -3.400000000000000355, 0.000000000000000000, 0.000000000000000000 ) ) ;
#283 = ORIENTED_EDGE ( 'NONE', *, *, #23, .T. ) ;
#284 = VECTOR ( 'NONE', #10, 1000.000000000000114 ) ;
#285 = VECTOR ( 'NONE', #136, 1000.000000000000000 ) ;
#286 = CARTESIAN_POINT ( 'NONE',  ( 1.734723475976807094E-15, -5.000000000000002665, 0.000000000000000000 ) ) ;
#287 = ORIENTED_EDGE ( 'NONE', *, *, #299, .T. ) ;
#288 = DIRECTION ( 'NONE',  ( -0.000000000000000000, -0.000000000000000000, 1.000000000000000000 ) ) ;
#289 = ORIENTED_EDGE ( 'NONE', *, *, #7, .T. ) ;
#290 = DIRECTION ( 'NONE',  ( 8.673617379884035472E-17, -1.000000000000000000, 0.000000000000000000 ) ) ;
#291 = ORIENTED_EDGE ( 'NONE', *, *, #152, .F. ) ;
#292 = LINE ( 'NONE', #258, #174 ) ;
#293 = DIRECTION ( 'NONE',  ( -8.673617379884035472E-17, 1.000000000000000000, 0.000000000000000000 ) ) ;
#294 = FACE_OUTER_BOUND ( 'NONE', #216, .T. ) ;
#295 = CARTESIAN_POINT ( 'NONE',  ( -10.00000000000000000, -5.000000000000002665, 4.000000000000000000 ) ) ;
#296 = CARTESIAN_POINT ( 'NONE',  ( 1.734723475976807094E-15, -5.000000000000002665, 0.000000000000000000 ) ) ;
#297 = ORIENTED_EDGE ( 'NONE', *, *, #395, .F. ) ;
#298 = VERTEX_POINT ( 'NONE', #238 ) ;
#299 = EDGE_CURVE ( 'NONE', #281, #139, #126, .T. ) ;
#300 = CIRCLE ( 'NONE', #314, 1.599999999999999867 ) ;
#301 = FACE_OUTER_BOUND ( 'NONE', #27, .T. ) ;
#302 = ORIENTED_EDGE ( 'NONE', *, *, #344, .F. ) ;
#303 = CYLINDRICAL_SURFACE ( 'NONE', #277, 1.599999999999999867 ) ;
#304 = CARTESIAN_POINT ( 'NONE',  ( 5.250000000000000888, -1.500000000000000888, 2.000000000000000000 ) ) ;
#305 = ORIENTED_EDGE ( 'NONE', *, *, #466, .T. ) ;
#306 = CARTESIAN_POINT ( 'NONE',  ( 1.734723475976807094E-15, -5.000000000000002665, 4.000000000000000000 ) ) ;
#307 = DIRECTION ( 'NONE',  ( 0.000000000000000000, 0.000000000000000000, 1.000000000000000000 ) ) ;
#308 = VECTOR ( 'NONE', #52, 1000.000000000000000 ) ;
#309 = CARTESIAN_POINT ( 'NONE',  ( 3.750000000000000000, 5.000000000000002665, 2.000000000000000000 ) ) ;
#310 = ADVANCED_FACE ( 'NONE', ( #471, #247 ), #121, .F. ) ;
#311 = DIRECTION ( 'NONE',  ( 0.000000000000000000, 0.000000000000000000, 1.000000000000000000 ) ) ;
#312 = CARTESIAN_POINT ( 'NONE',  ( -10.00000000000000000, 4.999999999999999112, 4.000000000000000000 ) ) ;
#313 = DIRECTION ( 'NONE',  ( -0.000000000000000000, 1.000000000000000000, -0.000000000000000000 ) ) ;
#314 = AXIS2_PLACEMENT_3D ( 'NONE', #348, #502, #468 ) ;
#315 = CARTESIAN_POINT ( 'NONE',  ( 3.499999999999988010, -1.500000000000000888, 0.000000000000000000 ) ) ;
#316 = ADVANCED_FACE ( 'NONE', ( #200 ), #47, .F. ) ;
#317 = PLANE ( 'NONE',  #93 ) ;
#318 = VERTEX_POINT ( 'NONE', #278 ) ;
#319 = DIRECTION ( 'NONE',  ( -0.000000000000000000, -0.000000000000000000, 1.000000000000000000 ) ) ;
#320 = ORIENTED_EDGE ( 'NONE', *, *, #490, .F. ) ;
#321 = DIRECTION ( 'NONE',  ( 0.000000000000000000, 1.000000000000000000, -0.000000000000000000 ) ) ;
#322 = VERTEX_POINT ( 'NONE', #169 ) ;
#323 = VECTOR ( 'NONE', #112, 1000.000000000000000 ) ;
#324 = CARTESIAN_POINT ( 'NONE',  ( 5.250000000000000888, 1.499999999999999556, 2.000000000000000000 ) ) ;
#325 = ORIENTED_EDGE ( 'NONE', *, *, #81, .F. ) ;
#326 = CARTESIAN_POINT ( 'NONE',  ( -10.00000000000000000, -5.000000000000002665, 0.000000000000000000 ) ) ;
#327 = ORIENTED_EDGE ( 'NONE', *, *, #226, .T. ) ;
#328 = SURFACE_SIDE_STYLE ('',( #28 ) ) ;
#329 = LINE ( 'NONE', #262, #346 ) ;
#330 = AXIS2_PLACEMENT_3D ( 'NONE', #3, #321, #49 ) ;
#331 = CIRCLE ( 'NONE', #192, 1.599999999999999867 ) ;
#332 = ORIENTED_EDGE ( 'NONE', *, *, #261, .T. ) ;
#333 = DIRECTION ( 'NONE',  ( 1.000000000000000000, 8.673617379884035472E-17, 0.000000000000000000 ) ) ;
#334 = CARTESIAN_POINT ( 'NONE',  ( 5.000000000000000888, -1.500000000000001332, 2.000000000000000000 ) ) ;
#335 = ORIENTED_EDGE ( 'NONE', *, *, #7, .F. ) ;
#336 = APPLICATION_CONTEXT ( 'automotive_design' ) ;
#337 = ORIENTED_EDGE ( 'NONE', *, *, #143, .F. ) ;
#338 = VECTOR ( 'NONE', #333, 1000.000000000000000 ) ;
#339 = AXIS2_PLACEMENT_3D ( 'NONE', #164, #391, #44 ) ;
#340 = DIRECTION ( 'NONE',  ( 0.000000000000000000, 1.000000000000000000, -0.000000000000000000 ) ) ;
#341 = CARTESIAN_POINT ( 'NONE',  ( 3.500000000000023981, 1.499999999999999112, 4.000000000000000000 ) ) ;
#342 = EDGE_LOOP ( 'NONE', ( #94, #386, #327, #77 ) ) ;
#343 = LINE ( 'NONE', #184, #470 ) ;
#344 = EDGE_CURVE ( 'NONE', #99, #259, #197, .T. ) ;
#345 = CARTESIAN_POINT ( 'NONE',  ( 3.499999999999988010, -1.500000000000000888, 4.000000000000000000 ) ) ;
#346 = VECTOR ( 'NONE', #25, 1000.000000000000000 ) ;
#347 = EDGE_CURVE ( 'NONE', #451, #165, #162, .T. ) ;
#348 = CARTESIAN_POINT ( 'NONE',  ( -5.000000000000000000, 0.000000000000000000, 4.000000000000000000 ) ) ;
#349 = ORIENTED_EDGE ( 'NONE', *, *, #233, .T. ) ;
#350 = DIRECTION ( 'NONE',  ( 0.7071067811865512365, -0.7071067811865439090, -0.000000000000000000 ) ) ;
#351 = DIRECTION ( 'NONE',  ( -0.000000000000000000, -0.000000000000000000, -1.000000000000000000 ) ) ;
#352 = AXIS2_PLACEMENT_3D ( 'NONE', #243, #5, #397 ) ;
#353 = CYLINDRICAL_SURFACE ( 'NONE', #330, 2.000000000000000000 ) ;
#354 = PRODUCT_DEFINITION_FORMATION_WITH_SPECIFIED_SOURCE ( 'ANY', '', #219, .NOT_KNOWN. ) ;
#355 = ADVANCED_FACE ( 'NONE', ( #196 ), #45, .F. ) ;
#356 = FACE_OUTER_BOUND ( 'NONE', #218, .T. ) ;
#357 = EDGE_LOOP ( 'NONE', ( #73, #145 ) ) ;
#358 = CARTESIAN_POINT ( 'NONE',  ( 8.673617379884035472E-16, 1.499999999999999112, 0.000000000000000000 ) ) ;
#359 = ADVANCED_FACE ( 'NONE', ( #356 ), #237, .F. ) ;
#360 = ORIENTED_EDGE ( 'NONE', *, *, #233, .F. ) ;
#361 = DIRECTION ( 'NONE',  ( 0.000000000000000000, -1.000000000000000000, 0.000000000000000000 ) ) ;
#362 = ORIENTED_EDGE ( 'NONE', *, *, #152, .T. ) ;
#363 = VECTOR ( 'NONE', #351, 1000.000000000000000 ) ;
#364 = CARTESIAN_POINT ( 'NONE',  ( -10.00000000000000000, -5.000000000000002665, 4.000000000000000000 ) ) ;
#365 = EDGE_CURVE ( 'NONE', #259, #322, #253, .T. ) ;
#366 = ORIENTED_EDGE ( 'NONE', *, *, #384, .F. ) ;
#367 = LINE ( 'NONE', #326, #249 ) ;
#368 = CARTESIAN_POINT ( 'NONE',  ( 0.000000000000000000, 5.000000000000000888, 0.000000000000000000 ) ) ;
#369 = DIRECTION ( 'NONE',  ( 1.000000000000000000, 0.000000000000000000, 0.000000000000000000 ) ) ;
#370 = DIRECTION ( 'NONE',  ( -0.000000000000000000, -1.000000000000000000, -0.000000000000000000 ) ) ;
#371 = VECTOR ( 'NONE', #263, 999.9999999999998863 ) ;
#372 = FACE_BOUND ( 'NONE', #373, .T. ) ;
#373 = EDGE_LOOP ( 'NONE', ( #414, #21 ) ) ;
#374 = PLANE ( 'NONE',  #161 ) ;
#375 = ORIENTED_EDGE ( 'NONE', *, *, #187, .T. ) ;
#376 = DIRECTION ( 'NONE',  ( 1.000000000000000000, 0.000000000000000000, 0.000000000000000000 ) ) ;
#377 = ORIENTED_EDGE ( 'NONE', *, *, #81, .T. ) ;
#378 = DIRECTION ( 'NONE',  ( 1.000000000000000000, 0.000000000000000000, -0.000000000000000000 ) ) ;
#379 = UNCERTAINTY_MEASURE_WITH_UNIT (LENGTH_MEASURE( 1.000000000000000082E-05 ), #75, 'distance_accuracy_value', 'NONE');
#380 = LINE ( 'NONE', #497, #12 ) ;
#381 = ADVANCED_FACE ( 'NONE', ( #450 ), #374, .T. ) ;
#382 = DIRECTION ( 'NONE',  ( 8.673617379884037937E-17, -1.000000000000000000, -0.000000000000000000 ) ) ;
#383 = EDGE_LOOP ( 'NONE', ( #17, #377, #92, #172, #335 ) ) ;
#384 = EDGE_CURVE ( 'NONE', #201, #130, #491, .T. ) ;
#385 = DIRECTION ( 'NONE',  ( 6.938893903907227392E-16, 0.000000000000000000, 1.000000000000000000 ) ) ;
#386 = ORIENTED_EDGE ( 'NONE', *, *, #131, .T. ) ;
#387 = AXIS2_PLACEMENT_3D ( 'NONE', #427, #151, #500 ) ;
#388 = CARTESIAN_POINT ( 'NONE',  ( 3.750000000000000888, -1.500000000000001332, 2.000000000000000000 ) ) ;
#389 = EDGE_CURVE ( 'NONE', #254, #467, #140, .T. ) ;
#390 = DIRECTION ( 'NONE',  ( -0.000000000000000000, -0.000000000000000000, -1.000000000000000000 ) ) ;
#391 = DIRECTION ( 'NONE',  ( 8.673617379884037937E-17, -1.000000000000000000, -0.000000000000000000 ) ) ;
#392 = AXIS2_PLACEMENT_3D ( 'NONE', #428, #38, #107 ) ;
#393 = FACE_OUTER_BOUND ( 'NONE', #105, .T. ) ;
#394 = ORIENTED_EDGE ( 'NONE', *, *, #446, .T. ) ;
#395 = EDGE_CURVE ( 'NONE', #229, #322, #292, .T. ) ;
#396 = ADVANCED_FACE ( 'NONE', ( #294 ), #448, .F. ) ;
#397 = DIRECTION ( 'NONE',  ( 0.000000000000000000, -0.000000000000000000, 1.000000000000000000 ) ) ;
#398 = ORIENTED_EDGE ( 'NONE', *, *, #42, .F. ) ;
#399 = DIRECTION ( 'NONE',  ( 0.000000000000000000, 0.000000000000000000, -1.000000000000000000 ) ) ;
#400 = ORIENTED_EDGE ( 'NONE', *, *, #457, .F. ) ;
#401 = CARTESIAN_POINT ( 'NONE',  ( 0.000000000000000000, 5.000000000000000888, 0.000000000000000000 ) ) ;
#402 = VECTOR ( 'NONE', #465, 1000.000000000000000 ) ;
#403 = ORIENTED_EDGE ( 'NONE', *, *, #143, .T. ) ;
#404 = VECTOR ( 'NONE', #307, 1000.000000000000000 ) ;
#405 =( NAMED_UNIT ( * ) SI_UNIT ( $, .STERADIAN. ) SOLID_ANGLE_UNIT ( ) );
#406 = ADVANCED_FACE ( 'NONE', ( #372, #301 ), #408, .F. ) ;
#407 = LINE ( 'NONE', #416, #59 ) ;
#408 = PLANE ( 'NONE',  #53 ) ;
#409 = ORIENTED_EDGE ( 'NONE', *, *, #179, .F. ) ;
#410 = FILL_AREA_STYLE ('',( #61 ) ) ;
#411 = CARTESIAN_POINT ( 'NONE',  ( 1.734723475976807094E-15, -1.500000000000000888, 0.000000000000000000 ) ) ;
#412 = LINE ( 'NONE', #250, #308 ) ;
#413 = EDGE_CURVE ( 'NONE', #139, #165, #181, .T. ) ;
#414 = ORIENTED_EDGE ( 'NONE', *, *, #457, .T. ) ;
#415 = CARTESIAN_POINT ( 'NONE',  ( -3.400000000000000355, 0.000000000000000000, 4.000000000000000000 ) ) ;
#416 = CARTESIAN_POINT ( 'NONE',  ( -10.00000000000000000, 4.999999999999999112, 4.000000000000000000 ) ) ;
#417 = PRODUCT_CONTEXT ( 'NONE', #336, 'mechanical' ) ;
#418 = CARTESIAN_POINT ( 'NONE',  ( 5.000000000000000000, 5.000000000000002665, 2.000000000000000000 ) ) ;
#419 = AXIS2_PLACEMENT_3D ( 'NONE', #334, #221, #56 ) ;
#420 = ORIENTED_EDGE ( 'NONE', *, *, #466, .F. ) ;
#421 = PRESENTATION_LAYER_ASSIGNMENT (  '', '', ( #453 ) ) ;
#422 = PLANE ( 'NONE',  #429 ) ;
#423 = CARTESIAN_POINT ( 'NONE',  ( 1.734723475976807094E-15, -1.500000000000000888, 4.000000000000000000 ) ) ;
#424 = DIRECTION ( 'NONE',  ( 0.7071067811865514585, -0.7071067811865436870, 0.000000000000000000 ) ) ;
#425 = CARTESIAN_POINT ( 'NONE',  ( -10.00000000000000000, -5.000000000000002665, 4.000000000000000000 ) ) ;
#426 = ORIENTED_EDGE ( 'NONE', *, *, #72, .T. ) ;
#427 = CARTESIAN_POINT ( 'NONE',  ( 0.000000000000000000, 0.000000000000000000, 0.000000000000000000 ) ) ;
#428 = CARTESIAN_POINT ( 'NONE',  ( 5.000000000000000000, 1.499999999999999112, 2.000000000000000000 ) ) ;
#429 = AXIS2_PLACEMENT_3D ( 'NONE', #464, #311, #378 ) ;
#430 = CARTESIAN_POINT ( 'NONE',  ( 5.000000000000000888, -1.500000000000001332, 2.000000000000000000 ) ) ;
#431 = EDGE_CURVE ( 'NONE', #231, #318, #367, .T. ) ;
#432 = CARTESIAN_POINT ( 'NONE',  ( -5.000000000000000000, 0.000000000000000000, 0.000000000000000000 ) ) ;
#433 = CARTESIAN_POINT ( 'NONE',  ( 2.500000000000013767, -2.499999999999986677, 0.000000000000000000 ) ) ;
#434 = EDGE_LOOP ( 'NONE', ( #252, #163, #297, #37 ) ) ;
#435 = AXIS2_PLACEMENT_3D ( 'NONE', #418, #67, #78 ) ;
#436 = CARTESIAN_POINT ( 'NONE',  ( -10.00000000000000000, 4.999999999999999112, 4.000000000000000000 ) ) ;
#437 = VERTEX_POINT ( 'NONE', #401 ) ;
#438 = CARTESIAN_POINT ( 'NONE',  ( 7.250000000000000888, 1.499999999999999112, 2.000000000000000000 ) ) ;
#439 = EDGE_LOOP ( 'NONE', ( #31, #108 ) ) ;
#440 = EDGE_CURVE ( 'NONE', #58, #254, #199, .T. ) ;
#441 = LINE ( 'NONE', #315, #160 ) ;
#442 = ORIENTED_EDGE ( 'NONE', *, *, #198, .F. ) ;
#443 =( NAMED_UNIT ( * ) PLANE_ANGLE_UNIT ( ) SI_UNIT ( $, .RADIAN. ) );
#444 = CARTESIAN_POINT ( 'NONE',  ( 7.250000000000000888, -5.000000000000002665, 0.000000000000000000 ) ) ;
#445 = CARTESIAN_POINT ( 'NONE',  ( 0.000000000000000000, 0.000000000000000000, 0.000000000000000000 ) ) ;
#446 = EDGE_CURVE ( 'NONE', #208, #170, #412, .T. ) ;
#447 = DIRECTION ( 'NONE',  ( -1.000000000000000000, -8.673617379884035472E-17, 0.000000000000000000 ) ) ;
#448 = PLANE ( 'NONE',  #120 ) ;
#449 = EDGE_LOOP ( 'NONE', ( #167, #489, #173, #244 ) ) ;
#450 = FACE_OUTER_BOUND ( 'NONE', #204, .T. ) ;
#451 = VERTEX_POINT ( 'NONE', #296 ) ;
#452 = VECTOR ( 'NONE', #60, 1000.000000000000000 ) ;
#453 = STYLED_ITEM ( 'NONE', ( #209 ), #456 ) ;
#454 = DIRECTION ( 'NONE',  ( 0.000000000000000000, 0.000000000000000000, 1.000000000000000000 ) ) ;
#455 = CARTESIAN_POINT ( 'NONE',  ( -6.599999999999999645, 1.959434878635765723E-16, 4.000000000000000000 ) ) ;
#456 = MANIFOLD_SOLID_BREP ( 'Fillet1', #485 ) ;
#457 = EDGE_CURVE ( 'NONE', #254, #58, #331, .T. ) ;
#458 = CARTESIAN_POINT ( 'NONE',  ( -6.599999999999999645, 1.959434878635765230E-16, 0.000000000000000000 ) ) ;
#459 = ORIENTED_EDGE ( 'NONE', *, *, #39, .T. ) ;
#460 = ADVANCED_FACE ( 'NONE', ( #214, #222 ), #422, .T. ) ;
#461 = CARTESIAN_POINT ( 'NONE',  ( -10.00000000000000000, 4.999999999999999112, 0.000000000000000000 ) ) ;
#462 = VECTOR ( 'NONE', #18, 1000.000000000000000 ) ;
#463 = VECTOR ( 'NONE', #55, 1000.000000000000000 ) ;
#464 = CARTESIAN_POINT ( 'NONE',  ( 0.000000000000000000, 0.000000000000000000, 4.000000000000000000 ) ) ;
#465 = DIRECTION ( 'NONE',  ( -1.000000000000000000, -8.673617379884035472E-17, -0.000000000000000000 ) ) ;
#466 = EDGE_CURVE ( 'NONE', #201, #110, #154, .T. ) ;
#467 = VERTEX_POINT ( 'NONE', #415 ) ;
#468 = DIRECTION ( 'NONE',  ( 1.000000000000000000, 0.000000000000000000, 0.000000000000000000 ) ) ;
#469 = CARTESIAN_POINT ( 'NONE',  ( 5.250000000000000888, -1.500000000000000888, 4.000000000000000000 ) ) ;
#470 = VECTOR ( 'NONE', #340, 1000.000000000000000 ) ;
#471 = FACE_OUTER_BOUND ( 'NONE', #383, .T. ) ;
#472 = FACE_OUTER_BOUND ( 'NONE', #246, .T. ) ;
#473 = EDGE_LOOP ( 'NONE', ( #264, #40 ) ) ;
#474 = CARTESIAN_POINT ( 'NONE',  ( -10.00000000000000000, -5.000000000000002665, 4.000000000000000000 ) ) ;
#475 = ADVANCED_FACE ( 'NONE', ( #106 ), #303, .F. ) ;
#476 = ORIENTED_EDGE ( 'NONE', *, *, #4, .T. ) ;
#477 = DIRECTION ( 'NONE',  ( 0.000000000000000000, 0.000000000000000000, -1.000000000000000000 ) ) ;
#478 = ORIENTED_EDGE ( 'NONE', *, *, #30, .T. ) ;
#479 = CARTESIAN_POINT ( 'NONE',  ( 7.250000000000000888, -1.500000000000001776, 0.000000000000000000 ) ) ;
#480 = EDGE_LOOP ( 'NONE', ( #442, #403, #63, #362, #478, #287, #54, #125 ) ) ;
#481 = ADVANCED_FACE ( 'NONE', ( #70 ), #34, .T. ) ;
#482 = DIRECTION ( 'NONE',  ( 0.000000000000000000, 0.000000000000000000, 1.000000000000000000 ) ) ;
#483 = LINE ( 'NONE', #411, #452 ) ;
#484 = DIRECTION ( 'NONE',  ( 0.000000000000000000, 0.000000000000000000, 1.000000000000000000 ) ) ;
#485 = CLOSED_SHELL ( 'NONE', ( #158, #475, #396, #316, #241, #2, #460, #406, #355, #310, #280, #359, #381, #481, #271 ) ) ;
#486 = ORIENTED_EDGE ( 'NONE', *, *, #347, .F. ) ;
#487 = VECTOR ( 'NONE', #288, 1000.000000000000000 ) ;
#488 = CARTESIAN_POINT ( 'NONE',  ( 7.250000000000000888, -1.500000000000000888, 2.000000000000000000 ) ) ;
#489 = ORIENTED_EDGE ( 'NONE', *, *, #62, .T. ) ;
#490 = EDGE_CURVE ( 'NONE', #130, #259, #268, .T. ) ;
#491 = LINE ( 'NONE', #19, #285 ) ;
#492 = ORIENTED_EDGE ( 'NONE', *, *, #384, .T. ) ;
#493 = VERTEX_POINT ( 'NONE', #345 ) ;
#494 = DIRECTION ( 'NONE',  ( -0.000000000000000000, -1.000000000000000000, -0.000000000000000000 ) ) ;
#495 = PLANE ( 'NONE',  #496 ) ;
#496 = AXIS2_PLACEMENT_3D ( 'NONE', #295, #293, #447 ) ;
#497 = CARTESIAN_POINT ( 'NONE',  ( 2.499999999999992895, 2.500000000000019540, 0.000000000000000000 ) ) ;
#498 = APPLICATION_PROTOCOL_DEFINITION ( 'draft international standard', 'automotive_design', 1998, #26 ) ;
#499 = LINE ( 'NONE', #501, #275 ) ;
#500 = DIRECTION ( 'NONE',  ( 1.000000000000000000, 0.000000000000000000, 0.000000000000000000 ) ) ;
#501 = CARTESIAN_POINT ( 'NONE',  ( 1.734723475976807094E-15, -5.000000000000024869, 4.000000000000000000 ) ) ;
#502 = DIRECTION ( 'NONE',  ( 0.000000000000000000, 0.000000000000000000, 1.000000000000000000 ) ) ;
ENDSEC;
END-ISO-10303-21;
