ISO-10303-21;
HEADER;
FILE_DESCRIPTION (( 'STEP AP214' ),
    '1' );
FILE_NAME ('StandardServoHolder.STEP',
    '2026-09-12T21:59:35',
    ( '' ),
    ( '' ),
    'SwSTEP 2.0',
    'SolidWorks 2026',
    '' );
FILE_SCHEMA (( 'AUTOMOTIVE_DESIGN' ));
ENDSEC;

DATA;
#1 = CARTESIAN_POINT ( 'NONE',  ( 19.99999999998773248, 32.00000000000000000, 1.500000000000001332 ) ) ;
#2 = EDGE_CURVE ( 'NONE', #355, #1088, #1174, .T. ) ;
#3 = PLANE ( 'NONE',  #259 ) ;
#4 = DIRECTION ( 'NONE',  ( 0.000000000000000000, 1.000000000000000000, 0.000000000000000000 ) ) ;
#5 = ORIENTED_EDGE ( 'NONE', *, *, #8, .F. ) ;
#6 = CARTESIAN_POINT ( 'NONE',  ( -7.499999999996206590, 2.999999999999999112, 9.500000000002732037 ) ) ;
#7 = ORIENTED_EDGE ( 'NONE', *, *, #367, .F. ) ;
#8 = EDGE_CURVE ( 'NONE', #272, #914, #325, .T. ) ;
#9 = CARTESIAN_POINT ( 'NONE',  ( -15.00000000000348166, 15.00000000000000000, 22.91640786500147087 ) ) ;
#10 = VERTEX_POINT ( 'NONE', #212 ) ;
#11 = EDGE_CURVE ( 'NONE', #1239, #687, #709, .T. ) ;
#12 = DIRECTION ( 'NONE',  ( -1.000000000000000000, -1.972152263052529514E-31, 0.000000000000000000 ) ) ;
#13 = VECTOR ( 'NONE', #790, 1000.000000000000000 ) ;
#14 = VECTOR ( 'NONE', #974, 1000.000000000000000 ) ;
#15 = AXIS2_PLACEMENT_3D ( 'NONE', #825, #395, #1033 ) ;
#16 = CARTESIAN_POINT ( 'NONE',  ( -7.000000000003477219, -1.380506584136021665E-30, 4.999999999981820764 ) ) ;
#17 = FACE_OUTER_BOUND ( 'NONE', #169, .T. ) ;
#18 = ORIENTED_EDGE ( 'NONE', *, *, #739, .F. ) ;
#19 = DIRECTION ( 'NONE',  ( 0.000000000000000000, -1.000000000000000000, -0.000000000000000000 ) ) ;
#20 = ORIENTED_EDGE ( 'NONE', *, *, #204, .F. ) ;
#21 = DIRECTION ( 'NONE',  ( 1.972152263052529514E-31, -1.000000000000000000, 0.000000000000000000 ) ) ;
#22 = CARTESIAN_POINT ( 'NONE',  ( -5.550000000003484146, 18.00000000000000000, 6.149999999981810461 ) ) ;
#23 = CARTESIAN_POINT ( 'NONE',  ( -7.499999999996206590, 3.000000000000000000, 9.500000000002732037 ) ) ;
#24 = ORIENTED_EDGE ( 'NONE', *, *, #532, .T. ) ;
#25 = DIRECTION ( 'NONE',  ( 0.000000000000000000, 0.000000000000000000, -1.000000000000000000 ) ) ;
#26 = ORIENTED_EDGE ( 'NONE', *, *, #869, .F. ) ;
#27 = LINE ( 'NONE', #441, #907 ) ;
#28 = ORIENTED_EDGE ( 'NONE', *, *, #133, .F. ) ;
#29 = APPLICATION_CONTEXT ( 'automotive_design' ) ;
#30 = CARTESIAN_POINT ( 'NONE',  ( -17.00000000000348521, 30.00000000000000000, 6.149999999981810461 ) ) ;
#31 = EDGE_CURVE ( 'NONE', #1218, #885, #382, .T. ) ;
#32 = CARTESIAN_POINT ( 'NONE',  ( -2.000000000021092461, -3.944304526132308152E-31, 9.500000000002732037 ) ) ;
#33 = DIRECTION ( 'NONE',  ( 1.000000000000000000, 0.000000000000000000, 0.000000000000000000 ) ) ;
#34 = ORIENTED_EDGE ( 'NONE', *, *, #195, .F. ) ;
#35 = CARTESIAN_POINT ( 'NONE',  ( -21.99999999999438671, 30.00000000000000000, 3.469446951953614189E-15 ) ) ;
#36 = ORIENTED_EDGE ( 'NONE', *, *, #609, .F. ) ;
#37 = CARTESIAN_POINT ( 'NONE',  ( -2.000000000021078694, 32.00000000000000000, 3.469446951953614189E-15 ) ) ;
#38 = VECTOR ( 'NONE', #282, 1000.000000000000000 ) ;
#39 = AXIS2_PLACEMENT_3D ( 'NONE', #1272, #1091, #669 ) ;
#40 = ORIENTED_EDGE ( 'NONE', *, *, #519, .T. ) ;
#41 = CARTESIAN_POINT ( 'NONE',  ( -15.00000000000348166, 15.00000000000000000, 3.469446951953614189E-15 ) ) ;
#42 = EDGE_LOOP ( 'NONE', ( #1202, #265, #1262, #1020 ) ) ;
#43 = CARTESIAN_POINT ( 'NONE',  ( -21.99999999999438671, 30.00000000000000000, 400030.0000000000000 ) ) ;
#44 = LINE ( 'NONE', #878, #716 ) ;
#45 = VERTEX_POINT ( 'NONE', #1025 ) ;
#46 = CARTESIAN_POINT ( 'NONE',  ( -9.000000000003481659, 15.00000000000000000, 3.469446951953614189E-15 ) ) ;
#47 = ADVANCED_FACE ( 'NONE', ( #497 ), #808, .F. ) ;
#48 = EDGE_CURVE ( 'NONE', #377, #1137, #965, .T. ) ;
#49 = ORIENTED_EDGE ( 'NONE', *, *, #453, .F. ) ;
#50 = CARTESIAN_POINT ( 'NONE',  ( -21.99999999999438671, 32.00000000000000000, 3.469446951953614189E-15 ) ) ;
#51 = LINE ( 'NONE', #879, #909 ) ;
#52 = DIRECTION ( 'NONE',  ( 1.000000000000000000, 0.000000000000000000, 0.000000000000000000 ) ) ;
#53 = ORIENTED_EDGE ( 'NONE', *, *, #750, .F. ) ;
#54 = CARTESIAN_POINT ( 'NONE',  ( 19.99999999884494173, 0.000000000000000000, -399970.0000000008149 ) ) ;
#55 = EDGE_CURVE ( 'NONE', #45, #1067, #759, .T. ) ;
#56 = AXIS2_PLACEMENT_3D ( 'NONE', #1270, #324, #227 ) ;
#57 = MECHANICAL_DESIGN_GEOMETRIC_PRESENTATION_REPRESENTATION (  '', ( #383 ), #930 ) ;
#58 = AXIS2_PLACEMENT_3D ( 'NONE', #732, #122, #527 ) ;
#59 = VECTOR ( 'NONE', #1248, 1000.000000000000000 ) ;
#60 = AXIS2_PLACEMENT_3D ( 'NONE', #525, #311, #757 ) ;
#61 = CARTESIAN_POINT ( 'NONE',  ( 291577.0000000000000, 30.00000000000000000, 9.500000000002732037 ) ) ;
#62 = ORIENTED_EDGE ( 'NONE', *, *, #1241, .T. ) ;
#63 = CARTESIAN_POINT ( 'NONE',  ( -1.454218689911357387E-11, 32.00000000000000000, 0.000000000000000000 ) ) ;
#64 = CARTESIAN_POINT ( 'NONE',  ( -17.00000000000347811, 12.00000000000000000, 4.999999999981849186 ) ) ;
#65 =( NAMED_UNIT ( * ) SI_UNIT ( $, .STERADIAN. ) SOLID_ANGLE_UNIT ( ) );
#66 = PLANE ( 'NONE',  #240 ) ;
#67 = ORIENTED_EDGE ( 'NONE', *, *, #784, .F. ) ;
#68 = FACE_BOUND ( 'NONE', #503, .T. ) ;
#69 = EDGE_LOOP ( 'NONE', ( #584, #267, #230, #706 ) ) ;
#70 = ADVANCED_FACE ( 'NONE', ( #1072 ), #526, .T. ) ;
#71 = ADVANCED_FACE ( 'NONE', ( #1250, #870 ), #540, .T. ) ;
#72 = DIRECTION ( 'NONE',  ( 1.000000000000000000, 1.972152263052529514E-31, 0.000000000000000000 ) ) ;
#73 = VERTEX_POINT ( 'NONE', #222 ) ;
#74 = CARTESIAN_POINT ( 'NONE',  ( -9.000000000003481659, 15.00000000000000000, 3.469446951953614189E-15 ) ) ;
#75 = ORIENTED_EDGE ( 'NONE', *, *, #341, .T. ) ;
#76 = VECTOR ( 'NONE', #19, 1000.000000000000000 ) ;
#77 = VECTOR ( 'NONE', #183, 1000.000000000000000 ) ;
#78 = CARTESIAN_POINT ( 'NONE',  ( 16.44999999999090790, 18.00000000000000000, 5.250000000020460078 ) ) ;
#79 = EDGE_CURVE ( 'NONE', #215, #360, #638, .T. ) ;
#80 = VECTOR ( 'NONE', #780, 1000.000000000000000 ) ;
#81 = EDGE_LOOP ( 'NONE', ( #1191, #328, #1201, #480 ) ) ;
#82 = EDGE_LOOP ( 'NONE', ( #1282, #300, #417, #24 ) ) ;
#83 = DIRECTION ( 'NONE',  ( 1.972152263052529514E-31, -1.000000000000000000, 0.000000000000000000 ) ) ;
#84 = ORIENTED_EDGE ( 'NONE', *, *, #620, .F. ) ;
#85 = EDGE_CURVE ( 'NONE', #1048, #832, #1232, .T. ) ;
#86 = CARTESIAN_POINT ( 'NONE',  ( 14.99999999999090861, 30.00000000000000000, 5.250000000020460078 ) ) ;
#87 = EDGE_LOOP ( 'NONE', ( #475, #1031, #415, #1037 ) ) ;
#88 = CARTESIAN_POINT ( 'NONE',  ( -15.55000000000347704, 12.00000000000000000, 4.999999999981849186 ) ) ;
#89 = VERTEX_POINT ( 'NONE', #646 ) ;
#90 = CARTESIAN_POINT ( 'NONE',  ( -9.000000000003481659, 15.00000000000000000, 22.91640786500147087 ) ) ;
#91 = DIRECTION ( 'NONE',  ( 1.000000000000000000, 0.000000000000000000, 0.000000000000000000 ) ) ;
#92 = DIRECTION ( 'NONE',  ( 8.163404592832033966E-16, 0.000000000000000000, 1.000000000000000000 ) ) ;
#93 = AXIS2_PLACEMENT_3D ( 'NONE', #1273, #763, #52 ) ;
#94 =( GEOMETRIC_REPRESENTATION_CONTEXT ( 3 ) GLOBAL_UNCERTAINTY_ASSIGNED_CONTEXT ( ( #1283 ) ) GLOBAL_UNIT_ASSIGNED_CONTEXT ( ( #776, #458, #65 ) ) REPRESENTATION_CONTEXT ( 'NONE', 'WORKASPACE' ) );
#95 = ORIENTED_EDGE ( 'NONE', *, *, #1029, .F. ) ;
#96 = CYLINDRICAL_SURFACE ( 'NONE', #1280, 1.449999999999999956 ) ;
#97 = DIRECTION ( 'NONE',  ( -1.000000000000000000, 0.000000000000000000, 0.000000000000000000 ) ) ;
#98 = PRODUCT_DEFINITION ( 'UNKNOWN', '', #119, #1131 ) ;
#99 = EDGE_CURVE ( 'NONE', #184, #360, #955, .T. ) ;
#100 = CYLINDRICAL_SURFACE ( 'NONE', #431, 1.449999999999999956 ) ;
#101 = VERTEX_POINT ( 'NONE', #333 ) ;
#102 = LINE ( 'NONE', #695, #512 ) ;
#103 = DIRECTION ( 'NONE',  ( -1.000000000000000000, -1.972152263052529514E-31, 0.000000000000000000 ) ) ;
#104 = EDGE_CURVE ( 'NONE', #801, #599, #752, .T. ) ;
#105 = LINE ( 'NONE', #6, #1126 ) ;
#106 = CARTESIAN_POINT ( 'NONE',  ( 14.99999999999090861, 18.00000000000000000, 5.250000000020460078 ) ) ;
#107 = EDGE_CURVE ( 'NONE', #114, #1088, #652, .T. ) ;
#108 = EDGE_LOOP ( 'NONE', ( #444, #437 ) ) ;
#109 = CARTESIAN_POINT ( 'NONE',  ( -9.000000000003481659, 15.00000000000000000, 6.000000000002708056 ) ) ;
#110 = DIRECTION ( 'NONE',  ( 0.000000000000000000, -1.000000000000000000, 0.000000000000000000 ) ) ;
#111 = ORIENTED_EDGE ( 'NONE', *, *, #426, .F. ) ;
#112 = CARTESIAN_POINT ( 'NONE',  ( 19.99999999998773248, 32.00000000000000000, 1.500000000000001332 ) ) ;
#113 = CYLINDRICAL_SURFACE ( 'NONE', #1003, 1.449999999999999956 ) ;
#114 = VERTEX_POINT ( 'NONE', #607 ) ;
#115 = VECTOR ( 'NONE', #1204, 1000.000000000000000 ) ;
#116 = COLOUR_RGB ( '',0.7921568627450980005, 0.8196078431372548767, 0.9333333333333333481 ) ;
#117 = ORIENTED_EDGE ( 'NONE', *, *, #1063, .F. ) ;
#118 = CARTESIAN_POINT ( 'NONE',  ( 9.999999999990905053, 32.00000000000000000, 40.00000000002046363 ) ) ;
#119 = PRODUCT_DEFINITION_FORMATION_WITH_SPECIFIED_SOURCE ( 'ANY', '', #1289, .NOT_KNOWN. ) ;
#120 = VECTOR ( 'NONE', #1186, 1000.000000000000000 ) ;
#121 = DIRECTION ( 'NONE',  ( -1.000000000000000000, 0.000000000000000000, 0.000000000000000000 ) ) ;
#122 = DIRECTION ( 'NONE',  ( 1.972152263052529514E-31, -1.000000000000000000, 0.000000000000000000 ) ) ;
#123 = DIRECTION ( 'NONE',  ( -1.000000000000000000, 0.000000000000000000, 0.000000000000000000 ) ) ;
#124 = ORIENTED_EDGE ( 'NONE', *, *, #99, .T. ) ;
#125 = DIRECTION ( 'NONE',  ( 0.000000000000000000, 0.000000000000000000, -1.000000000000000000 ) ) ;
#126 = EDGE_CURVE ( 'NONE', #599, #1090, #1087, .T. ) ;
#127 = CARTESIAN_POINT ( 'NONE',  ( 16.44999999999090079, 12.00000000000000000, 5.000000000020425439 ) ) ;
#128 = DIRECTION ( 'NONE',  ( -1.084202172485502462E-16, -1.000000000000000000, -0.000000000000000000 ) ) ;
#129 = CYLINDRICAL_SURFACE ( 'NONE', #1086, 1.449999999999999956 ) ;
#130 = EDGE_LOOP ( 'NONE', ( #1292, #40, #1294, #1075, #711, #565 ) ) ;
#131 = DIRECTION ( 'NONE',  ( -1.000000000000000000, 0.000000000000000000, 0.000000000000000000 ) ) ;
#132 = DIRECTION ( 'NONE',  ( 1.000000000000000000, 0.000000000000000000, 0.000000000000000000 ) ) ;
#133 = EDGE_CURVE ( 'NONE', #372, #396, #723, .T. ) ;
#134 = DIRECTION ( 'NONE',  ( 0.9191450300173669152, -9.965390383740815671E-17, 0.3939192985807799530 ) ) ;
#135 = DIRECTION ( 'NONE',  ( 1.000000000000000000, 0.000000000000000000, 0.000000000000000000 ) ) ;
#136 = ORIENTED_EDGE ( 'NONE', *, *, #507, .F. ) ;
#137 = FACE_OUTER_BOUND ( 'NONE', #320, .T. ) ;
#138 = UNCERTAINTY_MEASURE_WITH_UNIT (LENGTH_MEASURE( 1.000000000000000082E-05 ), #595, 'distance_accuracy_value', 'NONE');
#139 = DIRECTION ( 'NONE',  ( 1.000000000000000000, 0.000000000000000000, 0.000000000000000000 ) ) ;
#140 = ORIENTED_EDGE ( 'NONE', *, *, #524, .F. ) ;
#141 = VECTOR ( 'NONE', #705, 1000.000000000000114 ) ;
#142 = AXIS2_PLACEMENT_3D ( 'NONE', #1045, #958, #504 ) ;
#143 = CARTESIAN_POINT ( 'NONE',  ( -5.550000000003477929, 12.00000000000000000, 4.999999999981820764 ) ) ;
#144 = PRODUCT_RELATED_PRODUCT_CATEGORY ( 'part', '', ( #1289 ) ) ;
#145 = ADVANCED_FACE ( 'NONE', ( #317 ), #1050, .T. ) ;
#146 = LINE ( 'NONE', #863, #516 ) ;
#147 = ORIENTED_EDGE ( 'NONE', *, *, #1302, .F. ) ;
#148 = DIRECTION ( 'NONE',  ( 0.000000000000000000, 1.000000000000000000, 0.000000000000000000 ) ) ;
#149 = VERTEX_POINT ( 'NONE', #1223 ) ;
#150 = ORIENTED_EDGE ( 'NONE', *, *, #567, .T. ) ;
#151 = CARTESIAN_POINT ( 'NONE',  ( -14.99999999998938627, 3.000000000000002665, 3.469446951953614189E-15 ) ) ;
#152 = DIRECTION ( 'NONE',  ( 0.000000000000000000, 1.000000000000000000, 0.000000000000000000 ) ) ;
#153 = CARTESIAN_POINT ( 'NONE',  ( -17.00000000000347811, 12.00000000000000000, 4.999999999981849186 ) ) ;
#154 = EDGE_CURVE ( 'NONE', #390, #355, #908, .T. ) ;
#155 = CARTESIAN_POINT ( 'NONE',  ( 6.449999999990908783, 18.00000000000000000, 5.250000000020460078 ) ) ;
#156 = EDGE_CURVE ( 'NONE', #1152, #1318, #916, .T. ) ;
#157 = ORIENTED_EDGE ( 'NONE', *, *, #1312, .F. ) ;
#158 = PLANE ( 'NONE',  #1041 ) ;
#159 = CYLINDRICAL_SURFACE ( 'NONE', #403, 1.449999999999999956 ) ;
#160 = EDGE_LOOP ( 'NONE', ( #568, #1006 ) ) ;
#161 = CARTESIAN_POINT ( 'NONE',  ( -17.00000000000348521, 18.00000000000000000, 6.149999999981810461 ) ) ;
#162 = CIRCLE ( 'NONE', #216, 1.449999999999999956 ) ;
#163 = DIRECTION ( 'NONE',  ( 0.000000000000000000, 0.000000000000000000, -1.000000000000000000 ) ) ;
#164 = AXIS2_PLACEMENT_3D ( 'NONE', #934, #966, #988 ) ;
#165 = CARTESIAN_POINT ( 'NONE',  ( -21.99999999999438671, 32.00000000000000000, 2.000000000000005329 ) ) ;
#166 = ORIENTED_EDGE ( 'NONE', *, *, #683, .T. ) ;
#167 = DIRECTION ( 'NONE',  ( -1.084202172485502462E-16, -1.000000000000000000, -0.000000000000000000 ) ) ;
#168 = ADVANCED_FACE ( 'NONE', ( #186, #600, #202 ), #590, .T. ) ;
#169 = EDGE_LOOP ( 'NONE', ( #171, #1194, #270, #572 ) ) ;
#170 = DIRECTION ( 'NONE',  ( 1.972152263052529514E-31, -1.000000000000000000, 0.000000000000000000 ) ) ;
#171 = ORIENTED_EDGE ( 'NONE', *, *, #1164, .T. ) ;
#172 = LINE ( 'NONE', #50, #979 ) ;
#173 = ORIENTED_EDGE ( 'NONE', *, *, #858, .F. ) ;
#174 = EDGE_CURVE ( 'NONE', #859, #260, #631, .T. ) ;
#175 = DIRECTION ( 'NONE',  ( 0.000000000000000000, 0.000000000000000000, 1.000000000000000000 ) ) ;
#176 = ORIENTED_EDGE ( 'NONE', *, *, #664, .T. ) ;
#177 = DIRECTION ( 'NONE',  ( 1.972152263052529514E-31, -1.000000000000000000, 0.000000000000000000 ) ) ;
#178 = VECTOR ( 'NONE', #1287, 1000.000000000000000 ) ;
#179 = ORIENTED_EDGE ( 'NONE', *, *, #31, .F. ) ;
#180 = EDGE_CURVE ( 'NONE', #876, #756, #812, .T. ) ;
#181 = CIRCLE ( 'NONE', #142, 1.449999999999999956 ) ;
#182 = VECTOR ( 'NONE', #103, 1000.000000000000000 ) ;
#183 = DIRECTION ( 'NONE',  ( 0.000000000000000000, -0.000000000000000000, -1.000000000000000000 ) ) ;
#184 = VERTEX_POINT ( 'NONE', #1217 ) ;
#185 = PRESENTATION_STYLE_ASSIGNMENT (( #1106 ) ) ;
#186 = FACE_BOUND ( 'NONE', #676, .T. ) ;
#187 = EDGE_LOOP ( 'NONE', ( #659, #644, #297, #1112, #201, #176 ) ) ;
#188 = CARTESIAN_POINT ( 'NONE',  ( -291579.0000000000000, 0.000000000000000000, 0.000000000000000000 ) ) ;
#189 = ORIENTED_EDGE ( 'NONE', *, *, #1054, .F. ) ;
#190 = CARTESIAN_POINT ( 'NONE',  ( -9.000000000003481659, 15.00000000000000000, 22.91640786500147087 ) ) ;
#191 = CARTESIAN_POINT ( 'NONE',  ( -8.450000000003477396, 12.00000000000000000, 4.999999999981820764 ) ) ;
#192 = FACE_OUTER_BOUND ( 'NONE', #976, .T. ) ;
#193 = EDGE_LOOP ( 'NONE', ( #357, #1155, #26, #793 ) ) ;
#194 = DIRECTION ( 'NONE',  ( 1.000000000000000000, 1.972152263052529514E-31, 0.000000000000000000 ) ) ;
#195 = EDGE_CURVE ( 'NONE', #1090, #599, #1211, .T. ) ;
#196 = PLANE ( 'NONE',  #15 ) ;
#197 = ORIENTED_EDGE ( 'NONE', *, *, #1024, .T. ) ;
#198 = DIRECTION ( 'NONE',  ( 1.084202172485502462E-16, 1.000000000000000000, 0.000000000000000000 ) ) ;
#199 = VECTOR ( 'NONE', #175, 1000.000000000000000 ) ;
#200 = VECTOR ( 'NONE', #515, 1000.000000000000000 ) ;
#201 = ORIENTED_EDGE ( 'NONE', *, *, #911, .F. ) ;
#202 = FACE_OUTER_BOUND ( 'NONE', #1001, .T. ) ;
#203 = EDGE_CURVE ( 'NONE', #834, #885, #348, .T. ) ;
#204 = EDGE_CURVE ( 'NONE', #101, #1220, #1108, .T. ) ;
#205 = DIRECTION ( 'NONE',  ( -2.857191607491211592E-15, 0.000000000000000000, -1.000000000000000000 ) ) ;
#206 = EDGE_LOOP ( 'NONE', ( #1110, #779, #428, #765, #727, #636 ) ) ;
#207 = DIRECTION ( 'NONE',  ( 0.000000000000000000, 1.000000000000000000, 0.000000000000000000 ) ) ;
#208 = CARTESIAN_POINT ( 'NONE',  ( -2.000000000751539275, 30.00000000000000000, 400029.9999999994761 ) ) ;
#209 = CARTESIAN_POINT ( 'NONE',  ( -21.99999999999438671, 30.00000000000000000, 9.500000000002732037 ) ) ;
#210 = VERTEX_POINT ( 'NONE', #596 ) ;
#211 = CARTESIAN_POINT ( 'NONE',  ( 4.999999999990909494, 30.00000000000000000, 5.250000000020460078 ) ) ;
#212 = CARTESIAN_POINT ( 'NONE',  ( 19.99999999998773248, 0.000000000000000000, 0.000000000000000000 ) ) ;
#213 = LINE ( 'NONE', #229, #454 ) ;
#214 = EDGE_CURVE ( 'NONE', #537, #73, #1279, .T. ) ;
#215 = VERTEX_POINT ( 'NONE', #486 ) ;
#216 = AXIS2_PLACEMENT_3D ( 'NONE', #211, #1156, #645 ) ;
#217 = DIRECTION ( 'NONE',  ( 0.000000000000000000, 1.000000000000000000, 0.000000000000000000 ) ) ;
#218 = DIRECTION ( 'NONE',  ( 1.000000000000000000, 0.000000000000000000, 0.000000000000000000 ) ) ;
#219 = VECTOR ( 'NONE', #318, 1000.000000000000000 ) ;
#220 = AXIS2_PLACEMENT_3D ( 'NONE', #208, #615, #1242 ) ;
#221 = AXIS2_PLACEMENT_3D ( 'NONE', #316, #736, #218 ) ;
#222 = CARTESIAN_POINT ( 'NONE',  ( -15.55000000000348415, 18.00000000000000000, 6.149999999981810461 ) ) ;
#223 = LINE ( 'NONE', #402, #491 ) ;
#224 = CARTESIAN_POINT ( 'NONE',  ( 3.549999999990909316, 18.00000000000000000, 5.250000000020460078 ) ) ;
#225 = ORIENTED_EDGE ( 'NONE', *, *, #1054, .T. ) ;
#226 = LINE ( 'NONE', #642, #429 ) ;
#227 = DIRECTION ( 'NONE',  ( 1.000000000000000000, 0.000000000000000000, 0.000000000000000000 ) ) ;
#228 = CARTESIAN_POINT ( 'NONE',  ( -9.000000000003481659, 3.000000000000000000, 3.469446951953614189E-15 ) ) ;
#229 = CARTESIAN_POINT ( 'NONE',  ( -9.000000000003481659, 15.00000000000000000, 6.000000000002708056 ) ) ;
#230 = ORIENTED_EDGE ( 'NONE', *, *, #85, .T. ) ;
#231 = DIRECTION ( 'NONE',  ( 1.084202172485502462E-16, 1.000000000000000000, 0.000000000000000000 ) ) ;
#232 = ORIENTED_EDGE ( 'NONE', *, *, #288, .T. ) ;
#233 = DIRECTION ( 'NONE',  ( 1.000000000000000000, 0.000000000000000000, 0.000000000000000000 ) ) ;
#234 = EDGE_CURVE ( 'NONE', #289, #1152, #511, .T. ) ;
#235 = DIRECTION ( 'NONE',  ( 0.000000000000000000, -1.000000000000000000, -0.000000000000000000 ) ) ;
#236 = CARTESIAN_POINT ( 'NONE',  ( -7.000000000003477219, 12.00000000000000000, 4.999999999981820764 ) ) ;
#237 = EDGE_LOOP ( 'NONE', ( #853, #5, #819, #857 ) ) ;
#238 = LINE ( 'NONE', #155, #562 ) ;
#239 = CARTESIAN_POINT ( 'NONE',  ( 4.999999999990902388, 12.00000000000000000, 5.000000000020452973 ) ) ;
#240 = AXIS2_PLACEMENT_3D ( 'NONE', #165, #1297, #558 ) ;
#241 = AXIS2_PLACEMENT_3D ( 'NONE', #726, #298, #205 ) ;
#242 = VECTOR ( 'NONE', #1051, 1000.000000000000000 ) ;
#243 = EDGE_CURVE ( 'NONE', #272, #260, #102, .T. ) ;
#244 = AXIS2_PLACEMENT_3D ( 'NONE', #43, #1263, #1163 ) ;
#245 = ADVANCED_FACE ( 'NONE', ( #380 ), #196, .T. ) ;
#246 = DIRECTION ( 'NONE',  ( 1.000000000000000000, 1.972152263052529514E-31, 0.000000000000000000 ) ) ;
#247 = ORIENTED_EDGE ( 'NONE', *, *, #1161, .F. ) ;
#248 = PLANE ( 'NONE',  #580 ) ;
#249 = DIRECTION ( 'NONE',  ( -1.000000000000000000, -1.972152263052529514E-31, 0.000000000000000000 ) ) ;
#250 = APPLICATION_PROTOCOL_DEFINITION ( 'draft international standard', 'automotive_design', 1998, #1215 ) ;
#251 = FACE_BOUND ( 'NONE', #160, .T. ) ;
#252 = EDGE_LOOP ( 'NONE', ( #905, #611, #961, #881 ) ) ;
#253 = FACE_OUTER_BOUND ( 'NONE', #538, .T. ) ;
#254 = LINE ( 'NONE', #358, #807 ) ;
#255 = PRODUCT_CONTEXT ( 'NONE', #29, 'mechanical' ) ;
#256 = CARTESIAN_POINT ( 'NONE',  ( 19.99999999884494173, 30.00000000000000000, -399970.0000000008149 ) ) ;
#257 = EDGE_LOOP ( 'NONE', ( #336, #952 ) ) ;
#258 = DIRECTION ( 'NONE',  ( 1.972152263052529514E-31, -1.000000000000000000, 0.000000000000000000 ) ) ;
#259 = AXIS2_PLACEMENT_3D ( 'NONE', #90, #823, #1310 ) ;
#260 = VERTEX_POINT ( 'NONE', #606 ) ;
#261 = CARTESIAN_POINT ( 'NONE',  ( -21.99999999999438671, -4.338734978713022974E-30, 9.500000000002732037 ) ) ;
#262 = LINE ( 'NONE', #994, #1083 ) ;
#263 = ORIENTED_EDGE ( 'NONE', *, *, #836, .T. ) ;
#264 = CYLINDRICAL_SURFACE ( 'NONE', #1109, 1.449999999999999956 ) ;
#265 = ORIENTED_EDGE ( 'NONE', *, *, #104, .T. ) ;
#266 = PLANE ( 'NONE',  #514 ) ;
#267 = ORIENTED_EDGE ( 'NONE', *, *, #998, .T. ) ;
#268 = CARTESIAN_POINT ( 'NONE',  ( -7.000000000003484324, 30.00000000000000000, 6.149999999981810461 ) ) ;
#269 = EDGE_CURVE ( 'NONE', #984, #1139, #921, .T. ) ;
#270 = ORIENTED_EDGE ( 'NONE', *, *, #858, .T. ) ;
#271 = CARTESIAN_POINT ( 'NONE',  ( -21.99999999999438671, 32.00000000000000000, 3.469446951953614189E-15 ) ) ;
#272 = VERTEX_POINT ( 'NONE', #303 ) ;
#273 = DIRECTION ( 'NONE',  ( 0.3939192985807799530, 7.768688361561502617E-32, -0.9191450300173669152 ) ) ;
#274 = CARTESIAN_POINT ( 'NONE',  ( -2.000000000021092461, 30.00000000000000000, 9.500000000002732037 ) ) ;
#275 = CIRCLE ( 'NONE', #450, 1.449999999999999956 ) ;
#276 = EDGE_LOOP ( 'NONE', ( #925, #935, #1185, #393 ) ) ;
#277 = EDGE_CURVE ( 'NONE', #748, #650, #496, .T. ) ;
#278 = COLOUR_RGB ( '',0.7921568627450980005, 0.8196078431372548767, 0.9333333333333333481 ) ;
#279 = ADVANCED_FACE ( 'NONE', ( #1125 ), #721, .F. ) ;
#280 = AXIS2_PLACEMENT_3D ( 'NONE', #1019, #1007, #577 ) ;
#281 = AXIS2_PLACEMENT_3D ( 'NONE', #296, #1027, #1321 ) ;
#282 = DIRECTION ( 'NONE',  ( -1.972152263052529514E-31, 1.000000000000000000, 0.000000000000000000 ) ) ;
#283 = VECTOR ( 'NONE', #1182, 1000.000000000000000 ) ;
#284 = EDGE_LOOP ( 'NONE', ( #529, #1177, #331, #899 ) ) ;
#285 = SURFACE_SIDE_STYLE ('',( #481 ) ) ;
#286 = CARTESIAN_POINT ( 'NONE',  ( -21.99999999999438671, 30.00000000000000000, 9.500000000002732037 ) ) ;
#287 = DIRECTION ( 'NONE',  ( 1.000000000000000000, 1.972152263052529514E-31, -1.734723475979122155E-16 ) ) ;
#288 = EDGE_CURVE ( 'NONE', #210, #813, #375, .T. ) ;
#289 = VERTEX_POINT ( 'NONE', #274 ) ;
#290 =( LENGTH_UNIT ( ) NAMED_UNIT ( * ) SI_UNIT ( .MILLI., .METRE. ) );
#291 = DIRECTION ( 'NONE',  ( 1.972152263052529514E-31, -1.000000000000000000, 0.000000000000000000 ) ) ;
#292 = DIRECTION ( 'NONE',  ( -1.000000000000000000, 0.000000000000000000, 0.000000000000000000 ) ) ;
#293 = ORIENTED_EDGE ( 'NONE', *, *, #269, .T. ) ;
#294 = EDGE_CURVE ( 'NONE', #149, #45, #27, .T. ) ;
#295 = PLANE ( 'NONE',  #381 ) ;
#296 = CARTESIAN_POINT ( 'NONE',  ( 9.999999999990905053, 0.000000000000000000, 40.00000000002046363 ) ) ;
#297 = ORIENTED_EDGE ( 'NONE', *, *, #1102, .T. ) ;
#298 = DIRECTION ( 'NONE',  ( 1.000000000000000000, 0.000000000000000000, -2.857191607491211592E-15 ) ) ;
#299 = VECTOR ( 'NONE', #329, 1000.000000000000000 ) ;
#300 = ORIENTED_EDGE ( 'NONE', *, *, #1061, .T. ) ;
#301 =( NAMED_UNIT ( * ) SI_UNIT ( $, .STERADIAN. ) SOLID_ANGLE_UNIT ( ) );
#302 = VECTOR ( 'NONE', #766, 1000.000000000000000 ) ;
#303 = CARTESIAN_POINT ( 'NONE',  ( 13.54999999999090932, 18.00000000000000000, 5.250000000020460078 ) ) ;
#304 = DIRECTION ( 'NONE',  ( 1.000000000000000000, 0.000000000000000000, 0.000000000000000000 ) ) ;
#305 = ORIENTED_EDGE ( 'NONE', *, *, #374, .T. ) ;
#306 = CARTESIAN_POINT ( 'NONE',  ( 19.99999999998773248, 30.00000000000000000, 0.000000000000000000 ) ) ;
#307 = DIRECTION ( 'NONE',  ( -1.972152263052529514E-31, 1.000000000000000000, 0.000000000000000000 ) ) ;
#308 = EDGE_LOOP ( 'NONE', ( #724, #685, #821, #197 ) ) ;
#309 = DIRECTION ( 'NONE',  ( 1.084202172485502462E-16, 1.000000000000000000, 0.000000000000000000 ) ) ;
#310 = ORIENTED_EDGE ( 'NONE', *, *, #1229, .T. ) ;
#311 = DIRECTION ( 'NONE',  ( -1.972152263052529514E-31, 1.000000000000000000, 0.000000000000000000 ) ) ;
#312 = ORIENTED_EDGE ( 'NONE', *, *, #294, .T. ) ;
#313 = ADVANCED_FACE ( 'NONE', ( #954 ), #1059, .F. ) ;
#314 = PLANE ( 'NONE',  #469 ) ;
#315 = EDGE_LOOP ( 'NONE', ( #189, #366, #522, #157, #140, #263 ) ) ;
#316 = CARTESIAN_POINT ( 'NONE',  ( -17.00000000000348521, 30.00000000000000000, 6.149999999981810461 ) ) ;
#317 = FACE_OUTER_BOUND ( 'NONE', #206, .T. ) ;
#318 = DIRECTION ( 'NONE',  ( 0.000000000000000000, -1.000000000000000000, -0.000000000000000000 ) ) ;
#319 = FACE_OUTER_BOUND ( 'NONE', #42, .T. ) ;
#320 = EDGE_LOOP ( 'NONE', ( #28, #53, #232, #1205 ) ) ;
#321 = VECTOR ( 'NONE', #1184, 1000.000000000000000 ) ;
#322 = CARTESIAN_POINT ( 'NONE',  ( -291579.0000000000000, 30.00000000000000000, 8.500000000026375346 ) ) ;
#323 = AXIS2_PLACEMENT_3D ( 'NONE', #549, #772, #975 ) ;
#324 = DIRECTION ( 'NONE',  ( -1.972152263052529514E-31, 1.000000000000000000, 0.000000000000000000 ) ) ;
#325 = CIRCLE ( 'NONE', #583, 1.449999999999999956 ) ;
#326 = DIRECTION ( 'NONE',  ( 1.972152263052529514E-31, -1.000000000000000000, 0.000000000000000000 ) ) ;
#327 = LINE ( 'NONE', #639, #1023 ) ;
#328 = ORIENTED_EDGE ( 'NONE', *, *, #824, .T. ) ;
#329 = DIRECTION ( 'NONE',  ( -1.972152263052529514E-31, 1.000000000000000000, 0.000000000000000000 ) ) ;
#330 = EDGE_CURVE ( 'NONE', #548, #149, #661, .T. ) ;
#331 = ORIENTED_EDGE ( 'NONE', *, *, #1036, .T. ) ;
#332 = DIRECTION ( 'NONE',  ( 1.972152263052529514E-31, -1.000000000000000000, 0.000000000000000000 ) ) ;
#333 = CARTESIAN_POINT ( 'NONE',  ( 13.54999999999090221, 12.00000000000000000, 5.000000000020425439 ) ) ;
#334 = DIRECTION ( 'NONE',  ( 0.000000000000000000, -1.000000000000000000, -0.000000000000000000 ) ) ;
#335 = CARTESIAN_POINT ( 'NONE',  ( -7.000000000003477219, 12.00000000000000000, 4.999999999981820764 ) ) ;
#336 = ORIENTED_EDGE ( 'NONE', *, *, #374, .F. ) ;
#337 = CARTESIAN_POINT ( 'NONE',  ( -8.450000000003484502, 18.00000000000000000, 6.149999999981810461 ) ) ;
#338 = ADVANCED_FACE ( 'NONE', ( #744 ), #1049, .F. ) ;
#339 = ORIENTED_EDGE ( 'NONE', *, *, #1061, .F. ) ;
#340 = CARTESIAN_POINT ( 'NONE',  ( -17.00000000000347811, -3.352658847188551179E-30, 4.999999999981849186 ) ) ;
#341 = EDGE_CURVE ( 'NONE', #1260, #876, #699, .T. ) ;
#342 = DIRECTION ( 'NONE',  ( 1.972152263052529514E-31, -1.000000000000000000, 0.000000000000000000 ) ) ;
#343 = CARTESIAN_POINT ( 'NONE',  ( 4.999999999990909494, 18.00000000000000000, 5.250000000020460078 ) ) ;
#344 = ORIENTED_EDGE ( 'NONE', *, *, #79, .F. ) ;
#345 = FACE_OUTER_BOUND ( 'NONE', #252, .T. ) ;
#346 = CIRCLE ( 'NONE', #1172, 1.449999999999999956 ) ;
#347 = AXIS2_PLACEMENT_3D ( 'NONE', #236, #653, #978 ) ;
#348 = CIRCLE ( 'NONE', #741, 1.449999999999999956 ) ;
#349 = AXIS2_PLACEMENT_3D ( 'NONE', #682, #258, #561 ) ;
#350 = FACE_BOUND ( 'NONE', #1080, .T. ) ;
#351 = VERTEX_POINT ( 'NONE', #1040 ) ;
#352 = DIRECTION ( 'NONE',  ( -1.972152263052529514E-31, 1.000000000000000000, 0.000000000000000000 ) ) ;
#353 = ADVANCED_FACE ( 'NONE', ( #964 ), #531, .T. ) ;
#354 = LINE ( 'NONE', #783, #1084 ) ;
#355 = VERTEX_POINT ( 'NONE', #424 ) ;
#356 = PLANE ( 'NONE',  #1066 ) ;
#357 = ORIENTED_EDGE ( 'NONE', *, *, #555, .T. ) ;
#358 = CARTESIAN_POINT ( 'NONE',  ( 13.54999999999090221, 12.00000000000000000, 5.000000000020425439 ) ) ;
#359 = CARTESIAN_POINT ( 'NONE',  ( -1.454218689911357387E-11, 30.00000000000000000, 8.500000000026375346 ) ) ;
#360 = VERTEX_POINT ( 'NONE', #151 ) ;
#361 = DIRECTION ( 'NONE',  ( -1.972152263052529514E-31, 1.000000000000000000, 0.000000000000000000 ) ) ;
#362 = VECTOR ( 'NONE', #809, 1000.000000000000000 ) ;
#363 = ORIENTED_EDGE ( 'NONE', *, *, #739, .T. ) ;
#364 = AXIS2_PLACEMENT_3D ( 'NONE', #1213, #152, #768 ) ;
#365 = DIRECTION ( 'NONE',  ( 0.000000000000000000, -0.000000000000000000, 1.000000000000000000 ) ) ;
#366 = ORIENTED_EDGE ( 'NONE', *, *, #643, .F. ) ;
#367 = EDGE_CURVE ( 'NONE', #885, #834, #162, .T. ) ;
#368 = ADVANCED_FACE ( 'NONE', ( #624 ), #848, .T. ) ;
#369 = PLANE ( 'NONE',  #349 ) ;
#370 = ORIENTED_EDGE ( 'NONE', *, *, #1192, .F. ) ;
#371 = CARTESIAN_POINT ( 'NONE',  ( -16.50000000001075762, 15.00000000000000000, 9.500000000002732037 ) ) ;
#372 = VERTEX_POINT ( 'NONE', #861 ) ;
#373 = DIRECTION ( 'NONE',  ( 1.000000000000000000, 0.000000000000000000, 0.000000000000000000 ) ) ;
#374 = EDGE_CURVE ( 'NONE', #398, #756, #1233, .T. ) ;
#375 = LINE ( 'NONE', #799, #115 ) ;
#376 = ADVANCED_FACE ( 'NONE', ( #751 ), #651, .T. ) ;
#377 = VERTEX_POINT ( 'NONE', #412 ) ;
#378 = LINE ( 'NONE', #1322, #141 ) ;
#379 = ORIENTED_EDGE ( 'NONE', *, *, #126, .F. ) ;
#380 = FACE_OUTER_BOUND ( 'NONE', #891, .T. ) ;
#381 = AXIS2_PLACEMENT_3D ( 'NONE', #190, #399, #194 ) ;
#382 = LINE ( 'NONE', #1120, #470 ) ;
#383 = STYLED_ITEM ( 'NONE', ( #185 ), #616 ) ;
#384 = VECTOR ( 'NONE', #844, 1000.000000000000000 ) ;
#385 = VECTOR ( 'NONE', #291, 1000.000000000000000 ) ;
#386 = LINE ( 'NONE', #188, #362 ) ;
#387 = AXIS2_PLACEMENT_3D ( 'NONE', #835, #1240, #132 ) ;
#388 = EDGE_LOOP ( 'NONE', ( #471, #423, #1105, #518, #370, #150 ) ) ;
#389 = DIRECTION ( 'NONE',  ( -1.000000000000000000, 0.000000000000000000, 0.000000000000000000 ) ) ;
#390 = VERTEX_POINT ( 'NONE', #1254 ) ;
#391 = EDGE_CURVE ( 'NONE', #801, #463, #761, .T. ) ;
#392 = CYLINDRICAL_SURFACE ( 'NONE', #956, 1.449999999999999956 ) ;
#393 = ORIENTED_EDGE ( 'NONE', *, *, #154, .F. ) ;
#394 = DIRECTION ( 'NONE',  ( 1.972152263052529514E-31, -1.000000000000000000, 0.000000000000000000 ) ) ;
#395 = DIRECTION ( 'NONE',  ( 0.000000000000000000, -1.000000000000000000, 0.000000000000000000 ) ) ;
#396 = VERTEX_POINT ( 'NONE', #730 ) ;
#397 = DIRECTION ( 'NONE',  ( -8.163404592832032979E-16, 0.000000000000000000, -1.000000000000000000 ) ) ;
#398 = VERTEX_POINT ( 'NONE', #1053 ) ;
#399 = DIRECTION ( 'NONE',  ( -1.972152263052529514E-31, 1.000000000000000000, 0.000000000000000000 ) ) ;
#400 = EDGE_CURVE ( 'NONE', #1181, #89, #1316, .T. ) ;
#401 = CARTESIAN_POINT ( 'NONE',  ( 19.99999999998773248, 32.00000000000000000, 0.000000000000000000 ) ) ;
#402 = CARTESIAN_POINT ( 'NONE',  ( -21.99999999999438671, 30.00000000000000000, 400030.0000000000000 ) ) ;
#403 = AXIS2_PLACEMENT_3D ( 'NONE', #884, #969, #1180 ) ;
#404 = FACE_OUTER_BOUND ( 'NONE', #237, .T. ) ;
#405 = AXIS2_PLACEMENT_3D ( 'NONE', #335, #831, #123 ) ;
#406 = AXIS2_PLACEMENT_3D ( 'NONE', #862, #326, #447 ) ;
#407 = ORIENTED_EDGE ( 'NONE', *, *, #777, .F. ) ;
#408 = DIRECTION ( 'NONE',  ( -1.000000000000000000, 1.084202172485502462E-16, 0.000000000000000000 ) ) ;
#409 = CIRCLE ( 'NONE', #1175, 1.449999999999999956 ) ;
#410 = ADVANCED_FACE ( 'NONE', ( #947 ), #1140, .T. ) ;
#411 = ORIENTED_EDGE ( 'NONE', *, *, #203, .T. ) ;
#412 = CARTESIAN_POINT ( 'NONE',  ( -21.99999999999438671, 30.00000000000000000, 2.000000000009553247 ) ) ;
#413 = ORIENTED_EDGE ( 'NONE', *, *, #2, .F. ) ;
#414 = LINE ( 'NONE', #22, #1043 ) ;
#415 = ORIENTED_EDGE ( 'NONE', *, *, #1029, .T. ) ;
#416 = DIRECTION ( 'NONE',  ( 1.972152263052529514E-31, -1.000000000000000000, 0.000000000000000000 ) ) ;
#417 = ORIENTED_EDGE ( 'NONE', *, *, #1192, .T. ) ;
#418 = CARTESIAN_POINT ( 'NONE',  ( -17.00000000000347811, 12.00000000000000000, 4.999999999981849186 ) ) ;
#419 = CARTESIAN_POINT ( 'NONE',  ( -16.50000000001075762, 15.00000000000000000, 9.500000000002732037 ) ) ;
#420 = DIRECTION ( 'NONE',  ( 1.000000000000000000, 0.000000000000000000, 0.000000000000000000 ) ) ;
#421 = ORIENTED_EDGE ( 'NONE', *, *, #690, .F. ) ;
#422 = DIRECTION ( 'NONE',  ( -1.000000000000000000, 0.000000000000000000, 0.000000000000000000 ) ) ;
#423 = ORIENTED_EDGE ( 'NONE', *, *, #576, .T. ) ;
#424 = CARTESIAN_POINT ( 'NONE',  ( -8.450000000003477396, -1.666468662278638305E-30, 4.999999999981820764 ) ) ;
#425 = DIRECTION ( 'NONE',  ( -1.972152263052529514E-31, 1.000000000000000000, 0.000000000000000000 ) ) ;
#426 = EDGE_CURVE ( 'NONE', #832, #1048, #662, .T. ) ;
#427 = DIRECTION ( 'NONE',  ( 1.084202172485502462E-16, 1.000000000000000000, 0.000000000000000000 ) ) ;
#428 = ORIENTED_EDGE ( 'NONE', *, *, #330, .F. ) ;
#429 = VECTOR ( 'NONE', #536, 1000.000000000000000 ) ;
#430 = PLANE ( 'NONE',  #488 ) ;
#431 = AXIS2_PLACEMENT_3D ( 'NONE', #498, #83, #830 ) ;
#432 = ORIENTED_EDGE ( 'NONE', *, *, #234, .T. ) ;
#433 = DIRECTION ( 'NONE',  ( -1.734723475976808475E-15, -3.421138828918013150E-46, -1.000000000000000000 ) ) ;
#434 = CLOSED_SHELL ( 'NONE', ( #474, #1243, #1008, #1200, #445, #800, #145, #71, #368, #1154, #554, #770, #1171, #70, #758, #477, #313, #464, #547, #376, #594, #601, #541, #725, #1017, #987 ) ) ;
#435 = CARTESIAN_POINT ( 'NONE',  ( -15.00000000000348344, 3.000000000000000000, 22.91640786500147087 ) ) ;
#436 = EDGE_CURVE ( 'NONE', #1220, #89, #637, .T. ) ;
#437 = ORIENTED_EDGE ( 'NONE', *, *, #214, .T. ) ;
#438 = CARTESIAN_POINT ( 'NONE',  ( -9.000000000003481659, 15.00000000000000000, 3.469446951953614189E-15 ) ) ;
#439 = EDGE_CURVE ( 'NONE', #1013, #574, #1275, .T. ) ;
#440 = ORIENTED_EDGE ( 'NONE', *, *, #426, .T. ) ;
#441 = CARTESIAN_POINT ( 'NONE',  ( -2.000000000021075142, 30.00000000000000000, 3.469446951953614189E-15 ) ) ;
#442 = ORIENTED_EDGE ( 'NONE', *, *, #391, .T. ) ;
#443 = DIRECTION ( 'NONE',  ( 1.000000000000000000, 1.972152263052529514E-31, 0.000000000000000000 ) ) ;
#444 = ORIENTED_EDGE ( 'NONE', *, *, #1259, .T. ) ;
#445 = ADVANCED_FACE ( 'NONE', ( #1293, #68, #985 ), #158, .F. ) ;
#446 = CARTESIAN_POINT ( 'NONE',  ( -21.99999999999438671, 32.00000000000000000, 2.000000000000005329 ) ) ;
#447 = DIRECTION ( 'NONE',  ( -1.000000000000000000, -1.972152263052529514E-31, -0.000000000000000000 ) ) ;
#448 = SHAPE_DEFINITION_REPRESENTATION ( #791, #461 ) ;
#449 = LINE ( 'NONE', #1, #849 ) ;
#450 = AXIS2_PLACEMENT_3D ( 'NONE', #268, #973, #1094 ) ;
#451 = ORIENTED_EDGE ( 'NONE', *, *, #664, .F. ) ;
#452 = CARTESIAN_POINT ( 'NONE',  ( -9.000000000003481659, 3.000000000000000000, 22.91640786500147087 ) ) ;
#453 = EDGE_CURVE ( 'NONE', #10, #372, #1301, .T. ) ;
#454 = VECTOR ( 'NONE', #427, 1000.000000000000000 ) ;
#455 = FACE_OUTER_BOUND ( 'NONE', #508, .T. ) ;
#456 = ORIENTED_EDGE ( 'NONE', *, *, #524, .T. ) ;
#457 = FACE_OUTER_BOUND ( 'NONE', #130, .T. ) ;
#458 =( NAMED_UNIT ( * ) PLANE_ANGLE_UNIT ( ) SI_UNIT ( $, .RADIAN. ) );
#459 = LINE ( 'NONE', #256, #1255 ) ;
#460 = EDGE_LOOP ( 'NONE', ( #1129, #147, #1268, #887 ) ) ;
#461 = ADVANCED_BREP_SHAPE_REPRESENTATION ( 'StandardServoHolder', ( #613, #616, #39 ), #94 ) ;
#462 = CARTESIAN_POINT ( 'NONE',  ( -21.99999999999438671, -4.338734978713022974E-30, 400030.0000000000000 ) ) ;
#463 = VERTEX_POINT ( 'NONE', #786 ) ;
#464 = ADVANCED_FACE ( 'NONE', ( #882 ), #248, .T. ) ;
#465 = CARTESIAN_POINT ( 'NONE',  ( 16.44999999999090790, 30.00000000000000000, 5.250000000020460078 ) ) ;
#466 = ORIENTED_EDGE ( 'NONE', *, *, #1164, .F. ) ;
#467 = DIRECTION ( 'NONE',  ( 1.972152263052529514E-31, -1.000000000000000000, 0.000000000000000000 ) ) ;
#468 = PRESENTATION_LAYER_ASSIGNMENT (  '', '', ( #383 ) ) ;
#469 = AXIS2_PLACEMENT_3D ( 'NONE', #1235, #134, #128 ) ;
#470 = VECTOR ( 'NONE', #603, 1000.000000000000000 ) ;
#471 = ORIENTED_EDGE ( 'NONE', *, *, #439, .F. ) ;
#472 = AXIS2_PLACEMENT_3D ( 'NONE', #1132, #207, #928 ) ;
#473 = CARTESIAN_POINT ( 'NONE',  ( -3.410605131648480892E-10, 30.00000000000000000, -399970.0000000001746 ) ) ;
#474 = ADVANCED_FACE ( 'NONE', ( #1089 ), #264, .F. ) ;
#475 = ORIENTED_EDGE ( 'NONE', *, *, #883, .T. ) ;
#476 = CARTESIAN_POINT ( 'NONE',  ( 4.999999999990909494, 18.00000000000000000, 5.250000000020460078 ) ) ;
#477 = ADVANCED_FACE ( 'NONE', ( #345 ), #369, .F. ) ;
#478 = VERTEX_POINT ( 'NONE', #446 ) ;
#479 = DIRECTION ( 'NONE',  ( -1.000000000000000000, 0.000000000000000000, 0.000000000000000000 ) ) ;
#480 = ORIENTED_EDGE ( 'NONE', *, *, #243, .F. ) ;
#481 = SURFACE_STYLE_FILL_AREA ( #1306 ) ;
#482 = DIRECTION ( 'NONE',  ( 0.000000000000000000, 1.000000000000000000, 0.000000000000000000 ) ) ;
#483 = DIRECTION ( 'NONE',  ( -1.000000000000000000, -1.972152263052529514E-31, 0.000000000000000000 ) ) ;
#484 = EDGE_LOOP ( 'NONE', ( #605, #1015, #920, #510 ) ) ;
#485 = FACE_OUTER_BOUND ( 'NONE', #963, .T. ) ;
#486 = CARTESIAN_POINT ( 'NONE',  ( -9.000000000003481659, 3.000000000000000000, 3.469446951953614189E-15 ) ) ;
#487 = EDGE_CURVE ( 'NONE', #1162, #351, #275, .T. ) ;
#488 = AXIS2_PLACEMENT_3D ( 'NONE', #926, #25, #1238 ) ;
#489 = ORIENTED_EDGE ( 'NONE', *, *, #1229, .F. ) ;
#490 = AXIS2_PLACEMENT_3D ( 'NONE', #850, #1251, #737 ) ;
#491 = VECTOR ( 'NONE', #1128, 1000.000000000000000 ) ;
#492 = AXIS2_PLACEMENT_3D ( 'NONE', #16, #837, #731 ) ;
#493 = FACE_OUTER_BOUND ( 'NONE', #667, .T. ) ;
#494 = VERTEX_POINT ( 'NONE', #688 ) ;
#495 = DIRECTION ( 'NONE',  ( 1.000000000000000000, -0.000000000000000000, -0.000000000000000000 ) ) ;
#496 = LINE ( 'NONE', #818, #1277 ) ;
#497 = FACE_OUTER_BOUND ( 'NONE', #1134, .T. ) ;
#498 = CARTESIAN_POINT ( 'NONE',  ( -7.000000000003477219, 12.00000000000000000, 4.999999999981820764 ) ) ;
#499 = ORIENTED_EDGE ( 'NONE', *, *, #843, .T. ) ;
#500 = LINE ( 'NONE', #41, #872 ) ;
#501 = DIRECTION ( 'NONE',  ( 1.000000000000000000, 0.000000000000000000, 0.000000000000000000 ) ) ;
#502 = CARTESIAN_POINT ( 'NONE',  ( 4.999999999990902388, 0.000000000000000000, 5.000000000020452973 ) ) ;
#503 = EDGE_LOOP ( 'NONE', ( #789, #1216 ) ) ;
#504 = DIRECTION ( 'NONE',  ( -1.000000000000000000, 0.000000000000000000, 0.000000000000000000 ) ) ;
#505 = CARTESIAN_POINT ( 'NONE',  ( -7.000000000003484324, 18.00000000000000000, 6.149999999981810461 ) ) ;
#506 = EDGE_CURVE ( 'NONE', #1318, #1046, #991, .T. ) ;
#507 = EDGE_CURVE ( 'NONE', #149, #847, #172, .T. ) ;
#508 = EDGE_LOOP ( 'NONE', ( #75, #990 ) ) ;
#509 = FACE_OUTER_BOUND ( 'NONE', #308, .T. ) ;
#510 = ORIENTED_EDGE ( 'NONE', *, *, #2, .T. ) ;
#511 = LINE ( 'NONE', #614, #585 ) ;
#512 = VECTOR ( 'NONE', #1119, 1000.000000000000000 ) ;
#513 = FACE_BOUND ( 'NONE', #257, .T. ) ;
#514 = AXIS2_PLACEMENT_3D ( 'NONE', #913, #691, #479 ) ;
#515 = DIRECTION ( 'NONE',  ( 0.000000000000000000, 0.000000000000000000, -1.000000000000000000 ) ) ;
#516 = VECTOR ( 'NONE', #342, 1000.000000000000000 ) ;
#517 = AXIS2_PLACEMENT_3D ( 'NONE', #1018, #110, #903 ) ;
#518 = ORIENTED_EDGE ( 'NONE', *, *, #769, .T. ) ;
#519 = EDGE_CURVE ( 'NONE', #1239, #972, #774, .T. ) ;
#520 = DIRECTION ( 'NONE',  ( 1.000000000000000000, 0.000000000000000000, 0.000000000000000000 ) ) ;
#521 = VECTOR ( 'NONE', #573, 1000.000000000000000 ) ;
#522 = ORIENTED_EDGE ( 'NONE', *, *, #1063, .T. ) ;
#523 = ORIENTED_EDGE ( 'NONE', *, *, #777, .T. ) ;
#524 = EDGE_CURVE ( 'NONE', #1139, #494, #1178, .T. ) ;
#525 = CARTESIAN_POINT ( 'NONE',  ( -17.00000000000348521, 18.00000000000000000, 6.149999999981810461 ) ) ;
#526 = PLANE ( 'NONE',  #406 ) ;
#527 = DIRECTION ( 'NONE',  ( -1.000000000000000000, -1.972152263052529514E-31, -0.000000000000000000 ) ) ;
#528 = DIRECTION ( 'NONE',  ( 1.972152263052529514E-31, -1.000000000000000000, 0.000000000000000000 ) ) ;
#529 = ORIENTED_EDGE ( 'NONE', *, *, #104, .F. ) ;
#530 = CARTESIAN_POINT ( 'NONE',  ( -7.000000000003477219, -1.380506584136021665E-30, 4.999999999981820764 ) ) ;
#531 = PLANE ( 'NONE',  #634 ) ;
#532 = EDGE_CURVE ( 'NONE', #671, #215, #668, .T. ) ;
#533 = CARTESIAN_POINT ( 'NONE',  ( 291577.0000000000000, 30.00000000000000000, 3.469446951953614189E-15 ) ) ;
#534 = CARTESIAN_POINT ( 'NONE',  ( -18.45000000000348450, 30.00000000000000000, 6.149999999981810461 ) ) ;
#535 = ORIENTED_EDGE ( 'NONE', *, *, #620, .T. ) ;
#536 = DIRECTION ( 'NONE',  ( -1.826024711554533223E-15, -3.601198767282115134E-46, 1.000000000000000000 ) ) ;
#537 = VERTEX_POINT ( 'NONE', #996 ) ;
#538 = EDGE_LOOP ( 'NONE', ( #1058, #560, #689, #305 ) ) ;
#539 = DIRECTION ( 'NONE',  ( 0.000000000000000000, -1.000000000000000000, 0.000000000000000000 ) ) ;
#540 = PLANE ( 'NONE',  #1004 ) ;
#541 = ADVANCED_FACE ( 'NONE', ( #457 ), #356, .F. ) ;
#542 = DIRECTION ( 'NONE',  ( -1.084202172485502462E-16, -1.000000000000000000, -0.000000000000000000 ) ) ;
#543 = CARTESIAN_POINT ( 'NONE',  ( 19.99999999998773248, 32.00000000000000000, 1.500000000000001332 ) ) ;
#544 = AXIS2_PLACEMENT_3D ( 'NONE', #1014, #900, #483 ) ;
#545 = FACE_OUTER_BOUND ( 'NONE', #971, .T. ) ;
#546 = DIRECTION ( 'NONE',  ( 1.972152263052529514E-31, -1.000000000000000000, 0.000000000000000000 ) ) ;
#547 = ADVANCED_FACE ( 'NONE', ( #557 ), #977, .F. ) ;
#548 = VERTEX_POINT ( 'NONE', #672 ) ;
#549 = CARTESIAN_POINT ( 'NONE',  ( 9.999999999990905053, 30.00000000000000000, 40.00000000002046363 ) ) ;
#550 = ORIENTED_EDGE ( 'NONE', *, *, #750, .T. ) ;
#551 = DIRECTION ( 'NONE',  ( 0.000000000000000000, -1.000000000000000000, -0.000000000000000000 ) ) ;
#552 = CARTESIAN_POINT ( 'NONE',  ( 13.54999999999090221, 0.000000000000000000, 5.000000000020425439 ) ) ;
#553 = PLANE ( 'NONE',  #323 ) ;
#554 = ADVANCED_FACE ( 'NONE', ( #253 ), #1081, .F. ) ;
#555 = EDGE_CURVE ( 'NONE', #681, #621, #1002, .T. ) ;
#556 = ORIENTED_EDGE ( 'NONE', *, *, #883, .F. ) ;
#557 = FACE_OUTER_BOUND ( 'NONE', #1039, .T. ) ;
#558 = DIRECTION ( 'NONE',  ( -1.000000000000000000, -1.972152263052529514E-31, 1.734723475979122155E-16 ) ) ;
#559 = VECTOR ( 'NONE', #433, 1000.000000000000000 ) ;
#560 = ORIENTED_EDGE ( 'NONE', *, *, #341, .F. ) ;
#561 = DIRECTION ( 'NONE',  ( -1.000000000000000000, -1.972152263052529514E-31, -0.000000000000000000 ) ) ;
#562 = VECTOR ( 'NONE', #1085, 1000.000000000000000 ) ;
#563 = VECTOR ( 'NONE', #610, 1000.000000000000000 ) ;
#564 = FACE_BOUND ( 'NONE', #87, .T. ) ;
#565 = ORIENTED_EDGE ( 'NONE', *, *, #967, .T. ) ;
#566 = DIRECTION ( 'NONE',  ( 1.000000000000000000, 0.000000000000000000, 0.000000000000000000 ) ) ;
#567 = EDGE_CURVE ( 'NONE', #702, #574, #1113, .T. ) ;
#568 = ORIENTED_EDGE ( 'NONE', *, *, #1079, .F. ) ;
#569 = CARTESIAN_POINT ( 'NONE',  ( -5.550000000003484146, 30.00000000000000000, 6.149999999981810461 ) ) ;
#570 = DIRECTION ( 'NONE',  ( 1.000000000000000000, 0.000000000000000000, 0.000000000000000000 ) ) ;
#571 = CARTESIAN_POINT ( 'NONE',  ( -8.450000000003484502, 18.00000000000000000, 6.149999999981810461 ) ) ;
#572 = ORIENTED_EDGE ( 'NONE', *, *, #55, .T. ) ;
#573 = DIRECTION ( 'NONE',  ( 0.000000000000000000, 0.000000000000000000, 1.000000000000000000 ) ) ;
#574 = VERTEX_POINT ( 'NONE', #1118 ) ;
#575 = EDGE_CURVE ( 'NONE', #89, #1181, #409, .T. ) ;
#576 = EDGE_CURVE ( 'NONE', #1013, #748, #804, .T. ) ;
#577 = DIRECTION ( 'NONE',  ( -1.000000000000000000, 0.000000000000000000, 0.000000000000000000 ) ) ;
#578 = ORIENTED_EDGE ( 'NONE', *, *, #180, .T. ) ;
#579 = PRESENTATION_STYLE_ASSIGNMENT (( #798 ) ) ;
#580 = AXIS2_PLACEMENT_3D ( 'NONE', #1193, #361, #1099 ) ;
#581 = VECTOR ( 'NONE', #792, 1000.000000000000000 ) ;
#582 = VECTOR ( 'NONE', #943, 1000.000000000000000 ) ;
#583 = AXIS2_PLACEMENT_3D ( 'NONE', #625, #608, #292 ) ;
#584 = ORIENTED_EDGE ( 'NONE', *, *, #214, .F. ) ;
#585 = VECTOR ( 'NONE', #708, 1000.000000000000000 ) ;
#586 = FACE_OUTER_BOUND ( 'NONE', #276, .T. ) ;
#587 = ADVANCED_FACE ( 'NONE', ( #485 ), #96, .F. ) ;
#588 = ORIENTED_EDGE ( 'NONE', *, *, #31, .T. ) ;
#589 = FACE_OUTER_BOUND ( 'NONE', #388, .T. ) ;
#590 = PLANE ( 'NONE',  #281 ) ;
#591 = ORIENTED_EDGE ( 'NONE', *, *, #400, .F. ) ;
#592 = CARTESIAN_POINT ( 'NONE',  ( 3.549999999990909316, 30.00000000000000000, 5.250000000020460078 ) ) ;
#593 = EDGE_LOOP ( 'NONE', ( #803, #1307 ) ) ;
#594 = ADVANCED_FACE ( 'NONE', ( #589 ), #295, .F. ) ;
#595 =( LENGTH_UNIT ( ) NAMED_UNIT ( * ) SI_UNIT ( .MILLI., .METRE. ) );
#596 = CARTESIAN_POINT ( 'NONE',  ( 19.99999999998775735, 30.00000000000000000, 8.500000000026375346 ) ) ;
#597 = EDGE_LOOP ( 'NONE', ( #1168, #864, #950, #1146 ) ) ;
#598 = CARTESIAN_POINT ( 'NONE',  ( 0.000000000000000000, 0.000000000000000000, 0.000000000000000000 ) ) ;
#599 = VERTEX_POINT ( 'NONE', #712 ) ;
#600 = FACE_BOUND ( 'NONE', #816, .T. ) ;
#601 = ADVANCED_FACE ( 'NONE', ( #811 ), #3, .F. ) ;
#602 = AXIS2_PLACEMENT_3D ( 'NONE', #322, #1247, #743 ) ;
#603 = DIRECTION ( 'NONE',  ( 0.000000000000000000, 1.000000000000000000, 0.000000000000000000 ) ) ;
#604 = CARTESIAN_POINT ( 'NONE',  ( -15.55000000000348415, 18.00000000000000000, 6.149999999981810461 ) ) ;
#605 = ORIENTED_EDGE ( 'NONE', *, *, #107, .F. ) ;
#606 = CARTESIAN_POINT ( 'NONE',  ( 13.54999999999090932, 30.00000000000000000, 5.250000000020460078 ) ) ;
#607 = CARTESIAN_POINT ( 'NONE',  ( -5.550000000003477929, 12.00000000000000000, 4.999999999981820764 ) ) ;
#608 = DIRECTION ( 'NONE',  ( 0.000000000000000000, 1.000000000000000000, 0.000000000000000000 ) ) ;
#609 = EDGE_CURVE ( 'NONE', #1260, #398, #1210, .T. ) ;
#610 = DIRECTION ( 'NONE',  ( 0.000000000000000000, -1.000000000000000000, -0.000000000000000000 ) ) ;
#611 = ORIENTED_EDGE ( 'NONE', *, *, #911, .T. ) ;
#612 = CARTESIAN_POINT ( 'NONE',  ( -1.454218689911357387E-11, 30.00000000000000000, 8.500000000026375346 ) ) ;
#613 = MANIFOLD_SOLID_BREP ( 'Body-Move/Copy3', #875 ) ;
#614 = CARTESIAN_POINT ( 'NONE',  ( 291577.0000000000000, 30.00000000000000000, 9.500000000002732037 ) ) ;
#615 = DIRECTION ( 'NONE',  ( 1.000000000000000000, 1.972152263052529514E-31, 1.826024711554533223E-15 ) ) ;
#616 = MANIFOLD_SOLID_BREP ( 'Body-Move/Copy4', #434 ) ;
#617 = EDGE_CURVE ( 'NONE', #360, #650, #500, .T. ) ;
#618 = FACE_OUTER_BOUND ( 'NONE', #1237, .T. ) ;
#619 = CARTESIAN_POINT ( 'NONE',  ( -9.000000000003481659, 3.000000000000000000, 22.91640786500147087 ) ) ;
#620 = EDGE_CURVE ( 'NONE', #795, #1218, #785, .T. ) ;
#621 = VERTEX_POINT ( 'NONE', #633 ) ;
#622 = PLANE ( 'NONE',  #826 ) ;
#623 = ORIENTED_EDGE ( 'NONE', *, *, #576, .F. ) ;
#624 = FACE_OUTER_BOUND ( 'NONE', #187, .T. ) ;
#625 = CARTESIAN_POINT ( 'NONE',  ( 14.99999999999090861, 18.00000000000000000, 5.250000000020460078 ) ) ;
#626 = VECTOR ( 'NONE', #167, 1000.000000000000000 ) ;
#627 = LINE ( 'NONE', #942, #563 ) ;
#628 = AXIS2_PLACEMENT_3D ( 'NONE', #728, #1038, #520 ) ;
#629 = LINE ( 'NONE', #839, #582 ) ;
#630 = VECTOR ( 'NONE', #1304, 1000.000000000000000 ) ;
#631 = CIRCLE ( 'NONE', #931, 1.449999999999999956 ) ;
#632 = ORIENTED_EDGE ( 'NONE', *, *, #970, .T. ) ;
#633 = CARTESIAN_POINT ( 'NONE',  ( 19.99999999998773248, 30.00000000000000000, 1.500000000000001332 ) ) ;
#634 = AXIS2_PLACEMENT_3D ( 'NONE', #842, #539, #233 ) ;
#635 = UNCERTAINTY_MEASURE_WITH_UNIT (LENGTH_MEASURE( 1.000000000000000082E-05 ), #290, 'distance_accuracy_value', 'NONE');
#636 = ORIENTED_EDGE ( 'NONE', *, *, #1117, .T. ) ;
#637 = LINE ( 'NONE', #127, #283 ) ;
#638 = LINE ( 'NONE', #228, #242 ) ;
#639 = CARTESIAN_POINT ( 'NONE',  ( -3.410605131648480892E-10, 0.000000000000000000, -399970.0000000001746 ) ) ;
#640 = DIRECTION ( 'NONE',  ( 0.000000000000000000, 1.000000000000000000, 0.000000000000000000 ) ) ;
#641 = ORIENTED_EDGE ( 'NONE', *, *, #48, .F. ) ;
#642 = CARTESIAN_POINT ( 'NONE',  ( -2.000000000751539275, 30.00000000000000000, 400029.9999999994761 ) ) ;
#643 = EDGE_CURVE ( 'NONE', #813, #396, #1047, .T. ) ;
#644 = ORIENTED_EDGE ( 'NONE', *, *, #156, .F. ) ;
#645 = DIRECTION ( 'NONE',  ( -1.000000000000000000, 0.000000000000000000, 0.000000000000000000 ) ) ;
#646 = CARTESIAN_POINT ( 'NONE',  ( 16.44999999999090079, 0.000000000000000000, 5.000000000020425439 ) ) ;
#647 = FACE_OUTER_BOUND ( 'NONE', #1286, .T. ) ;
#648 = ORIENTED_EDGE ( 'NONE', *, *, #1313, .F. ) ;
#649 = DIRECTION ( 'NONE',  ( -1.000000000000000000, 0.000000000000000000, 0.000000000000000000 ) ) ;
#650 = VERTEX_POINT ( 'NONE', #1153 ) ;
#651 = PLANE ( 'NONE',  #60 ) ;
#652 = LINE ( 'NONE', #143, #59 ) ;
#653 = DIRECTION ( 'NONE',  ( 1.972152263052529514E-31, -1.000000000000000000, 0.000000000000000000 ) ) ;
#654 = ORIENTED_EDGE ( 'NONE', *, *, #1024, .F. ) ;
#655 = MECHANICAL_DESIGN_GEOMETRIC_PRESENTATION_REPRESENTATION (  '', ( #1228 ), #1062 ) ;
#656 = CARTESIAN_POINT ( 'NONE',  ( 19.99999999998775735, 30.00000000000000000, 8.500000000026375346 ) ) ;
#657 = VECTOR ( 'NONE', #1157, 1000.000000000000000 ) ;
#658 = AXIS2_PLACEMENT_3D ( 'NONE', #30, #425, #745 ) ;
#659 = ORIENTED_EDGE ( 'NONE', *, *, #506, .F. ) ;
#660 = ORIENTED_EDGE ( 'NONE', *, *, #436, .F. ) ;
#661 = LINE ( 'NONE', #37, #559 ) ;
#662 = CIRCLE ( 'NONE', #221, 1.449999999999999956 ) ;
#663 = CARTESIAN_POINT ( 'NONE',  ( -21.99999999999438671, 30.00000000000000000, 2.000000000000005329 ) ) ;
#664 = EDGE_CURVE ( 'NONE', #847, #1046, #854, .T. ) ;
#665 = CARTESIAN_POINT ( 'NONE',  ( -9.000000000003481659, 15.00000000000000000, 22.91640786500147087 ) ) ;
#666 = FACE_OUTER_BOUND ( 'NONE', #460, .T. ) ;
#667 = EDGE_LOOP ( 'NONE', ( #499, #535 ) ) ;
#668 = LINE ( 'NONE', #74, #626 ) ;
#669 = DIRECTION ( 'NONE',  ( 1.000000000000000000, 0.000000000000000000, 0.000000000000000000 ) ) ;
#670 = DIRECTION ( 'NONE',  ( -1.000000000000000000, -1.972152263052529514E-31, -0.000000000000000000 ) ) ;
#671 = VERTEX_POINT ( 'NONE', #438 ) ;
#672 = CARTESIAN_POINT ( 'NONE',  ( -2.000000000021075142, 32.00000000000000000, 2.000000000000001776 ) ) ;
#673 = CARTESIAN_POINT ( 'NONE',  ( -5.550000000003484146, 18.00000000000000000, 6.149999999981810461 ) ) ;
#674 = FACE_OUTER_BOUND ( 'NONE', #719, .T. ) ;
#675 = CIRCLE ( 'NONE', #93, 1.449999999999999956 ) ;
#676 = EDGE_LOOP ( 'NONE', ( #894, #591 ) ) ;
#677 = ADVANCED_FACE ( 'NONE', ( #509 ), #430, .T. ) ;
#678 = CARTESIAN_POINT ( 'NONE',  ( -2.875093704035196929, 3.000000000000000000, 20.29144802385949475 ) ) ;
#679 = CIRCLE ( 'NONE', #405, 1.449999999999999956 ) ;
#680 = CARTESIAN_POINT ( 'NONE',  ( 3.549999999990902655, 12.00000000000000000, 5.000000000020452973 ) ) ;
#681 = VERTEX_POINT ( 'NONE', #1261 ) ;
#682 = CARTESIAN_POINT ( 'NONE',  ( -12.00000000000347988, 32.00000000000000000, 19.99999999998181366 ) ) ;
#683 = EDGE_CURVE ( 'NONE', #840, #351, #1267, .T. ) ;
#684 = ADVANCED_FACE ( 'NONE', ( #1138 ), #833, .F. ) ;
#685 = ORIENTED_EDGE ( 'NONE', *, *, #836, .F. ) ;
#686 = CARTESIAN_POINT ( 'NONE',  ( -9.000000000003481659, 3.000000000000000000, 6.000000000002708056 ) ) ;
#687 = VERTEX_POINT ( 'NONE', #1032 ) ;
#688 = CARTESIAN_POINT ( 'NONE',  ( -1.454218689911357387E-11, 32.00000000000000000, 1.500000000000001332 ) ) ;
#689 = ORIENTED_EDGE ( 'NONE', *, *, #609, .T. ) ;
#690 = EDGE_CURVE ( 'NONE', #1088, #355, #890, .T. ) ;
#691 = DIRECTION ( 'NONE',  ( 0.000000000000000000, 1.000000000000000000, 0.000000000000000000 ) ) ;
#692 = ORIENTED_EDGE ( 'NONE', *, *, #917, .T. ) ;
#693 = SURFACE_SIDE_STYLE ('',( #1123 ) ) ;
#694 = AXIS2_PLACEMENT_3D ( 'NONE', #418, #546, #856 ) ;
#695 = CARTESIAN_POINT ( 'NONE',  ( 13.54999999999090932, 18.00000000000000000, 5.250000000020460078 ) ) ;
#696 = VECTOR ( 'NONE', #287, 1000.000000000000000 ) ;
#697 = AXIS2_PLACEMENT_3D ( 'NONE', #1311, #1230, #501 ) ;
#698 = ORIENTED_EDGE ( 'NONE', *, *, #400, .T. ) ;
#699 = CIRCLE ( 'NONE', #694, 1.449999999999999956 ) ;
#700 = ADVANCED_FACE ( 'NONE', ( #1160 ), #622, .T. ) ;
#701 = FACE_OUTER_BOUND ( 'NONE', #81, .T. ) ;
#702 = VERTEX_POINT ( 'NONE', #109 ) ;
#703 = FILL_AREA_STYLE ('',( #1319 ) ) ;
#704 = CARTESIAN_POINT ( 'NONE',  ( 4.999999999990902388, 0.000000000000000000, 5.000000000020452973 ) ) ;
#705 = DIRECTION ( 'NONE',  ( -0.3939192985807799530, -7.768688361561502617E-32, 0.9191450300173669152 ) ) ;
#706 = ORIENTED_EDGE ( 'NONE', *, *, #897, .F. ) ;
#707 = CARTESIAN_POINT ( 'NONE',  ( -20.19387181320553282, 15.00000000000000000, 18.11903423074878106 ) ) ;
#708 = DIRECTION ( 'NONE',  ( -1.000000000000000000, -1.972152263052529514E-31, 0.000000000000000000 ) ) ;
#709 = LINE ( 'NONE', #1141, #182 ) ;
#710 = CARTESIAN_POINT ( 'NONE',  ( -7.499999999996203925, 30.00000000003161205, 9.500000000002732037 ) ) ;
#711 = ORIENTED_EDGE ( 'NONE', *, *, #99, .F. ) ;
#712 = CARTESIAN_POINT ( 'NONE',  ( 3.549999999990902655, 0.000000000000000000, 5.000000000020452973 ) ) ;
#713 = ADVANCED_FACE ( 'NONE', ( #137 ), #1253, .T. ) ;
#714 = DIRECTION ( 'NONE',  ( 0.000000000000000000, 0.000000000000000000, -1.000000000000000000 ) ) ;
#715 = AXIS2_PLACEMENT_3D ( 'NONE', #473, #814, #92 ) ;
#716 = VECTOR ( 'NONE', #249, 1000.000000000000000 ) ;
#717 = VECTOR ( 'NONE', #805, 1000.000000000000000 ) ;
#718 = LINE ( 'NONE', #1030, #384 ) ;
#719 = EDGE_LOOP ( 'NONE', ( #1300, #117, #1028, #407 ) ) ;
#720 = DIRECTION ( 'NONE',  ( 0.000000000000000000, -1.000000000000000000, -0.000000000000000000 ) ) ;
#721 = CYLINDRICAL_SURFACE ( 'NONE', #472, 1.449999999999999956 ) ;
#722 = EDGE_CURVE ( 'NONE', #1137, #289, #226, .T. ) ;
#723 = LINE ( 'NONE', #1133, #788 ) ;
#724 = ORIENTED_EDGE ( 'NONE', *, *, #917, .F. ) ;
#725 = ADVANCED_FACE ( 'NONE', ( #545 ), #962, .F. ) ;
#726 = CARTESIAN_POINT ( 'NONE',  ( 19.99999999884494173, 30.00000000000000000, -399970.0000000008149 ) ) ;
#727 = ORIENTED_EDGE ( 'NONE', *, *, #722, .T. ) ;
#728 = CARTESIAN_POINT ( 'NONE',  ( -7.000000000003484324, 18.00000000000000000, 6.149999999981810461 ) ) ;
#729 = ORIENTED_EDGE ( 'NONE', *, *, #436, .T. ) ;
#730 = CARTESIAN_POINT ( 'NONE',  ( -1.454218689911357387E-11, 0.000000000000000000, 8.500000000026375346 ) ) ;
#731 = DIRECTION ( 'NONE',  ( -1.000000000000000000, -1.972152263052529514E-31, 0.000000000000000000 ) ) ;
#732 = CARTESIAN_POINT ( 'NONE',  ( -12.00000000000347988, -2.366582715662286773E-30, 19.99999999998181366 ) ) ;
#733 = DIRECTION ( 'NONE',  ( -1.000000000000000000, 0.000000000000000000, 0.000000000000000000 ) ) ;
#734 = ORIENTED_EDGE ( 'NONE', *, *, #1313, .T. ) ;
#735 = DIRECTION ( 'NONE',  ( -1.000000000000000000, -1.972152263052529514E-31, 0.000000000000000000 ) ) ;
#736 = DIRECTION ( 'NONE',  ( -1.972152263052529514E-31, 1.000000000000000000, 0.000000000000000000 ) ) ;
#737 = DIRECTION ( 'NONE',  ( 1.000000000000000000, 0.000000000000000000, 0.000000000000000000 ) ) ;
#738 = CIRCLE ( 'NONE', #628, 1.449999999999999956 ) ;
#739 = EDGE_CURVE ( 'NONE', #840, #1159, #738, .T. ) ;
#740 = CIRCLE ( 'NONE', #164, 1.449999999999999956 ) ;
#741 = AXIS2_PLACEMENT_3D ( 'NONE', #1012, #482, #1022 ) ;
#742 = EDGE_LOOP ( 'NONE', ( #293, #456, #867, #632 ) ) ;
#743 = DIRECTION ( 'NONE',  ( 1.000000000000000000, 0.000000000000000000, 0.000000000000000000 ) ) ;
#744 = FACE_OUTER_BOUND ( 'NONE', #284, .T. ) ;
#745 = DIRECTION ( 'NONE',  ( 1.000000000000000000, 0.000000000000000000, 0.000000000000000000 ) ) ;
#746 = CARTESIAN_POINT ( 'NONE',  ( -2.000000000021092461, 30.00000000000000000, 9.500000000002732037 ) ) ;
#747 = DIRECTION ( 'NONE',  ( -1.000000000000000000, 0.000000000000000000, 0.000000000000000000 ) ) ;
#748 = VERTEX_POINT ( 'NONE', #936 ) ;
#749 = DIRECTION ( 'NONE',  ( 1.972152263052529514E-31, -1.000000000000000000, 0.000000000000000000 ) ) ;
#750 = EDGE_CURVE ( 'NONE', #210, #372, #841, .T. ) ;
#751 = FACE_OUTER_BOUND ( 'NONE', #108, .T. ) ;
#752 = LINE ( 'NONE', #1165, #1127 ) ;
#753 = CYLINDRICAL_SURFACE ( 'NONE', #764, 1.449999999999999956 ) ;
#754 = EDGE_LOOP ( 'NONE', ( #641, #1069, #997, #1209 ) ) ;
#755 =( NAMED_UNIT ( * ) SI_UNIT ( $, .STERADIAN. ) SOLID_ANGLE_UNIT ( ) );
#756 = VERTEX_POINT ( 'NONE', #1078 ) ;
#757 = DIRECTION ( 'NONE',  ( 1.000000000000000000, 1.972152263052529514E-31, 0.000000000000000000 ) ) ;
#758 = ADVANCED_FACE ( 'NONE', ( #666 ), #66, .F. ) ;
#759 = LINE ( 'NONE', #1271, #983 ) ;
#760 = FACE_OUTER_BOUND ( 'NONE', #896, .T. ) ;
#761 = CIRCLE ( 'NONE', #986, 1.449999999999999956 ) ;
#762 = VECTOR ( 'NONE', #416, 1000.000000000000000 ) ;
#763 = DIRECTION ( 'NONE',  ( -1.972152263052529514E-31, 1.000000000000000000, 0.000000000000000000 ) ) ;
#764 = AXIS2_PLACEMENT_3D ( 'NONE', #505, #852, #420 ) ;
#765 = ORIENTED_EDGE ( 'NONE', *, *, #1302, .T. ) ;
#766 = DIRECTION ( 'NONE',  ( -0.3939192985807793423, -7.768688361561490574E-32, -0.9191450300173671373 ) ) ;
#767 = AXIS2_PLACEMENT_3D ( 'NONE', #1170, #551, #139 ) ;
#768 = DIRECTION ( 'NONE',  ( -1.000000000000000000, 0.000000000000000000, 0.000000000000000000 ) ) ;
#769 = EDGE_CURVE ( 'NONE', #650, #671, #1092, .T. ) ;
#770 = ADVANCED_FACE ( 'NONE', ( #455 ), #1074, .T. ) ;
#771 = APPLICATION_PROTOCOL_DEFINITION ( 'draft international standard', 'automotive_design', 1998, #29 ) ;
#772 = DIRECTION ( 'NONE',  ( 0.000000000000000000, -1.000000000000000000, 0.000000000000000000 ) ) ;
#773 = ORIENTED_EDGE ( 'NONE', *, *, #967, .F. ) ;
#774 = LINE ( 'NONE', #678, #302 ) ;
#775 = FACE_OUTER_BOUND ( 'NONE', #484, .T. ) ;
#776 =( LENGTH_UNIT ( ) NAMED_UNIT ( * ) SI_UNIT ( .MILLI., .METRE. ) );
#777 = EDGE_CURVE ( 'NONE', #621, #210, #459, .T. ) ;
#778 = DIRECTION ( 'NONE',  ( 2.857191607491211592E-15, 0.000000000000000000, 1.000000000000000000 ) ) ;
#779 = ORIENTED_EDGE ( 'NONE', *, *, #294, .F. ) ;
#780 = DIRECTION ( 'NONE',  ( 2.857191607491211592E-15, 0.000000000000000000, 1.000000000000000000 ) ) ;
#781 = EDGE_LOOP ( 'NONE', ( #173, #451, #136, #312 ) ) ;
#782 = LINE ( 'NONE', #665, #959 ) ;
#783 = CARTESIAN_POINT ( 'NONE',  ( 0.000000000000000000, 30.00000000000000000, 0.000000000000000000 ) ) ;
#784 = EDGE_CURVE ( 'NONE', #795, #834, #238, .T. ) ;
#785 = CIRCLE ( 'NONE', #1208, 1.449999999999999956 ) ;
#786 = CARTESIAN_POINT ( 'NONE',  ( 6.449999999990902566, 12.00000000000000000, 5.000000000020452973 ) ) ;
#787 = CIRCLE ( 'NONE', #1257, 1.449999999999999956 ) ;
#788 = VECTOR ( 'NONE', #121, 1000.000000000000000 ) ;
#789 = ORIENTED_EDGE ( 'NONE', *, *, #487, .F. ) ;
#790 = DIRECTION ( 'NONE',  ( 0.000000000000000000, -1.000000000000000000, -0.000000000000000000 ) ) ;
#791 = PRODUCT_DEFINITION_SHAPE ( 'NONE', 'NONE',  #98 ) ;
#792 = DIRECTION ( 'NONE',  ( 1.084202172485502462E-16, 1.000000000000000000, 0.000000000000000000 ) ) ;
#793 = ORIENTED_EDGE ( 'NONE', *, *, #1312, .T. ) ;
#794 = DIRECTION ( 'NONE',  ( -1.972152263052529514E-31, 1.000000000000000000, 0.000000000000000000 ) ) ;
#795 = VERTEX_POINT ( 'NONE', #1176 ) ;
#796 = DIRECTION ( 'NONE',  ( 1.000000000000000000, -0.000000000000000000, -0.000000000000000000 ) ) ;
#797 = ORIENTED_EDGE ( 'NONE', *, *, #1095, .T. ) ;
#798 = SURFACE_STYLE_USAGE ( .BOTH. , #693 ) ;
#799 = CARTESIAN_POINT ( 'NONE',  ( -291579.0000000000000, 30.00000000000000000, 8.500000000026375346 ) ) ;
#800 = ADVANCED_FACE ( 'NONE', ( #564, #889 ), #880, .T. ) ;
#801 = VERTEX_POINT ( 'NONE', #680 ) ;
#802 = LINE ( 'NONE', #604, #38 ) ;
#803 = ORIENTED_EDGE ( 'NONE', *, *, #8, .T. ) ;
#804 = LINE ( 'NONE', #707, #1104 ) ;
#805 = DIRECTION ( 'NONE',  ( 1.972152263052529514E-31, -1.000000000000000000, 0.000000000000000000 ) ) ;
#806 = AXIS2_PLACEMENT_3D ( 'NONE', #1057, #125, #131 ) ;
#807 = VECTOR ( 'NONE', #334, 1000.000000000000000 ) ;
#808 = CYLINDRICAL_SURFACE ( 'NONE', #364, 1.449999999999999956 ) ;
#809 = DIRECTION ( 'NONE',  ( 1.000000000000000000, 0.000000000000000000, 0.000000000000000000 ) ) ;
#810 = ORIENTED_EDGE ( 'NONE', *, *, #85, .F. ) ;
#811 = FACE_OUTER_BOUND ( 'NONE', #82, .T. ) ;
#812 = LINE ( 'NONE', #1212, #828 ) ;
#813 = VERTEX_POINT ( 'NONE', #359 ) ;
#814 = DIRECTION ( 'NONE',  ( -1.000000000000000000, 0.000000000000000000, 8.163404592832033966E-16 ) ) ;
#815 = ADVANCED_FACE ( 'NONE', ( #251, #350, #674 ), #553, .F. ) ;
#816 = EDGE_LOOP ( 'NONE', ( #34, #379 ) ) ;
#817 = DIRECTION ( 'NONE',  ( 0.3939192985807793423, 7.768688361561490574E-32, 0.9191450300173671373 ) ) ;
#818 = CARTESIAN_POINT ( 'NONE',  ( -15.00000000000348166, 15.00000000000000000, 22.91640786500147087 ) ) ;
#819 = ORIENTED_EDGE ( 'NONE', *, *, #243, .T. ) ;
#820 = LINE ( 'NONE', #306, #219 ) ;
#821 = ORIENTED_EDGE ( 'NONE', *, *, #269, .F. ) ;
#822 = ADVANCED_FACE ( 'NONE', ( #1281 ), #159, .F. ) ;
#823 = DIRECTION ( 'NONE',  ( 1.000000000000000000, -1.084202172485502462E-16, 0.000000000000000000 ) ) ;
#824 = EDGE_CURVE ( 'NONE', #914, #859, #989, .T. ) ;
#825 = CARTESIAN_POINT ( 'NONE',  ( 4.999999999990902388, 12.00000000000000000, 5.000000000020452973 ) ) ;
#826 = AXIS2_PLACEMENT_3D ( 'NONE', #945, #951, #422 ) ;
#827 = CIRCLE ( 'NONE', #490, 1.449999999999999956 ) ;
#828 = VECTOR ( 'NONE', #1325, 1000.000000000000000 ) ;
#829 = AXIS2_PLACEMENT_3D ( 'NONE', #340, #332, #12 ) ;
#830 = DIRECTION ( 'NONE',  ( -1.000000000000000000, 0.000000000000000000, 0.000000000000000000 ) ) ;
#831 = DIRECTION ( 'NONE',  ( 1.972152263052529514E-31, -1.000000000000000000, 0.000000000000000000 ) ) ;
#832 = VERTEX_POINT ( 'NONE', #865 ) ;
#833 = PLANE ( 'NONE',  #806 ) ;
#834 = VERTEX_POINT ( 'NONE', #1291 ) ;
#835 = CARTESIAN_POINT ( 'NONE',  ( 14.99999999999090328, 0.000000000000000000, 5.000000000020425439 ) ) ;
#836 = EDGE_CURVE ( 'NONE', #1139, #992, #354, .T. ) ;
#837 = DIRECTION ( 'NONE',  ( 1.972152263052529514E-31, -1.000000000000000000, 0.000000000000000000 ) ) ;
#838 = PLANE ( 'NONE',  #58 ) ;
#839 = CARTESIAN_POINT ( 'NONE',  ( -15.00000000000348344, 3.000000000000000000, 6.000000000002708056 ) ) ;
#840 = VERTEX_POINT ( 'NONE', #571 ) ;
#841 = LINE ( 'NONE', #656, #980 ) ;
#842 = CARTESIAN_POINT ( 'NONE',  ( 14.99999999999090328, 12.00000000000000000, 5.000000000020425439 ) ) ;
#843 = EDGE_CURVE ( 'NONE', #1218, #795, #346, .T. ) ;
#844 = DIRECTION ( 'NONE',  ( -8.163404592832032979E-16, 0.000000000000000000, -1.000000000000000000 ) ) ;
#845 = CARTESIAN_POINT ( 'NONE',  ( -17.00000000000348521, 18.00000000000000000, 6.149999999981810461 ) ) ;
#846 = EDGE_LOOP ( 'NONE', ( #67, #1056, #588, #1266 ) ) ;
#847 = VERTEX_POINT ( 'NONE', #1068 ) ;
#848 = PLANE ( 'NONE',  #244 ) ;
#849 = VECTOR ( 'NONE', #796, 1000.000000000000000 ) ;
#850 = CARTESIAN_POINT ( 'NONE',  ( -7.000000000003484324, 18.00000000000000000, 6.149999999981810461 ) ) ;
#851 = CIRCLE ( 'NONE', #1189, 1.449999999999999956 ) ;
#852 = DIRECTION ( 'NONE',  ( -1.972152263052529514E-31, 1.000000000000000000, 0.000000000000000000 ) ) ;
#853 = ORIENTED_EDGE ( 'NONE', *, *, #824, .F. ) ;
#854 = LINE ( 'NONE', #35, #762 ) ;
#855 = EDGE_LOOP ( 'NONE', ( #20, #1323, #698, #660 ) ) ;
#856 = DIRECTION ( 'NONE',  ( -1.000000000000000000, 0.000000000000000000, 0.000000000000000000 ) ) ;
#857 = ORIENTED_EDGE ( 'NONE', *, *, #1079, .T. ) ;
#858 = EDGE_CURVE ( 'NONE', #1046, #45, #262, .T. ) ;
#859 = VERTEX_POINT ( 'NONE', #465 ) ;
#860 = EDGE_LOOP ( 'NONE', ( #1070, #62 ) ) ;
#861 = CARTESIAN_POINT ( 'NONE',  ( 19.99999999998775735, 0.000000000000000000, 8.500000000026375346 ) ) ;
#862 = CARTESIAN_POINT ( 'NONE',  ( -7.000000000003477219, 12.00000000000000000, 4.999999999981820764 ) ) ;
#863 = CARTESIAN_POINT ( 'NONE',  ( -21.99999999999438671, 32.00000000000000000, 2.000000000000005329 ) ) ;
#864 = ORIENTED_EDGE ( 'NONE', *, *, #1095, .F. ) ;
#865 = CARTESIAN_POINT ( 'NONE',  ( -15.55000000000348415, 30.00000000000000000, 6.149999999981810461 ) ) ;
#866 = EDGE_CURVE ( 'NONE', #351, #1162, #675, .T. ) ;
#867 = ORIENTED_EDGE ( 'NONE', *, *, #869, .T. ) ;
#868 = DIRECTION ( 'NONE',  ( -1.000000000000000000, -1.972152263052529514E-31, 0.000000000000000000 ) ) ;
#869 = EDGE_CURVE ( 'NONE', #494, #1096, #449, .T. ) ;
#870 = FACE_OUTER_BOUND ( 'NONE', #781, .T. ) ;
#871 = CYLINDRICAL_SURFACE ( 'NONE', #893, 1.449999999999999956 ) ;
#872 = VECTOR ( 'NONE', #231, 1000.000000000000000 ) ;
#873 = CARTESIAN_POINT ( 'NONE',  ( -17.00000000000347811, 12.00000000000000000, 4.999999999981849186 ) ) ;
#874 = CIRCLE ( 'NONE', #1107, 1.449999999999999956 ) ;
#875 = CLOSED_SHELL ( 'NONE', ( #912, #47, #822, #1276, #815, #713, #1135, #677, #957, #168, #338, #245, #587, #353, #684, #410, #279, #919, #1222, #700 ) ) ;
#876 = VERTEX_POINT ( 'NONE', #88 ) ;
#877 = CARTESIAN_POINT ( 'NONE',  ( -9.000000000003481659, 15.00000000000000000, 9.500000000002732037 ) ) ;
#878 = CARTESIAN_POINT ( 'NONE',  ( 291577.0000000000000, 5.750342404040673980E-26, 9.500000000002732037 ) ) ;
#879 = CARTESIAN_POINT ( 'NONE',  ( -2.000000000021075142, 32.00000000000000000, 2.000000000000001776 ) ) ;
#880 = PLANE ( 'NONE',  #1296 ) ;
#881 = ORIENTED_EDGE ( 'NONE', *, *, #330, .T. ) ;
#882 = FACE_OUTER_BOUND ( 'NONE', #1252, .T. ) ;
#883 = EDGE_CURVE ( 'NONE', #687, #1013, #1206, .T. ) ;
#884 = CARTESIAN_POINT ( 'NONE',  ( 14.99999999999090328, 12.00000000000000000, 5.000000000020425439 ) ) ;
#885 = VERTEX_POINT ( 'NONE', #592 ) ;
#886 = DIRECTION ( 'NONE',  ( 1.000000000000000000, 0.000000000000000000, 0.000000000000000000 ) ) ;
#887 = ORIENTED_EDGE ( 'NONE', *, *, #1199, .T. ) ;
#888 = CARTESIAN_POINT ( 'NONE',  ( 14.99999999999090328, 12.00000000000000000, 5.000000000020425439 ) ) ;
#889 = FACE_OUTER_BOUND ( 'NONE', #1122, .T. ) ;
#890 = CIRCLE ( 'NONE', #1278, 1.449999999999999956 ) ;
#891 = EDGE_LOOP ( 'NONE', ( #1197, #442 ) ) ;
#892 = DIRECTION ( 'NONE',  ( -1.000000000000000000, -1.972152263052529514E-31, -0.000000000000000000 ) ) ;
#893 = AXIS2_PLACEMENT_3D ( 'NONE', #153, #528, #747 ) ;
#894 = ORIENTED_EDGE ( 'NONE', *, *, #575, .F. ) ;
#895 = PLANE ( 'NONE',  #1065 ) ;
#896 = EDGE_LOOP ( 'NONE', ( #1246, #578, #1326, #36 ) ) ;
#897 = EDGE_CURVE ( 'NONE', #73, #832, #802, .T. ) ;
#898 = FILL_AREA_STYLE_COLOUR ( '', #116 ) ;
#899 = ORIENTED_EDGE ( 'NONE', *, *, #195, .T. ) ;
#900 = DIRECTION ( 'NONE',  ( 1.972152263052529514E-31, -1.000000000000000000, 0.000000000000000000 ) ) ;
#901 = ORIENTED_EDGE ( 'NONE', *, *, #567, .F. ) ;
#902 = CARTESIAN_POINT ( 'NONE',  ( -2.875093704035196929, 15.00000000000000000, 20.29144802385949475 ) ) ;
#903 = DIRECTION ( 'NONE',  ( 1.000000000000000000, 0.000000000000000000, 0.000000000000000000 ) ) ;
#904 = FACE_OUTER_BOUND ( 'NONE', #315, .T. ) ;
#905 = ORIENTED_EDGE ( 'NONE', *, *, #507, .T. ) ;
#906 = CARTESIAN_POINT ( 'NONE',  ( 14.99999999999090328, 0.000000000000000000, 5.000000000020425439 ) ) ;
#907 = VECTOR ( 'NONE', #21, 1000.000000000000000 ) ;
#908 = LINE ( 'NONE', #191, #385 ) ;
#909 = VECTOR ( 'NONE', #1295, 1000.000000000000000 ) ;
#910 = VECTOR ( 'NONE', #1265, 1000.000000000000000 ) ;
#911 = EDGE_CURVE ( 'NONE', #847, #478, #1214, .T. ) ;
#912 = ADVANCED_FACE ( 'NONE', ( #701 ), #392, .F. ) ;
#913 = CARTESIAN_POINT ( 'NONE',  ( 4.999999999990909494, 18.00000000000000000, 5.250000000020460078 ) ) ;
#914 = VERTEX_POINT ( 'NONE', #78 ) ;
#915 = CARTESIAN_POINT ( 'NONE',  ( -17.00000000000347811, 12.00000000000000000, 4.999999999981849186 ) ) ;
#916 = LINE ( 'NONE', #286, #717 ) ;
#917 = EDGE_CURVE ( 'NONE', #992, #10, #386, .T. ) ;
#918 = CARTESIAN_POINT ( 'NONE',  ( -21.99999999999438671, 32.00000000000000000, 2.000000000000005329 ) ) ;
#919 = ADVANCED_FACE ( 'NONE', ( #493 ), #266, .T. ) ;
#920 = ORIENTED_EDGE ( 'NONE', *, *, #154, .T. ) ;
#921 = LINE ( 'NONE', #401, #1150 ) ;
#922 = DIRECTION ( 'NONE',  ( 0.000000000000000000, -1.000000000000000000, 0.000000000000000000 ) ) ;
#923 = CARTESIAN_POINT ( 'NONE',  ( 14.99999999999090861, 18.00000000000000000, 5.250000000020460078 ) ) ;
#924 = LINE ( 'NONE', #543, #1149 ) ;
#925 = ORIENTED_EDGE ( 'NONE', *, *, #1241, .F. ) ;
#926 = CARTESIAN_POINT ( 'NONE',  ( -291579.0000000000000, 30.00000000000000000, 0.000000000000000000 ) ) ;
#927 = EDGE_CURVE ( 'NONE', #478, #548, #1103, .T. ) ;
#928 = DIRECTION ( 'NONE',  ( -1.000000000000000000, 0.000000000000000000, 0.000000000000000000 ) ) ;
#929 = VECTOR ( 'NONE', #817, 1000.000000000000000 ) ;
#930 =( GEOMETRIC_REPRESENTATION_CONTEXT ( 3 ) GLOBAL_UNCERTAINTY_ASSIGNED_CONTEXT ( ( #635 ) ) GLOBAL_UNIT_ASSIGNED_CONTEXT ( ( #290, #1145, #755 ) ) REPRESENTATION_CONTEXT ( 'NONE', 'WORKASPACE' ) );
#931 = AXIS2_PLACEMENT_3D ( 'NONE', #86, #4, #389 ) ;
#932 = AXIS2_PLACEMENT_3D ( 'NONE', #118, #940, #1249 ) ;
#933 = PLANE ( 'NONE',  #241 ) ;
#934 = CARTESIAN_POINT ( 'NONE',  ( 4.999999999990902388, 12.00000000000000000, 5.000000000020452973 ) ) ;
#935 = ORIENTED_EDGE ( 'NONE', *, *, #107, .T. ) ;
#936 = CARTESIAN_POINT ( 'NONE',  ( -15.00000000000348166, 15.00000000000000000, 6.000000000002708056 ) ) ;
#937 = EDGE_CURVE ( 'NONE', #756, #398, #1124, .T. ) ;
#938 = EDGE_LOOP ( 'NONE', ( #111, #810 ) ) ;
#939 = ORIENTED_EDGE ( 'NONE', *, *, #575, .T. ) ;
#940 = DIRECTION ( 'NONE',  ( 0.000000000000000000, 1.000000000000000000, 0.000000000000000000 ) ) ;
#941 = DIRECTION ( 'NONE',  ( -0.000000000000000000, 0.000000000000000000, -1.000000000000000000 ) ) ;
#942 = CARTESIAN_POINT ( 'NONE',  ( 6.449999999990902566, 12.00000000000000000, 5.000000000020452973 ) ) ;
#943 = DIRECTION ( 'NONE',  ( -1.084202172485502462E-16, -1.000000000000000000, -0.000000000000000000 ) ) ;
#944 = ORIENTED_EDGE ( 'NONE', *, *, #133, .T. ) ;
#945 = CARTESIAN_POINT ( 'NONE',  ( 14.99999999999090861, 18.00000000000000000, 5.250000000020460078 ) ) ;
#946 = ORIENTED_EDGE ( 'NONE', *, *, #156, .T. ) ;
#947 = FACE_OUTER_BOUND ( 'NONE', #742, .T. ) ;
#948 = CARTESIAN_POINT ( 'NONE',  ( -21.99999999999438671, -4.338734978713022974E-30, 3.469446951953614189E-15 ) ) ;
#949 = DIRECTION ( 'NONE',  ( 0.000000000000000000, -1.000000000000000000, -0.000000000000000000 ) ) ;
#950 = ORIENTED_EDGE ( 'NONE', *, *, #1011, .T. ) ;
#951 = DIRECTION ( 'NONE',  ( 0.000000000000000000, 1.000000000000000000, 0.000000000000000000 ) ) ;
#952 = ORIENTED_EDGE ( 'NONE', *, *, #937, .F. ) ;
#953 = ORIENTED_EDGE ( 'NONE', *, *, #277, .F. ) ;
#954 = FACE_OUTER_BOUND ( 'NONE', #597, .T. ) ;
#955 = LINE ( 'NONE', #435, #910 ) ;
#956 = AXIS2_PLACEMENT_3D ( 'NONE', #1111, #1196, #1308 ) ;
#957 = ADVANCED_FACE ( 'NONE', ( #904 ), #1315, .T. ) ;
#958 = DIRECTION ( 'NONE',  ( 0.000000000000000000, 1.000000000000000000, 0.000000000000000000 ) ) ;
#959 = VECTOR ( 'NONE', #163, 1000.000000000000000 ) ;
#960 = DIRECTION ( 'NONE',  ( 0.000000000000000000, -1.000000000000000000, -0.000000000000000000 ) ) ;
#961 = ORIENTED_EDGE ( 'NONE', *, *, #927, .T. ) ;
#962 = PLANE ( 'NONE',  #1148 ) ;
#963 = EDGE_LOOP ( 'NONE', ( #247, #648, #729, #939 ) ) ;
#964 = FACE_OUTER_BOUND ( 'NONE', #1226, .T. ) ;
#965 = LINE ( 'NONE', #663, #14 ) ;
#966 = DIRECTION ( 'NONE',  ( 0.000000000000000000, -1.000000000000000000, 0.000000000000000000 ) ) ;
#967 = EDGE_CURVE ( 'NONE', #184, #687, #378, .T. ) ;
#968 = ORIENTED_EDGE ( 'NONE', *, *, #1259, .F. ) ;
#969 = DIRECTION ( 'NONE',  ( 0.000000000000000000, -1.000000000000000000, -0.000000000000000000 ) ) ;
#970 = EDGE_CURVE ( 'NONE', #1096, #984, #1219, .T. ) ;
#971 = EDGE_LOOP ( 'NONE', ( #953, #310, #124, #1305 ) ) ;
#972 = VERTEX_POINT ( 'NONE', #686 ) ;
#973 = DIRECTION ( 'NONE',  ( -1.972152263052529514E-31, 1.000000000000000000, 0.000000000000000000 ) ) ;
#974 = DIRECTION ( 'NONE',  ( 1.000000000000000000, 1.972152263052529514E-31, -1.734723475979122155E-16 ) ) ;
#975 = DIRECTION ( 'NONE',  ( 1.000000000000000000, 0.000000000000000000, 0.000000000000000000 ) ) ;
#976 = EDGE_LOOP ( 'NONE', ( #901, #339, #1169, #95 ) ) ;
#977 = CYLINDRICAL_SURFACE ( 'NONE', #1044, 1.449999999999999956 ) ;
#978 = DIRECTION ( 'NONE',  ( -1.000000000000000000, 0.000000000000000000, 0.000000000000000000 ) ) ;
#979 = VECTOR ( 'NONE', #868, 1000.000000000000000 ) ;
#980 = VECTOR ( 'NONE', #981, 1000.000000000000000 ) ;
#981 = DIRECTION ( 'NONE',  ( 0.000000000000000000, -1.000000000000000000, -0.000000000000000000 ) ) ;
#982 = CIRCLE ( 'NONE', #1173, 1.449999999999999956 ) ;
#983 = VECTOR ( 'NONE', #1256, 1000.000000000000000 ) ;
#984 = VERTEX_POINT ( 'NONE', #1097 ) ;
#985 = FACE_OUTER_BOUND ( 'NONE', #754, .T. ) ;
#986 = AXIS2_PLACEMENT_3D ( 'NONE', #239, #1147, #1071 ) ;
#987 = ADVANCED_FACE ( 'NONE', ( #192 ), #895, .T. ) ;
#988 = DIRECTION ( 'NONE',  ( 1.000000000000000000, 0.000000000000000000, 0.000000000000000000 ) ) ;
#989 = LINE ( 'NONE', #1285, #321 ) ;
#990 = ORIENTED_EDGE ( 'NONE', *, *, #1179, .T. ) ;
#991 = LINE ( 'NONE', #462, #178 ) ;
#992 = VERTEX_POINT ( 'NONE', #598 ) ;
#993 = EDGE_CURVE ( 'NONE', #390, #114, #1231, .T. ) ;
#994 = CARTESIAN_POINT ( 'NONE',  ( 291577.0000000000000, 5.750342404040673980E-26, 3.469446951953614189E-15 ) ) ;
#995 = ORIENTED_EDGE ( 'NONE', *, *, #998, .F. ) ;
#996 = CARTESIAN_POINT ( 'NONE',  ( -18.45000000000348450, 18.00000000000000000, 6.149999999981810461 ) ) ;
#997 = ORIENTED_EDGE ( 'NONE', *, *, #234, .F. ) ;
#998 = EDGE_CURVE ( 'NONE', #537, #1048, #1026, .T. ) ;
#999 = CARTESIAN_POINT ( 'NONE',  ( -18.45000000000348450, 18.00000000000000000, 6.149999999981810461 ) ) ;
#1000 = VECTOR ( 'NONE', #246, 1000.000000000000000 ) ;
#1001 = EDGE_LOOP ( 'NONE', ( #944, #225, #692, #1098 ) ) ;
#1002 = LINE ( 'NONE', #1010, #1207 ) ;
#1003 = AXIS2_PLACEMENT_3D ( 'NONE', #106, #640, #733 ) ;
#1004 = AXIS2_PLACEMENT_3D ( 'NONE', #533, #941, #1060 ) ;
#1005 = AXIS2_PLACEMENT_3D ( 'NONE', #915, #1203, #1021 ) ;
#1006 = ORIENTED_EDGE ( 'NONE', *, *, #174, .F. ) ;
#1007 = DIRECTION ( 'NONE',  ( 1.972152263052529514E-31, -1.000000000000000000, 0.000000000000000000 ) ) ;
#1008 = ADVANCED_FACE ( 'NONE', ( #586 ), #100, .F. ) ;
#1009 = EDGE_LOOP ( 'NONE', ( #1234, #1093, #344, #1288 ) ) ;
#1010 = CARTESIAN_POINT ( 'NONE',  ( 19.99999999998773248, 30.00000000000000000, 1.500000000000001332 ) ) ;
#1011 = EDGE_CURVE ( 'NONE', #1159, #1162, #414, .T. ) ;
#1012 = CARTESIAN_POINT ( 'NONE',  ( 4.999999999990909494, 30.00000000000000000, 5.250000000020460078 ) ) ;
#1013 = VERTEX_POINT ( 'NONE', #419 ) ;
#1014 = CARTESIAN_POINT ( 'NONE',  ( -17.00000000000347811, -3.352658847188551179E-30, 4.999999999981849186 ) ) ;
#1015 = ORIENTED_EDGE ( 'NONE', *, *, #993, .F. ) ;
#1016 = DIRECTION ( 'NONE',  ( 1.000000000000000000, 0.000000000000000000, 0.000000000000000000 ) ) ;
#1017 = ADVANCED_FACE ( 'NONE', ( #618 ), #314, .T. ) ;
#1018 = CARTESIAN_POINT ( 'NONE',  ( 14.99999999999090328, 12.00000000000000000, 5.000000000020425439 ) ) ;
#1019 = CARTESIAN_POINT ( 'NONE',  ( -7.000000000003477219, 12.00000000000000000, 4.999999999981820764 ) ) ;
#1020 = ORIENTED_EDGE ( 'NONE', *, *, #1036, .F. ) ;
#1021 = DIRECTION ( 'NONE',  ( -1.000000000000000000, 0.000000000000000000, 0.000000000000000000 ) ) ;
#1022 = DIRECTION ( 'NONE',  ( -1.000000000000000000, 0.000000000000000000, 0.000000000000000000 ) ) ;
#1023 = VECTOR ( 'NONE', #397, 1000.000000000000000 ) ;
#1024 = EDGE_CURVE ( 'NONE', #984, #10, #820, .T. ) ;
#1025 = CARTESIAN_POINT ( 'NONE',  ( -2.000000000021075142, -3.944304526132273995E-31, 3.469446951953614189E-15 ) ) ;
#1026 = LINE ( 'NONE', #999, #630 ) ;
#1027 = DIRECTION ( 'NONE',  ( 0.000000000000000000, -1.000000000000000000, 0.000000000000000000 ) ) ;
#1028 = ORIENTED_EDGE ( 'NONE', *, *, #288, .F. ) ;
#1029 = EDGE_CURVE ( 'NONE', #574, #1239, #105, .T. ) ;
#1030 = CARTESIAN_POINT ( 'NONE',  ( -3.410605131648480892E-10, 30.00000000000000000, -399970.0000000001746 ) ) ;
#1031 = ORIENTED_EDGE ( 'NONE', *, *, #439, .T. ) ;
#1032 = CARTESIAN_POINT ( 'NONE',  ( -16.50000000001076117, 3.000000000000000000, 9.500000000002732037 ) ) ;
#1033 = DIRECTION ( 'NONE',  ( 1.000000000000000000, 0.000000000000000000, 0.000000000000000000 ) ) ;
#1034 = FACE_BOUND ( 'NONE', #1303, .T. ) ;
#1035 = CARTESIAN_POINT ( 'NONE',  ( 4.999999999990902388, 12.00000000000000000, 5.000000000020452973 ) ) ;
#1036 = EDGE_CURVE ( 'NONE', #463, #1090, #627, .T. ) ;
#1037 = ORIENTED_EDGE ( 'NONE', *, *, #11, .T. ) ;
#1038 = DIRECTION ( 'NONE',  ( -1.972152263052529514E-31, 1.000000000000000000, 0.000000000000000000 ) ) ;
#1039 = EDGE_LOOP ( 'NONE', ( #995, #968, #1116, #440 ) ) ;
#1040 = CARTESIAN_POINT ( 'NONE',  ( -8.450000000003484502, 30.00000000000000000, 6.149999999981810461 ) ) ;
#1041 = AXIS2_PLACEMENT_3D ( 'NONE', #1198, #177, #892 ) ;
#1042 = VECTOR ( 'NONE', #394, 1000.000000000000000 ) ;
#1043 = VECTOR ( 'NONE', #1052, 1000.000000000000000 ) ;
#1044 = AXIS2_PLACEMENT_3D ( 'NONE', #1284, #352, #886 ) ;
#1045 = CARTESIAN_POINT ( 'NONE',  ( 14.99999999999090861, 30.00000000000000000, 5.250000000020460078 ) ) ;
#1046 = VERTEX_POINT ( 'NONE', #948 ) ;
#1047 = LINE ( 'NONE', #612, #76 ) ;
#1048 = VERTEX_POINT ( 'NONE', #534 ) ;
#1049 = CYLINDRICAL_SURFACE ( 'NONE', #767, 1.449999999999999956 ) ;
#1050 = PLANE ( 'NONE',  #220 ) ;
#1051 = DIRECTION ( 'NONE',  ( -1.000000000000000000, -1.972152263052529514E-31, 0.000000000000000000 ) ) ;
#1052 = DIRECTION ( 'NONE',  ( -1.972152263052529514E-31, 1.000000000000000000, 0.000000000000000000 ) ) ;
#1053 = CARTESIAN_POINT ( 'NONE',  ( -18.45000000000347740, -3.638620925331167818E-30, 4.999999999981849186 ) ) ;
#1054 = EDGE_CURVE ( 'NONE', #396, #992, #327, .T. ) ;
#1055 = CARTESIAN_POINT ( 'NONE',  ( -5.550000000003477929, -1.094544505993404851E-30, 4.999999999981820764 ) ) ;
#1056 = ORIENTED_EDGE ( 'NONE', *, *, #843, .F. ) ;
#1057 = CARTESIAN_POINT ( 'NONE',  ( 19.99999999998773248, 32.00000000000000000, 1.500000000000001332 ) ) ;
#1058 = ORIENTED_EDGE ( 'NONE', *, *, #180, .F. ) ;
#1059 = CYLINDRICAL_SURFACE ( 'NONE', #56, 1.449999999999999956 ) ;
#1060 = DIRECTION ( 'NONE',  ( -1.000000000000000000, -1.972152263052529514E-31, 0.000000000000000000 ) ) ;
#1061 = EDGE_CURVE ( 'NONE', #972, #702, #213, .T. ) ;
#1062 =( GEOMETRIC_REPRESENTATION_CONTEXT ( 3 ) GLOBAL_UNCERTAINTY_ASSIGNED_CONTEXT ( ( #138 ) ) GLOBAL_UNIT_ASSIGNED_CONTEXT ( ( #595, #1227, #301 ) ) REPRESENTATION_CONTEXT ( 'NONE', 'WORKASPACE' ) );
#1063 = EDGE_CURVE ( 'NONE', #813, #681, #718, .T. ) ;
#1064 = DIRECTION ( 'NONE',  ( -1.000000000000000000, 0.000000000000000000, 0.000000000000000000 ) ) ;
#1065 = AXIS2_PLACEMENT_3D ( 'NONE', #710, #1121, #198 ) ;
#1066 = AXIS2_PLACEMENT_3D ( 'NONE', #452, #467, #1076 ) ;
#1067 = VERTEX_POINT ( 'NONE', #32 ) ;
#1068 = CARTESIAN_POINT ( 'NONE',  ( -21.99999999999438671, 32.00000000000000000, 3.469446951953614189E-15 ) ) ;
#1069 = ORIENTED_EDGE ( 'NONE', *, *, #1102, .F. ) ;
#1070 = ORIENTED_EDGE ( 'NONE', *, *, #993, .T. ) ;
#1071 = DIRECTION ( 'NONE',  ( 1.000000000000000000, 0.000000000000000000, 0.000000000000000000 ) ) ;
#1072 = FACE_OUTER_BOUND ( 'NONE', #860, .T. ) ;
#1073 = CARTESIAN_POINT ( 'NONE',  ( -1.454218689911357387E-11, 32.00000000000000000, 1.500000000000001332 ) ) ;
#1074 = PLANE ( 'NONE',  #1188 ) ;
#1075 = ORIENTED_EDGE ( 'NONE', *, *, #79, .T. ) ;
#1076 = DIRECTION ( 'NONE',  ( -1.000000000000000000, -1.972152263052529514E-31, 0.000000000000000000 ) ) ;
#1077 = CYLINDRICAL_SURFACE ( 'NONE', #347, 1.449999999999999956 ) ;
#1078 = CARTESIAN_POINT ( 'NONE',  ( -15.55000000000347704, -3.066696769045934540E-30, 4.999999999981849186 ) ) ;
#1079 = EDGE_CURVE ( 'NONE', #260, #859, #181, .T. ) ;
#1080 = EDGE_LOOP ( 'NONE', ( #7, #1166 ) ) ;
#1081 = CYLINDRICAL_SURFACE ( 'NONE', #1005, 1.449999999999999956 ) ;
#1082 = LINE ( 'NONE', #1073, #13 ) ;
#1083 = VECTOR ( 'NONE', #72, 1000.000000000000000 ) ;
#1084 = VECTOR ( 'NONE', #1167, 1000.000000000000000 ) ;
#1085 = DIRECTION ( 'NONE',  ( 0.000000000000000000, 1.000000000000000000, 0.000000000000000000 ) ) ;
#1086 = AXIS2_PLACEMENT_3D ( 'NONE', #1035, #949, #33 ) ;
#1087 = CIRCLE ( 'NONE', #1299, 1.449999999999999956 ) ;
#1088 = VERTEX_POINT ( 'NONE', #1055 ) ;
#1089 = FACE_OUTER_BOUND ( 'NONE', #69, .T. ) ;
#1090 = VERTEX_POINT ( 'NONE', #1142 ) ;
#1091 = DIRECTION ( 'NONE',  ( 0.000000000000000000, 0.000000000000000000, 1.000000000000000000 ) ) ;
#1092 = LINE ( 'NONE', #46, #1000 ) ;
#1093 = ORIENTED_EDGE ( 'NONE', *, *, #617, .F. ) ;
#1094 = DIRECTION ( 'NONE',  ( 1.000000000000000000, 0.000000000000000000, 0.000000000000000000 ) ) ;
#1095 = EDGE_CURVE ( 'NONE', #1159, #840, #827, .T. ) ;
#1096 = VERTEX_POINT ( 'NONE', #112 ) ;
#1097 = CARTESIAN_POINT ( 'NONE',  ( 19.99999999998773248, 32.00000000000000000, 0.000000000000000000 ) ) ;
#1098 = ORIENTED_EDGE ( 'NONE', *, *, #453, .T. ) ;
#1099 = DIRECTION ( 'NONE',  ( 1.000000000000000000, 1.972152263052529514E-31, 0.000000000000000000 ) ) ;
#1100 = ORIENTED_EDGE ( 'NONE', *, *, #784, .T. ) ;
#1101 = EDGE_CURVE ( 'NONE', #914, #272, #874, .T. ) ;
#1102 = EDGE_CURVE ( 'NONE', #1152, #377, #223, .T. ) ;
#1103 = LINE ( 'NONE', #918, #696 ) ;
#1104 = VECTOR ( 'NONE', #273, 1000.000000000000114 ) ;
#1105 = ORIENTED_EDGE ( 'NONE', *, *, #277, .T. ) ;
#1106 = SURFACE_STYLE_USAGE ( .BOTH. , #285 ) ;
#1107 = AXIS2_PLACEMENT_3D ( 'NONE', #923, #1151, #1225 ) ;
#1108 = CIRCLE ( 'NONE', #517, 1.449999999999999956 ) ;
#1109 = AXIS2_PLACEMENT_3D ( 'NONE', #161, #794, #566 ) ;
#1110 = ORIENTED_EDGE ( 'NONE', *, *, #55, .F. ) ;
#1111 = CARTESIAN_POINT ( 'NONE',  ( 14.99999999999090861, 18.00000000000000000, 5.250000000020460078 ) ) ;
#1112 = ORIENTED_EDGE ( 'NONE', *, *, #1199, .F. ) ;
#1113 = LINE ( 'NONE', #902, #929 ) ;
#1114 = DIRECTION ( 'NONE',  ( 0.000000000000000000, -1.000000000000000000, 0.000000000000000000 ) ) ;
#1115 = CARTESIAN_POINT ( 'NONE',  ( 19.99999999998773248, 32.00000000000000000, 0.000000000000000000 ) ) ;
#1116 = ORIENTED_EDGE ( 'NONE', *, *, #897, .T. ) ;
#1117 = EDGE_CURVE ( 'NONE', #289, #1067, #1258, .T. ) ;
#1118 = CARTESIAN_POINT ( 'NONE',  ( -7.499999999996205702, 15.00000000000000000, 9.500000000002732037 ) ) ;
#1119 = DIRECTION ( 'NONE',  ( 0.000000000000000000, 1.000000000000000000, 0.000000000000000000 ) ) ;
#1120 = CARTESIAN_POINT ( 'NONE',  ( 3.549999999990909316, 18.00000000000000000, 5.250000000020460078 ) ) ;
#1121 = DIRECTION ( 'NONE',  ( -0.9191450300173672483, 9.965390383740819369E-17, 0.3939192985807793979 ) ) ;
#1122 = EDGE_LOOP ( 'NONE', ( #466, #1314, #432, #946 ) ) ;
#1123 = SURFACE_STYLE_FILL_AREA ( #703 ) ;
#1124 = CIRCLE ( 'NONE', #544, 1.449999999999999956 ) ;
#1125 = FACE_OUTER_BOUND ( 'NONE', #846, .T. ) ;
#1126 = VECTOR ( 'NONE', #542, 1000.000000000000000 ) ;
#1127 = VECTOR ( 'NONE', #235, 1000.000000000000000 ) ;
#1128 = DIRECTION ( 'NONE',  ( 0.000000000000000000, 0.000000000000000000, -1.000000000000000000 ) ) ;
#1129 = ORIENTED_EDGE ( 'NONE', *, *, #48, .T. ) ;
#1130 = CARTESIAN_POINT ( 'NONE',  ( -18.45000000000347740, 12.00000000000000000, 4.999999999981849186 ) ) ;
#1131 = PRODUCT_DEFINITION_CONTEXT ( 'detailed design', #1215, 'design' ) ;
#1132 = CARTESIAN_POINT ( 'NONE',  ( 4.999999999990909494, 18.00000000000000000, 5.250000000020460078 ) ) ;
#1133 = CARTESIAN_POINT ( 'NONE',  ( -291579.0000000000000, 0.000000000000000000, 8.500000000026375346 ) ) ;
#1134 = EDGE_LOOP ( 'NONE', ( #84, #1100, #411, #179 ) ) ;
#1135 = ADVANCED_FACE ( 'NONE', ( #647 ), #933, .T. ) ;
#1136 = CARTESIAN_POINT ( 'NONE',  ( -1.454218689911357387E-11, 32.00000000000000000, 0.000000000000000000 ) ) ;
#1137 = VERTEX_POINT ( 'NONE', #1244 ) ;
#1138 = FACE_OUTER_BOUND ( 'NONE', #193, .T. ) ;
#1139 = VERTEX_POINT ( 'NONE', #1136 ) ;
#1140 = PLANE ( 'NONE',  #932 ) ;
#1141 = CARTESIAN_POINT ( 'NONE',  ( -9.000000000003481659, 3.000000000000000000, 9.500000000002732037 ) ) ;
#1142 = CARTESIAN_POINT ( 'NONE',  ( 6.449999999990902566, 0.000000000000000000, 5.000000000020452973 ) ) ;
#1143 = CARTESIAN_POINT ( 'NONE',  ( 16.44999999999090079, 12.00000000000000000, 5.000000000020425439 ) ) ;
#1144 = EDGE_LOOP ( 'NONE', ( #18, #166, #1224, #1187 ) ) ;
#1145 =( NAMED_UNIT ( * ) PLANE_ANGLE_UNIT ( ) SI_UNIT ( $, .RADIAN. ) );
#1146 = ORIENTED_EDGE ( 'NONE', *, *, #487, .T. ) ;
#1147 = DIRECTION ( 'NONE',  ( 0.000000000000000000, -1.000000000000000000, 0.000000000000000000 ) ) ;
#1148 = AXIS2_PLACEMENT_3D ( 'NONE', #9, #408, #309 ) ;
#1149 = VECTOR ( 'NONE', #960, 1000.000000000000000 ) ;
#1150 = VECTOR ( 'NONE', #97, 1000.000000000000000 ) ;
#1151 = DIRECTION ( 'NONE',  ( 0.000000000000000000, 1.000000000000000000, 0.000000000000000000 ) ) ;
#1152 = VERTEX_POINT ( 'NONE', #209 ) ;
#1153 = CARTESIAN_POINT ( 'NONE',  ( -15.00000000000348166, 15.00000000000000000, 3.469446951953614189E-15 ) ) ;
#1154 = ADVANCED_FACE ( 'NONE', ( #1034, #513, #17 ), #838, .T. ) ;
#1155 = ORIENTED_EDGE ( 'NONE', *, *, #1269, .F. ) ;
#1156 = DIRECTION ( 'NONE',  ( 0.000000000000000000, 1.000000000000000000, 0.000000000000000000 ) ) ;
#1157 = DIRECTION ( 'NONE',  ( 1.972152263052529514E-31, -1.000000000000000000, 0.000000000000000000 ) ) ;
#1158 = FACE_OUTER_BOUND ( 'NONE', #1144, .T. ) ;
#1159 = VERTEX_POINT ( 'NONE', #673 ) ;
#1160 = FACE_OUTER_BOUND ( 'NONE', #593, .T. ) ;
#1161 = EDGE_CURVE ( 'NONE', #101, #1181, #254, .T. ) ;
#1162 = VERTEX_POINT ( 'NONE', #569 ) ;
#1163 = DIRECTION ( 'NONE',  ( 0.000000000000000000, 0.000000000000000000, 1.000000000000000000 ) ) ;
#1164 = EDGE_CURVE ( 'NONE', #1067, #1318, #44, .T. ) ;
#1165 = CARTESIAN_POINT ( 'NONE',  ( 3.549999999990902655, 12.00000000000000000, 5.000000000020452973 ) ) ;
#1166 = ORIENTED_EDGE ( 'NONE', *, *, #203, .F. ) ;
#1167 = DIRECTION ( 'NONE',  ( 0.000000000000000000, -1.000000000000000000, -0.000000000000000000 ) ) ;
#1168 = ORIENTED_EDGE ( 'NONE', *, *, #683, .F. ) ;
#1169 = ORIENTED_EDGE ( 'NONE', *, *, #519, .F. ) ;
#1170 = CARTESIAN_POINT ( 'NONE',  ( 4.999999999990902388, 12.00000000000000000, 5.000000000020452973 ) ) ;
#1171 = ADVANCED_FACE ( 'NONE', ( #775 ), #1077, .F. ) ;
#1172 = AXIS2_PLACEMENT_3D ( 'NONE', #343, #148, #1190 ) ;
#1173 = AXIS2_PLACEMENT_3D ( 'NONE', #845, #307, #135 ) ;
#1174 = CIRCLE ( 'NONE', #492, 1.449999999999999956 ) ;
#1175 = AXIS2_PLACEMENT_3D ( 'NONE', #906, #1221, #373 ) ;
#1176 = CARTESIAN_POINT ( 'NONE',  ( 6.449999999990908783, 18.00000000000000000, 5.250000000020460078 ) ) ;
#1177 = ORIENTED_EDGE ( 'NONE', *, *, #1298, .F. ) ;
#1178 = LINE ( 'NONE', #63, #521 ) ;
#1179 = EDGE_CURVE ( 'NONE', #876, #1260, #851, .T. ) ;
#1180 = DIRECTION ( 'NONE',  ( 1.000000000000000000, 0.000000000000000000, 0.000000000000000000 ) ) ;
#1181 = VERTEX_POINT ( 'NONE', #552 ) ;
#1182 = DIRECTION ( 'NONE',  ( 0.000000000000000000, -1.000000000000000000, -0.000000000000000000 ) ) ;
#1183 = DIRECTION ( 'NONE',  ( 1.972152263052529514E-31, -1.000000000000000000, 0.000000000000000000 ) ) ;
#1184 = DIRECTION ( 'NONE',  ( 0.000000000000000000, 1.000000000000000000, 0.000000000000000000 ) ) ;
#1185 = ORIENTED_EDGE ( 'NONE', *, *, #690, .T. ) ;
#1186 = DIRECTION ( 'NONE',  ( 1.000000000000000000, 1.972152263052529514E-31, 0.000000000000000000 ) ) ;
#1187 = ORIENTED_EDGE ( 'NONE', *, *, #1011, .F. ) ;
#1188 = AXIS2_PLACEMENT_3D ( 'NONE', #873, #170, #670 ) ;
#1189 = AXIS2_PLACEMENT_3D ( 'NONE', #64, #1183, #1064 ) ;
#1190 = DIRECTION ( 'NONE',  ( -1.000000000000000000, 0.000000000000000000, 0.000000000000000000 ) ) ;
#1191 = ORIENTED_EDGE ( 'NONE', *, *, #1101, .F. ) ;
#1192 = EDGE_CURVE ( 'NONE', #702, #671, #782, .T. ) ;
#1193 = CARTESIAN_POINT ( 'NONE',  ( -7.000000000003484324, 18.00000000000000000, 6.149999999981810461 ) ) ;
#1194 = ORIENTED_EDGE ( 'NONE', *, *, #506, .T. ) ;
#1195 = DIRECTION ( 'NONE',  ( 0.000000000000000000, -1.000000000000000000, 0.000000000000000000 ) ) ;
#1196 = DIRECTION ( 'NONE',  ( 0.000000000000000000, 1.000000000000000000, 0.000000000000000000 ) ) ;
#1197 = ORIENTED_EDGE ( 'NONE', *, *, #1298, .T. ) ;
#1198 = CARTESIAN_POINT ( 'NONE',  ( -12.00000000000347988, 30.00000000000000000, 19.99999999998181366 ) ) ;
#1199 = EDGE_CURVE ( 'NONE', #478, #377, #146, .T. ) ;
#1200 = ADVANCED_FACE ( 'NONE', ( #760 ), #871, .F. ) ;
#1201 = ORIENTED_EDGE ( 'NONE', *, *, #174, .T. ) ;
#1202 = ORIENTED_EDGE ( 'NONE', *, *, #391, .F. ) ;
#1203 = DIRECTION ( 'NONE',  ( 1.972152263052529514E-31, -1.000000000000000000, 0.000000000000000000 ) ) ;
#1204 = DIRECTION ( 'NONE',  ( -1.000000000000000000, 0.000000000000000000, 0.000000000000000000 ) ) ;
#1205 = ORIENTED_EDGE ( 'NONE', *, *, #643, .T. ) ;
#1206 = LINE ( 'NONE', #371, #581 ) ;
#1207 = VECTOR ( 'NONE', #495, 1000.000000000000000 ) ;
#1208 = AXIS2_PLACEMENT_3D ( 'NONE', #476, #217, #649 ) ;
#1209 = ORIENTED_EDGE ( 'NONE', *, *, #722, .F. ) ;
#1210 = LINE ( 'NONE', #1130, #1042 ) ;
#1211 = CIRCLE ( 'NONE', #1320, 1.449999999999999956 ) ;
#1212 = CARTESIAN_POINT ( 'NONE',  ( -15.55000000000347704, 12.00000000000000000, 4.999999999981849186 ) ) ;
#1213 = CARTESIAN_POINT ( 'NONE',  ( 4.999999999990909494, 18.00000000000000000, 5.250000000020460078 ) ) ;
#1214 = LINE ( 'NONE', #271, #199 ) ;
#1215 = APPLICATION_CONTEXT ( 'automotive_design' ) ;
#1216 = ORIENTED_EDGE ( 'NONE', *, *, #866, .F. ) ;
#1217 = CARTESIAN_POINT ( 'NONE',  ( -15.00000000000348344, 3.000000000000000000, 6.000000000002708056 ) ) ;
#1218 = VERTEX_POINT ( 'NONE', #224 ) ;
#1219 = LINE ( 'NONE', #1115, #77 ) ;
#1220 = VERTEX_POINT ( 'NONE', #1143 ) ;
#1221 = DIRECTION ( 'NONE',  ( 0.000000000000000000, -1.000000000000000000, 0.000000000000000000 ) ) ;
#1222 = ADVANCED_FACE ( 'NONE', ( #404 ), #113, .F. ) ;
#1223 = CARTESIAN_POINT ( 'NONE',  ( -2.000000000021078694, 32.00000000000000000, 3.469446951953614189E-15 ) ) ;
#1224 = ORIENTED_EDGE ( 'NONE', *, *, #866, .T. ) ;
#1225 = DIRECTION ( 'NONE',  ( -1.000000000000000000, 0.000000000000000000, 0.000000000000000000 ) ) ;
#1226 = EDGE_LOOP ( 'NONE', ( #734, #1264 ) ) ;
#1227 =( NAMED_UNIT ( * ) PLANE_ANGLE_UNIT ( ) SI_UNIT ( $, .RADIAN. ) );
#1228 = STYLED_ITEM ( 'NONE', ( #579 ), #613 ) ;
#1229 = EDGE_CURVE ( 'NONE', #748, #184, #629, .T. ) ;
#1230 = DIRECTION ( 'NONE',  ( -1.972152263052529514E-31, 1.000000000000000000, 0.000000000000000000 ) ) ;
#1231 = CIRCLE ( 'NONE', #280, 1.449999999999999956 ) ;
#1232 = CIRCLE ( 'NONE', #658, 1.449999999999999956 ) ;
#1233 = CIRCLE ( 'NONE', #829, 1.449999999999999956 ) ;
#1234 = ORIENTED_EDGE ( 'NONE', *, *, #769, .F. ) ;
#1235 = CARTESIAN_POINT ( 'NONE',  ( -16.50000000001075762, 30.00000000003161205, 9.500000000002732037 ) ) ;
#1236 = LINE ( 'NONE', #619, #200 ) ;
#1237 = EDGE_LOOP ( 'NONE', ( #773, #489, #623, #556 ) ) ;
#1238 = DIRECTION ( 'NONE',  ( -1.000000000000000000, 0.000000000000000000, 0.000000000000000000 ) ) ;
#1239 = VERTEX_POINT ( 'NONE', #23 ) ;
#1240 = DIRECTION ( 'NONE',  ( 0.000000000000000000, -1.000000000000000000, 0.000000000000000000 ) ) ;
#1241 = EDGE_CURVE ( 'NONE', #114, #390, #679, .T. ) ;
#1242 = DIRECTION ( 'NONE',  ( 1.826024711554533223E-15, 3.601198767282115134E-46, -1.000000000000000000 ) ) ;
#1243 = ADVANCED_FACE ( 'NONE', ( #1158 ), #753, .F. ) ;
#1244 = CARTESIAN_POINT ( 'NONE',  ( -2.000000000021075142, 30.00000000000000000, 2.000000000000001776 ) ) ;
#1245 = CARTESIAN_POINT ( 'NONE',  ( -18.45000000000347740, 12.00000000000000000, 4.999999999981849186 ) ) ;
#1246 = ORIENTED_EDGE ( 'NONE', *, *, #1179, .F. ) ;
#1247 = DIRECTION ( 'NONE',  ( 0.000000000000000000, 0.000000000000000000, 1.000000000000000000 ) ) ;
#1248 = DIRECTION ( 'NONE',  ( 1.972152263052529514E-31, -1.000000000000000000, 0.000000000000000000 ) ) ;
#1249 = DIRECTION ( 'NONE',  ( -1.000000000000000000, 0.000000000000000000, 0.000000000000000000 ) ) ;
#1250 = FACE_BOUND ( 'NONE', #1009, .T. ) ;
#1251 = DIRECTION ( 'NONE',  ( -1.972152263052529514E-31, 1.000000000000000000, 0.000000000000000000 ) ) ;
#1252 = EDGE_LOOP ( 'NONE', ( #797, #363 ) ) ;
#1253 = PLANE ( 'NONE',  #602 ) ;
#1254 = CARTESIAN_POINT ( 'NONE',  ( -8.450000000003477396, 12.00000000000000000, 4.999999999981820764 ) ) ;
#1255 = VECTOR ( 'NONE', #778, 1000.000000000000000 ) ;
#1256 = DIRECTION ( 'NONE',  ( -1.826024711554533223E-15, -3.601198767282115134E-46, 1.000000000000000000 ) ) ;
#1257 = AXIS2_PLACEMENT_3D ( 'NONE', #888, #1195, #570 ) ;
#1258 = LINE ( 'NONE', #746, #657 ) ;
#1259 = EDGE_CURVE ( 'NONE', #73, #537, #982, .T. ) ;
#1260 = VERTEX_POINT ( 'NONE', #1245 ) ;
#1261 = CARTESIAN_POINT ( 'NONE',  ( -1.454739106954150429E-11, 30.00000000000000000, 1.500000000021373125 ) ) ;
#1262 = ORIENTED_EDGE ( 'NONE', *, *, #126, .T. ) ;
#1263 = DIRECTION ( 'NONE',  ( -1.000000000000000000, -1.972152263052529514E-31, 0.000000000000000000 ) ) ;
#1264 = ORIENTED_EDGE ( 'NONE', *, *, #204, .T. ) ;
#1265 = DIRECTION ( 'NONE',  ( 0.000000000000000000, 0.000000000000000000, -1.000000000000000000 ) ) ;
#1266 = ORIENTED_EDGE ( 'NONE', *, *, #367, .T. ) ;
#1267 = LINE ( 'NONE', #337, #299 ) ;
#1268 = ORIENTED_EDGE ( 'NONE', *, *, #927, .F. ) ;
#1269 = EDGE_CURVE ( 'NONE', #1096, #621, #924, .T. ) ;
#1270 = CARTESIAN_POINT ( 'NONE',  ( -7.000000000003484324, 18.00000000000000000, 6.149999999981810461 ) ) ;
#1271 = CARTESIAN_POINT ( 'NONE',  ( -2.000000000751539275, -3.944304527572861365E-31, 400029.9999999994761 ) ) ;
#1272 = CARTESIAN_POINT ( 'NONE',  ( 0.000000000000000000, 0.000000000000000000, 0.000000000000000000 ) ) ;
#1273 = CARTESIAN_POINT ( 'NONE',  ( -7.000000000003484324, 30.00000000000000000, 6.149999999981810461 ) ) ;
#1274 = ORIENTED_EDGE ( 'NONE', *, *, #970, .F. ) ;
#1275 = LINE ( 'NONE', #877, #120 ) ;
#1276 = ADVANCED_FACE ( 'NONE', ( #319 ), #129, .F. ) ;
#1277 = VECTOR ( 'NONE', #714, 1000.000000000000000 ) ;
#1278 = AXIS2_PLACEMENT_3D ( 'NONE', #530, #749, #735 ) ;
#1279 = CIRCLE ( 'NONE', #697, 1.449999999999999956 ) ;
#1280 = AXIS2_PLACEMENT_3D ( 'NONE', #1324, #720, #1016 ) ;
#1281 = FACE_OUTER_BOUND ( 'NONE', #855, .T. ) ;
#1282 = ORIENTED_EDGE ( 'NONE', *, *, #1290, .F. ) ;
#1283 = UNCERTAINTY_MEASURE_WITH_UNIT (LENGTH_MEASURE( 1.000000000000000082E-05 ), #776, 'distance_accuracy_value', 'NONE');
#1284 = CARTESIAN_POINT ( 'NONE',  ( -17.00000000000348521, 18.00000000000000000, 6.149999999981810461 ) ) ;
#1285 = CARTESIAN_POINT ( 'NONE',  ( 16.44999999999090790, 18.00000000000000000, 5.250000000020460078 ) ) ;
#1286 = EDGE_LOOP ( 'NONE', ( #49, #654, #1274, #1309, #523, #550 ) ) ;
#1287 = DIRECTION ( 'NONE',  ( 0.000000000000000000, 0.000000000000000000, -1.000000000000000000 ) ) ;
#1288 = ORIENTED_EDGE ( 'NONE', *, *, #532, .F. ) ;
#1289 = PRODUCT ( 'StandardServoHolder', 'StandardServoHolder', '', ( #255 ) ) ;
#1290 = EDGE_CURVE ( 'NONE', #972, #215, #1236, .T. ) ;
#1291 = CARTESIAN_POINT ( 'NONE',  ( 6.449999999990908783, 30.00000000000000000, 5.250000000020460078 ) ) ;
#1292 = ORIENTED_EDGE ( 'NONE', *, *, #11, .F. ) ;
#1293 = FACE_BOUND ( 'NONE', #938, .T. ) ;
#1294 = ORIENTED_EDGE ( 'NONE', *, *, #1290, .T. ) ;
#1295 = DIRECTION ( 'NONE',  ( 1.972152263052529514E-31, -1.000000000000000000, 0.000000000000000000 ) ) ;
#1296 = AXIS2_PLACEMENT_3D ( 'NONE', #61, #365, #443 ) ;
#1297 = DIRECTION ( 'NONE',  ( -1.734723475979122155E-16, -3.421138828922576078E-47, -1.000000000000000000 ) ) ;
#1298 = EDGE_CURVE ( 'NONE', #463, #801, #740, .T. ) ;
#1299 = AXIS2_PLACEMENT_3D ( 'NONE', #502, #922, #304 ) ;
#1300 = ORIENTED_EDGE ( 'NONE', *, *, #555, .F. ) ;
#1301 = LINE ( 'NONE', #54, #80 ) ;
#1302 = EDGE_CURVE ( 'NONE', #548, #1137, #51, .T. ) ;
#1303 = EDGE_LOOP ( 'NONE', ( #413, #421 ) ) ;
#1304 = DIRECTION ( 'NONE',  ( -1.972152263052529514E-31, 1.000000000000000000, 0.000000000000000000 ) ) ;
#1305 = ORIENTED_EDGE ( 'NONE', *, *, #617, .T. ) ;
#1306 = FILL_AREA_STYLE ('',( #898 ) ) ;
#1307 = ORIENTED_EDGE ( 'NONE', *, *, #1101, .T. ) ;
#1308 = DIRECTION ( 'NONE',  ( -1.000000000000000000, 0.000000000000000000, 0.000000000000000000 ) ) ;
#1309 = ORIENTED_EDGE ( 'NONE', *, *, #1269, .T. ) ;
#1310 = DIRECTION ( 'NONE',  ( -1.084202172485502462E-16, -1.000000000000000000, -0.000000000000000000 ) ) ;
#1311 = CARTESIAN_POINT ( 'NONE',  ( -17.00000000000348521, 18.00000000000000000, 6.149999999981810461 ) ) ;
#1312 = EDGE_CURVE ( 'NONE', #494, #681, #1082, .T. ) ;
#1313 = EDGE_CURVE ( 'NONE', #1220, #101, #787, .T. ) ;
#1314 = ORIENTED_EDGE ( 'NONE', *, *, #1117, .F. ) ;
#1315 = PLANE ( 'NONE',  #715 ) ;
#1316 = CIRCLE ( 'NONE', #387, 1.449999999999999956 ) ;
#1317 = PRESENTATION_LAYER_ASSIGNMENT (  '', '', ( #1228 ) ) ;
#1318 = VERTEX_POINT ( 'NONE', #261 ) ;
#1319 = FILL_AREA_STYLE_COLOUR ( '', #278 ) ;
#1320 = AXIS2_PLACEMENT_3D ( 'NONE', #704, #1114, #91 ) ;
#1321 = DIRECTION ( 'NONE',  ( 1.000000000000000000, 0.000000000000000000, 0.000000000000000000 ) ) ;
#1322 = CARTESIAN_POINT ( 'NONE',  ( -20.19387181320553282, 3.000000000000000000, 18.11903423074878106 ) ) ;
#1323 = ORIENTED_EDGE ( 'NONE', *, *, #1161, .T. ) ;
#1324 = CARTESIAN_POINT ( 'NONE',  ( 14.99999999999090328, 12.00000000000000000, 5.000000000020425439 ) ) ;
#1325 = DIRECTION ( 'NONE',  ( 1.972152263052529514E-31, -1.000000000000000000, 0.000000000000000000 ) ) ;
#1326 = ORIENTED_EDGE ( 'NONE', *, *, #937, .T. ) ;
ENDSEC;
END-ISO-10303-21;
